<svg width="34" height="29" viewBox="0 0 34 29" fill="none"
    xmlns="http://www.w3.org/2000/svg">
    <path d="M27.4198 7.66694C27.1437 7.66694 26.9198 7.8908 26.9198 8.16694C26.9198 8.44308 27.1437 8.66694 27.4198 8.66694V7.66694ZM30.9636 8.66694C31.2398 8.66694 31.4636 8.44308 31.4636 8.16694C31.4636 7.8908 31.2398 7.66694 30.9636 7.66694V8.66694ZM27.4198 9.80909C27.1437 9.80909 26.9198 10.033 26.9198 10.3091C26.9198 10.5852 27.1437 10.8091 27.4198 10.8091V9.80909ZM30.9636 10.8091C31.2398 10.8091 31.4636 10.5852 31.4636 10.3091C31.4636 10.033 31.2398 9.80909 30.9636 9.80909V10.8091ZM27.4198 11.9248C27.1437 11.9248 26.9198 12.1487 26.9198 12.4248C26.9198 12.7009 27.1437 12.9248 27.4198 12.9248V11.9248ZM30.9636 12.9248C31.2398 12.9248 31.4636 12.7009 31.4636 12.4248C31.4636 12.1487 31.2398 11.9248 30.9636 11.9248V12.9248ZM17.0856 24.7344C16.8586 24.8915 16.802 25.203 16.9592 25.4301C17.1163 25.6571 17.4278 25.7137 17.6549 25.5566L17.0856 24.7344ZM24.8017 18.3488L25.1552 17.9952C24.9655 17.8055 24.66 17.7993 24.4627 17.9811L24.8017 18.3488ZM26.4149 19.962L26.0613 20.3155C26.2346 20.4888 26.5079 20.511 26.7069 20.3679L26.4149 19.962ZM31.8903 16.6389C32.1145 16.4777 32.1655 16.1652 32.0042 15.9411C31.843 15.7169 31.5305 15.6659 31.3064 15.8272L31.8903 16.6389ZM14.5405 27.4752C14.2644 27.4752 14.0405 27.6991 14.0405 27.9752C14.0405 28.2513 14.2644 28.4752 14.5405 28.4752V27.4752ZM33 27.9752V28.4752C33.2761 28.4752 33.5 28.2513 33.5 27.9752H33ZM33 5.04628H33.5C33.5 4.91306 33.4468 4.78536 33.3523 4.69149L33 5.04628ZM29.2182 1.29091L29.5705 0.936117C29.4768 0.843107 29.3502 0.790909 29.2182 0.790909V1.29091ZM19.8562 0.790909C19.5801 0.790909 19.3562 1.01477 19.3562 1.29091C19.3562 1.56705 19.5801 1.79091 19.8562 1.79091V0.790909ZM29.5066 1.29091C29.5066 1.01477 29.2828 0.790909 29.0066 0.790909C28.7305 0.790909 28.5066 1.01477 28.5066 1.29091H29.5066ZM29.0066 5.23141H28.5066C28.5066 5.50755 28.7305 5.73141 29.0066 5.73141V5.23141ZM33 5.73141C33.2761 5.73141 33.5 5.50755 33.5 5.23141C33.5 4.95526 33.2761 4.73141 33 4.73141V5.73141ZM23.9025 7.37356V6.87356C23.6263 6.87356 23.4025 7.09741 23.4025 7.37356H23.9025ZM25.7008 7.37356H26.2008C26.2008 7.09741 25.977 6.87356 25.7008 6.87356V7.37356ZM25.7008 9.1719V9.6719C25.977 9.6719 26.2008 9.44804 26.2008 9.1719H25.7008ZM23.9025 9.1719H23.4025C23.4025 9.44804 23.6263 9.6719 23.9025 9.6719V9.1719ZM23.9025 10.7058V10.2058C23.6263 10.2058 23.4025 10.4296 23.4025 10.7058H23.9025ZM25.7008 10.7058H26.2008C26.2008 10.4296 25.977 10.2058 25.7008 10.2058V10.7058ZM25.7008 12.5041V13.0041C25.977 13.0041 26.2008 12.7803 26.2008 12.5041H25.7008ZM23.9025 12.5041H23.4025C23.4025 12.7803 23.6263 13.0041 23.9025 13.0041V12.5041ZM23.9025 14.0116V13.5116C23.6263 13.5116 23.4025 13.7354 23.4025 14.0116H23.9025ZM25.7008 14.0116H26.2008C26.2008 13.7354 25.977 13.5116 25.7008 13.5116V14.0116ZM25.7008 15.8099V16.3099C25.977 16.3099 26.2008 16.0861 26.2008 15.8099H25.7008ZM23.9025 15.8099H23.4025C23.4025 16.0861 23.6263 16.3099 23.9025 16.3099V15.8099ZM30.4636 25.7008C30.4636 25.977 30.6875 26.2008 30.9636 26.2008C31.2398 26.2008 31.4636 25.977 31.4636 25.7008H30.4636ZM31.4636 19.3802C31.4636 19.104 31.2398 18.8802 30.9636 18.8802C30.6875 18.8802 30.4636 19.104 30.4636 19.3802H31.4636ZM28.5066 25.7008C28.5066 25.977 28.7305 26.2008 29.0066 26.2008C29.2828 26.2008 29.5066 25.977 29.5066 25.7008H28.5066ZM29.5066 20.9669C29.5066 20.6908 29.2828 20.4669 29.0066 20.4669C28.7305 20.4669 28.5066 20.6908 28.5066 20.9669H29.5066ZM26.5231 25.7008C26.5231 25.977 26.747 26.2008 27.0231 26.2008C27.2993 26.2008 27.5231 25.977 27.5231 25.7008H26.5231ZM27.5231 22.1835C27.5231 21.9073 27.2993 21.6835 27.0231 21.6835C26.747 21.6835 26.5231 21.9073 26.5231 22.1835H27.5231ZM24.5397 25.7008C24.5397 25.977 24.7635 26.2008 25.0397 26.2008C25.3158 26.2008 25.5397 25.977 25.5397 25.7008H24.5397ZM25.5397 21.3372C25.5397 21.0611 25.3158 20.8372 25.0397 20.8372C24.7635 20.8372 24.5397 21.0611 24.5397 21.3372H25.5397ZM22.5826 25.7008C22.5826 25.977 22.8065 26.2008 23.0826 26.2008C23.3588 26.2008 23.5826 25.977 23.5826 25.7008H22.5826ZM23.5826 22.5537C23.5826 22.2776 23.3588 22.0537 23.0826 22.0537C22.8065 22.0537 22.5826 22.2776 22.5826 22.5537H23.5826ZM10.8934 2.7719C10.8934 3.04804 11.1172 3.2719 11.3934 3.2719C11.6695 3.2719 11.8934 3.04804 11.8934 2.7719H10.8934ZM11.8934 1C11.8934 0.723858 11.6695 0.5 11.3934 0.5C11.1172 0.5 10.8934 0.723858 10.8934 1H11.8934ZM12.9145 2.90464C12.8564 3.17459 13.0281 3.44056 13.298 3.49871C13.568 3.55685 13.834 3.38515 13.8921 3.1152L12.9145 2.90464ZM14.2623 1.39619C14.3205 1.12624 14.1488 0.860261 13.8788 0.802118C13.6089 0.743975 13.3429 0.915679 13.2848 1.18563L14.2623 1.39619ZM15.2103 3.6734C15.0801 3.91694 15.172 4.21989 15.4156 4.35006C15.6591 4.48022 15.962 4.38832 16.0922 4.14478L15.2103 3.6734ZM16.912 2.61089C17.0422 2.36736 16.9503 2.06441 16.7068 1.93424C16.4632 1.80407 16.1603 1.89598 16.0301 2.13952L16.912 2.61089ZM17.217 5.10101C17.0282 5.30246 17.0384 5.61888 17.2398 5.80774C17.4413 5.99661 17.7577 5.9864 17.9466 5.78495L17.217 5.10101ZM19.1367 4.51553C19.3255 4.31407 19.3153 3.99765 19.1139 3.80879C18.9124 3.61992 18.596 3.63013 18.4071 3.83158L19.1367 4.51553ZM18.8056 7.02415C18.5688 7.16622 18.492 7.47335 18.6341 7.71014C18.7761 7.94693 19.0833 8.02371 19.3201 7.88164L18.8056 7.02415ZM20.7746 7.00891C21.0114 6.86684 21.0882 6.55971 20.9461 6.32292C20.804 6.08613 20.4969 6.00935 20.2601 6.15142L20.7746 7.00891ZM19.8106 9.32247C19.5432 9.39147 19.3824 9.66417 19.4514 9.93155C19.5204 10.1989 19.7931 10.3598 20.0605 10.2908L19.8106 9.32247ZM21.7001 9.86761C21.9675 9.79861 22.1283 9.52592 22.0593 9.25853C21.9903 8.99115 21.7177 8.83033 21.4503 8.89933L21.7001 9.86761ZM20.1892 11.8457C19.9132 11.8371 19.6824 12.0538 19.6738 12.3298C19.6652 12.6058 19.8819 12.8366 20.1579 12.8452L20.1892 11.8457ZM21.8505 12.8981C22.1265 12.9067 22.3572 12.69 22.3659 12.414C22.3745 12.138 22.1577 11.9072 21.8817 11.8986L21.8505 12.8981ZM19.935 14.3571C19.673 14.2697 19.3898 14.4113 19.3025 14.6733C19.2152 14.9353 19.3568 15.2184 19.6187 15.3057L19.935 14.3571ZM21.2055 15.8347C21.4675 15.922 21.7507 15.7804 21.838 15.5184C21.9253 15.2565 21.7837 14.9733 21.5218 14.886L21.2055 15.8347ZM19 16.7186C18.7715 16.5635 18.4606 16.6229 18.3054 16.8513C18.1502 17.0797 18.2096 17.3907 18.4381 17.5458L19 16.7186ZM19.8397 18.4979C20.0681 18.6531 20.3791 18.5937 20.5343 18.3652C20.6894 18.1368 20.63 17.8259 20.4016 17.6707L19.8397 18.4979ZM17.4886 18.7148C17.311 18.5033 16.9956 18.4759 16.7842 18.6535C16.5727 18.8311 16.5453 19.1465 16.7229 19.358L17.4886 18.7148ZM17.8337 20.6803C18.0113 20.8917 18.3267 20.9191 18.5381 20.7415C18.7496 20.5639 18.777 20.2485 18.5994 20.0371L17.8337 20.6803ZM6.3719 19.5479C6.53759 19.327 6.49281 19.0136 6.2719 18.8479C6.05099 18.6822 5.73759 18.727 5.5719 18.9479L6.3719 19.5479ZM4.54049 20.3231C4.37481 20.5441 4.41958 20.8575 4.6405 21.0231C4.86141 21.1888 5.17481 21.1441 5.3405 20.9231L4.54049 20.3231ZM4.60579 17.8231C4.8267 17.6575 4.87147 17.3441 4.70579 17.1231C4.5401 16.9022 4.2267 16.8575 4.00579 17.0231L4.60579 17.8231ZM2.63058 18.0545C2.40966 18.2202 2.36489 18.5336 2.53058 18.7545C2.69626 18.9755 3.00966 19.0202 3.23058 18.8545L2.63058 18.0545ZM3.3502 15.6411C3.60748 15.5408 3.73475 15.2509 3.63445 14.9936C3.53415 14.7363 3.24427 14.6091 2.98699 14.7094L3.3502 15.6411ZM1.42666 15.3176C1.16938 15.4179 1.04211 15.7078 1.14241 15.9651C1.24271 16.2224 1.53258 16.3496 1.78987 16.2493L1.42666 15.3176ZM2.70567 13.1877C2.98095 13.1658 3.1864 12.925 3.16455 12.6497C3.1427 12.3744 2.90184 12.169 2.62656 12.1908L2.70567 13.1877ZM0.960443 12.3231C0.685166 12.3449 0.47972 12.5858 0.501567 12.861C0.523414 13.1363 0.76428 13.3418 1.03956 13.3199L0.960443 12.3231ZM2.69574 10.6398C2.96601 10.6964 3.23104 10.5233 3.28771 10.253C3.34437 9.98275 3.17122 9.71772 2.90095 9.66105L2.69574 10.6398ZM1.26128 9.31725C0.99102 9.26058 0.725988 9.43374 0.669319 9.704C0.612651 9.97427 0.785805 10.2393 1.05607 10.296L1.26128 9.31725ZM3.38531 8.21271C3.62967 8.34132 3.93203 8.24748 4.06064 8.00312C4.18925 7.75876 4.09542 7.4564 3.85105 7.32779L3.38531 8.21271ZM2.34362 6.5344C2.09925 6.40579 1.7969 6.49962 1.66828 6.74399C1.53967 6.98835 1.63351 7.29071 1.87787 7.41932L2.34362 6.5344ZM4.64374 6.03841C4.84114 6.23151 5.1577 6.22804 5.35081 6.03064C5.54391 5.83324 5.54043 5.51668 5.34304 5.32358L4.64374 6.03841ZM4.12651 4.13349C3.92911 3.94039 3.61255 3.94387 3.41944 4.14126C3.22634 4.33866 3.22982 4.65522 3.42721 4.84833L4.12651 4.13349ZM6.43836 4.34473C6.57672 4.58371 6.88261 4.66529 7.12159 4.52693C7.36057 4.38857 7.44215 4.08268 7.30379 3.8437L6.43836 4.34473ZM6.43106 2.33626C6.2927 2.09728 5.98681 2.01571 5.74783 2.15406C5.50885 2.29242 5.42728 2.59831 5.56563 2.8373L6.43106 2.33626ZM8.60932 3.21762C8.68021 3.4845 8.95404 3.64339 9.22092 3.5725C9.48781 3.50161 9.6467 3.22778 9.5758 2.9609L8.60932 3.21762ZM9.12622 1.26833C9.05533 1.00145 8.7815 0.84256 8.51461 0.913452C8.24773 0.984343 8.08884 1.25817 8.15973 1.52506L9.12622 1.26833ZM14.4612 21.443H14.9612H14.4612ZM16.9857 13.4904C16.9316 13.7612 17.1072 14.0246 17.378 14.0787C17.6488 14.1329 17.9122 13.9573 17.9663 13.6865L16.9857 13.4904ZM17.5554 13.2182L18.0457 13.3162L17.5554 13.2182ZM16.4975 8.16694L16.9105 7.8849L16.9044 7.87632L16.4975 8.16694ZM16.1008 7.63802L16.485 7.31789L16.4805 7.31262L16.1008 7.63802ZM15.3603 6.89752L15.7139 6.54397C15.7048 6.53492 15.6954 6.52622 15.6857 6.51789L15.3603 6.89752ZM14.7785 6.44793L15.0436 6.02387L15.0358 6.01919L14.7785 6.44793ZM14.3818 6.20992L14.6391 5.78108L14.6299 5.7758L14.3818 6.20992ZM13.8 5.91901L13.997 5.4593L13.9857 5.45477L13.8 5.91901ZM13.3769 5.76033L13.5626 5.29598L13.5524 5.29217L13.3769 5.76033ZM12.7421 5.57521L12.8634 5.09014C12.8505 5.08691 12.8375 5.0842 12.8243 5.08201L12.7421 5.57521ZM12.2926 5.49587L12.3748 5.00267C12.364 5.00088 12.3532 4.99944 12.3423 4.99835L12.2926 5.49587ZM8.59008 17.8463L8.36648 18.2935C8.61076 18.4156 8.90785 18.3192 9.03377 18.0768C9.15969 17.8345 9.06784 17.5359 8.82748 17.4062L8.59008 17.8463ZM8.53719 17.8198L8.74172 17.3636C8.49349 17.2523 8.20185 17.3599 8.08535 17.6057C7.96886 17.8515 8.07027 18.1454 8.31358 18.267L8.53719 17.8198ZM9.33058 18.7455H9.83058C9.83058 18.7379 9.83041 18.7303 9.83006 18.7228L9.33058 18.7455ZM8.83058 19.2479C8.83058 19.5241 9.05444 19.7479 9.33058 19.7479C9.60672 19.7479 9.83058 19.5241 9.83058 19.2479H8.83058ZM17.1329 14.8655L17.6316 14.8299L17.1329 14.8655ZM16.8879 15.1482L16.8523 14.6495L16.8879 15.1482ZM16.6053 14.9033L17.104 14.8676L16.6053 14.9033ZM16.8502 14.6206L16.8145 14.1219L16.8502 14.6206ZM16.4189 16.0033L16.9177 15.9676L16.4189 16.0033ZM15.8913 16.041L16.3901 16.0053L15.8913 16.041ZM15.5725 16.9291L15.0738 16.9647L15.5725 16.9291ZM15.3276 17.2117L15.3633 17.7104L15.3276 17.2117ZM15.0449 16.9668L14.5462 17.0024L15.0449 16.9668ZM15.2899 16.6841L15.3255 17.1828L15.2899 16.6841ZM14.6462 17.6425L15.145 17.6069L14.6462 17.6425ZM14.1186 17.6803L14.6174 17.6446L14.1186 17.6803ZM10.9463 19.3802C10.9463 19.6563 11.1701 19.8802 11.4463 19.8802C11.7224 19.8802 11.9463 19.6563 11.9463 19.3802H10.9463ZM11.9463 14.6198C11.9463 14.3437 11.7224 14.1198 11.4463 14.1198C11.1701 14.1198 10.9463 14.3437 10.9463 14.6198H11.9463ZM8.60011 14.7541C8.80572 14.9384 9.12183 14.9212 9.30617 14.7156C9.49051 14.51 9.47326 14.1939 9.26766 14.0095L8.60011 14.7541ZM14.0909 14.2231L13.7443 13.8627L13.7374 13.8696L14.0909 14.2231ZM13.4898 14.1309C13.3366 14.3607 13.3987 14.6711 13.6284 14.8243C13.8582 14.9775 14.1686 14.9154 14.3218 14.6856L13.4898 14.1309ZM27.4198 8.66694H30.9636V7.66694H27.4198V8.66694ZM27.4198 10.8091H30.9636V9.80909H27.4198V10.8091ZM27.4198 12.9248H30.9636V11.9248H27.4198V12.9248ZM17.6549 25.5566C17.861 25.4138 17.9678 25.3278 18.8852 24.4857C19.8113 23.6357 21.5847 21.9946 25.1406 18.7164L24.4627 17.9811C20.9045 21.2616 19.1342 22.8998 18.209 23.749C17.2752 24.6061 17.2233 24.6391 17.0856 24.7344L17.6549 25.5566ZM24.4481 18.7023L26.0613 20.3155L26.7684 19.6084L25.1552 17.9952L24.4481 18.7023ZM26.7069 20.3679L31.8903 16.6389L31.3064 15.8272L26.1229 19.5561L26.7069 20.3679ZM14.5405 28.4752H33V27.4752H14.5405V28.4752ZM33.5 27.9752V5.04628H32.5V27.9752H33.5ZM33.3523 4.69149L29.5705 0.936117L28.8659 1.6457L32.6477 5.40107L33.3523 4.69149ZM29.2182 0.790909H19.8562V1.79091H29.2182V0.790909ZM28.5066 1.29091V5.23141H29.5066V1.29091H28.5066ZM29.0066 5.73141H33V4.73141H29.0066V5.73141ZM23.9025 7.87356H25.7008V6.87356H23.9025V7.87356ZM25.2008 7.37356V9.1719H26.2008V7.37356H25.2008ZM25.7008 8.6719H23.9025V9.6719H25.7008V8.6719ZM24.4025 9.1719V7.37356H23.4025V9.1719H24.4025ZM23.9025 11.2058H25.7008V10.2058H23.9025V11.2058ZM25.2008 10.7058V12.5041H26.2008V10.7058H25.2008ZM25.7008 12.0041H23.9025V13.0041H25.7008V12.0041ZM24.4025 12.5041V10.7058H23.4025V12.5041H24.4025ZM23.9025 14.5116H25.7008V13.5116H23.9025V14.5116ZM25.2008 14.0116V15.8099H26.2008V14.0116H25.2008ZM25.7008 15.3099H23.9025V16.3099H25.7008V15.3099ZM24.4025 15.8099V14.0116H23.4025V15.8099H24.4025ZM31.4636 25.7008V19.3802H30.4636V25.7008H31.4636ZM29.5066 25.7008V20.9669H28.5066V25.7008H29.5066ZM27.5231 25.7008V22.1835H26.5231V25.7008H27.5231ZM25.5397 25.7008V21.3372H24.5397V25.7008H25.5397ZM23.5826 25.7008V22.5537H22.5826V25.7008H23.5826ZM12.1099 11.5785C12.1099 11.945 11.8128 12.2421 11.4463 12.2421V13.2421C12.3651 13.2421 13.1099 12.4973 13.1099 11.5785H12.1099ZM11.4463 12.2421C11.0798 12.2421 10.7826 11.945 10.7826 11.5785H9.78264C9.78264 12.4973 10.5275 13.2421 11.4463 13.2421V12.2421ZM10.7826 11.5785C10.7826 11.212 11.0798 10.9149 11.4463 10.9149V9.91488C10.5275 9.91488 9.78264 10.6597 9.78264 11.5785H10.7826ZM11.4463 10.9149C11.8128 10.9149 12.1099 11.212 12.1099 11.5785H13.1099C13.1099 10.6597 12.3651 9.91488 11.4463 9.91488V10.9149ZM11.8934 2.7719V1H10.8934V2.7719H11.8934ZM13.8921 3.1152L14.2623 1.39619L13.2848 1.18563L12.9145 2.90464L13.8921 3.1152ZM16.0922 4.14478L16.912 2.61089L16.0301 2.13952L15.2103 3.6734L16.0922 4.14478ZM17.9466 5.78495L19.1367 4.51553L18.4071 3.83158L17.217 5.10101L17.9466 5.78495ZM19.3201 7.88164L20.7746 7.00891L20.2601 6.15142L18.8056 7.02415L19.3201 7.88164ZM20.0605 10.2908L21.7001 9.86761L21.4503 8.89933L19.8106 9.32247L20.0605 10.2908ZM20.1579 12.8452L21.8505 12.8981L21.8817 11.8986L20.1892 11.8457L20.1579 12.8452ZM19.6187 15.3057L21.2055 15.8347L21.5218 14.886L19.935 14.3571L19.6187 15.3057ZM18.4381 17.5458L19.8397 18.4979L20.4016 17.6707L19 16.7186L18.4381 17.5458ZM16.7229 19.358L17.8337 20.6803L18.5994 20.0371L17.4886 18.7148L16.7229 19.358ZM5.5719 18.9479L4.54049 20.3231L5.3405 20.9231L6.3719 19.5479L5.5719 18.9479ZM4.00579 17.0231L2.63058 18.0545L3.23058 18.8545L4.60579 17.8231L4.00579 17.0231ZM2.98699 14.7094L1.42666 15.3176L1.78987 16.2493L3.3502 15.6411L2.98699 14.7094ZM2.62656 12.1908L0.960443 12.3231L1.03956 13.3199L2.70567 13.1877L2.62656 12.1908ZM2.90095 9.66105L1.26128 9.31725L1.05607 10.296L2.69574 10.6398L2.90095 9.66105ZM3.85105 7.32779L2.34362 6.5344L1.87787 7.41932L3.38531 8.21271L3.85105 7.32779ZM5.34304 5.32358L4.12651 4.13349L3.42721 4.84833L4.64374 6.03841L5.34304 5.32358ZM7.30379 3.8437L6.43106 2.33626L5.56563 2.8373L6.43836 4.34473L7.30379 3.8437ZM9.5758 2.9609L9.12622 1.26833L8.15973 1.52506L8.60932 3.21762L9.5758 2.9609ZM13.9851 21.3926H8.90744V22.3926H13.9851V21.3926ZM8.90744 21.3926C8.92247 21.3926 8.93319 21.3959 8.93886 21.3984C8.94415 21.4008 8.94629 21.4028 8.94694 21.4035C8.94759 21.4041 8.94963 21.4063 8.95197 21.4116C8.95448 21.4172 8.95785 21.4279 8.95785 21.443H7.95785C7.95785 21.9571 8.39328 22.3926 8.90744 22.3926V21.3926ZM8.95785 21.443V19.8298H7.95785V21.443H8.95785ZM8.95785 19.8298C8.95785 19.8448 8.95448 19.8555 8.95197 19.8612C8.94963 19.8665 8.94759 19.8686 8.94694 19.8693C8.94629 19.8699 8.94415 19.872 8.93886 19.8743C8.93319 19.8768 8.92247 19.8802 8.90744 19.8802V18.8802C8.39328 18.8802 7.95785 19.3156 7.95785 19.8298H8.95785ZM8.90744 19.8802H14.0116V18.8802H8.90744V19.8802ZM14.0116 19.8802C13.9965 19.8802 13.9858 19.8768 13.9801 19.8743C13.9749 19.872 13.9727 19.8699 13.9721 19.8693C13.9714 19.8686 13.9694 19.8665 13.967 19.8612C13.9645 19.8555 13.9612 19.8448 13.9612 19.8298H14.9612C14.9612 19.3156 14.5257 18.8802 14.0116 18.8802V19.8802ZM13.9612 19.8298V21.443H14.9612V19.8298H13.9612ZM13.9612 21.443C13.9612 21.4415 13.9617 21.434 13.9662 21.4237C13.9706 21.4136 13.9769 21.4053 13.9832 21.3995C13.996 21.3877 14.0006 21.3926 13.9851 21.3926V22.3926C14.4873 22.3926 14.9612 22.0205 14.9612 21.443H13.9612ZM17.9663 13.6865C17.9784 13.6263 17.9905 13.5717 18.0038 13.5118C18.0169 13.4527 18.0312 13.3883 18.0457 13.3162L17.0651 13.1201C17.053 13.1803 17.0409 13.2349 17.0276 13.2948C17.0145 13.3539 17.0002 13.4183 16.9857 13.4904L17.9663 13.6865ZM18.0457 13.3162C18.1336 12.8764 18.1612 12.4179 18.1612 12.0017H17.1612C17.1612 12.3788 17.1358 12.7666 17.0651 13.1201L18.0457 13.3162ZM18.1612 12.0017C18.1612 10.4737 17.7081 9.05297 16.9104 7.88496L16.0846 8.44892C16.7679 9.44951 17.1612 10.6734 17.1612 12.0017H18.1612ZM16.9044 7.87632C16.7747 7.69482 16.6314 7.49363 16.4849 7.31792L15.7167 7.95811C15.8348 8.09976 15.9558 8.26882 16.0907 8.45756L16.9044 7.87632ZM16.4805 7.31262C16.3075 7.11081 16.1356 6.93924 15.9783 6.78198L15.2712 7.48909C15.4313 7.64919 15.5768 7.79498 15.7212 7.96341L16.4805 7.31262ZM15.9783 6.78198C15.9226 6.72621 15.8609 6.67371 15.818 6.6369C15.7683 6.59437 15.7374 6.56753 15.7139 6.54397L15.0068 7.25107C15.0626 7.30685 15.1242 7.35935 15.1672 7.39616C15.2168 7.43869 15.2477 7.46553 15.2712 7.48909L15.9783 6.78198ZM15.6857 6.51789C15.5049 6.36293 15.2921 6.17929 15.0435 6.02394L14.5135 6.87193C14.6881 6.98104 14.8455 7.11476 15.0349 7.27715L15.6857 6.51789ZM15.0358 6.01919C14.9696 5.97952 14.9035 5.93985 14.8374 5.90018C14.7713 5.86051 14.7052 5.82084 14.6391 5.78117L14.1246 6.63866C14.1907 6.67833 14.2568 6.718 14.3229 6.75767C14.389 6.79734 14.4551 6.83701 14.5213 6.87668L15.0358 6.01919ZM14.6299 5.7758C14.4292 5.66111 14.2006 5.5467 13.997 5.45944L13.603 6.37858C13.7697 6.44999 13.9642 6.54716 14.1337 6.64404L14.6299 5.7758ZM13.9857 5.45477C13.9108 5.42483 13.8303 5.3956 13.7593 5.36977C13.6849 5.34271 13.6199 5.31904 13.5626 5.29609L13.1912 6.22457C13.266 6.25451 13.3465 6.28374 13.4176 6.30957C13.492 6.33663 13.5569 6.3603 13.6143 6.38325L13.9857 5.45477ZM13.5524 5.29217C13.31 5.20125 13.0711 5.14205 12.8634 5.09014L12.6209 6.06028C12.8364 6.11415 13.0206 6.16073 13.2013 6.2285L13.5524 5.29217ZM12.8243 5.08201C12.7492 5.06948 12.6799 5.05689 12.6068 5.0436C12.5344 5.03045 12.4582 5.01659 12.3748 5.00267L12.2104 5.98907C12.2856 6.0016 12.3548 6.01418 12.4279 6.02747C12.5003 6.04063 12.5765 6.05449 12.6599 6.0684L12.8243 5.08201ZM12.3423 4.99835C12.0771 4.97183 11.7644 4.94298 11.4463 4.94298V5.94298C11.71 5.94298 11.9791 5.96702 12.2428 5.99339L12.3423 4.99835ZM11.4463 4.94298C7.70954 4.94298 4.70496 8.1255 4.70496 12.0017H5.70496C5.70496 8.63152 8.30699 5.94298 11.4463 5.94298V4.94298ZM4.70496 12.0017C4.70496 14.7205 6.17769 17.113 8.35269 18.2863L8.82748 17.4062C6.98264 16.411 5.70496 14.3605 5.70496 12.0017H4.70496ZM8.81369 17.3991L8.76079 17.3726L8.31358 18.267L8.36648 18.2935L8.81369 17.3991ZM8.53719 17.8198C8.33266 18.2761 8.33253 18.276 8.33239 18.276C8.33235 18.276 8.33222 18.2759 8.33214 18.2759C8.33198 18.2758 8.33183 18.2757 8.33169 18.2757C8.33141 18.2755 8.33118 18.2754 8.33098 18.2753C8.3306 18.2752 8.33039 18.2751 8.33034 18.275C8.33025 18.275 8.33082 18.2753 8.33201 18.2758C8.3344 18.277 8.33922 18.2793 8.34615 18.2827C8.36007 18.2897 8.38203 18.3011 8.40937 18.3168C8.46509 18.3486 8.53763 18.3947 8.60842 18.4523C8.76903 18.583 8.82775 18.6947 8.83109 18.7682L9.83006 18.7228C9.80696 18.2144 9.46898 17.8633 9.23951 17.6766C9.11526 17.5755 8.99441 17.4993 8.90551 17.4485C8.86053 17.4228 8.82237 17.4028 8.79424 17.3888C8.78014 17.3817 8.76847 17.376 8.75961 17.3719C8.75517 17.3698 8.75143 17.368 8.74844 17.3666C8.74694 17.3659 8.74563 17.3653 8.74451 17.3648C8.74395 17.3646 8.74343 17.3644 8.74297 17.3641C8.74273 17.364 8.74251 17.3639 8.74231 17.3638C8.7422 17.3638 8.74205 17.3637 8.742 17.3637C8.74186 17.3636 8.74172 17.3636 8.53719 17.8198ZM8.83058 18.7455V19.2479H9.83058V18.7455H8.83058ZM16.6341 14.9012C16.6249 14.7715 16.7225 14.6588 16.8523 14.6495L16.9236 15.6469C17.3447 15.6168 17.6617 15.251 17.6316 14.8299L16.6341 14.9012ZM16.8523 14.6495C16.982 14.6402 17.0947 14.7379 17.104 14.8676L16.1065 14.9389C16.1367 15.3601 16.5025 15.677 16.9236 15.6469L16.8523 14.6495ZM17.104 14.8676C17.1133 14.9974 17.0156 15.1101 16.8859 15.1193L16.8145 14.1219C16.3934 14.152 16.0764 14.5178 16.1065 14.9389L17.104 14.8676ZM16.8859 15.1193C16.7561 15.1286 16.6434 15.0309 16.6341 14.9012L17.6316 14.8299C17.6015 14.4088 17.2357 14.0918 16.8145 14.1219L16.8859 15.1193ZM15.9202 16.0389C15.9109 15.9092 16.0086 15.7965 16.1383 15.7872L16.2096 16.7847C16.6308 16.7545 16.9478 16.3887 16.9177 15.9676L15.9202 16.0389ZM16.1383 15.7872C16.2681 15.7779 16.3808 15.8756 16.3901 16.0053L15.3926 16.0766C15.4227 16.4978 15.7885 16.8148 16.2096 16.7847L16.1383 15.7872ZM16.3901 16.0053C16.3993 16.1351 16.3017 16.2478 16.1719 16.2571L16.1006 15.2596C15.6795 15.2897 15.3625 15.6555 15.3926 16.0766L16.3901 16.0053ZM16.1719 16.2571C16.0422 16.2663 15.9295 16.1687 15.9202 16.0389L16.9177 15.9676C16.8876 15.5465 16.5217 15.2295 16.1006 15.2596L16.1719 16.2571ZM15.0738 16.9647C15.0645 16.835 15.1622 16.7223 15.292 16.713L15.3633 17.7104C15.7844 17.6803 16.1014 17.3145 16.0713 16.8934L15.0738 16.9647ZM15.292 16.713C15.4217 16.7037 15.5344 16.8014 15.5437 16.9311L14.5462 17.0024C14.5763 17.4236 14.9421 17.7406 15.3633 17.7104L15.292 16.713ZM15.5437 16.9311C15.5529 17.0609 15.4553 17.1736 15.3255 17.1828L15.2542 16.1854C14.8331 16.2155 14.5161 16.5813 14.5462 17.0024L15.5437 16.9311ZM15.3255 17.1828C15.1958 17.1921 15.0831 17.0945 15.0738 16.9647L16.0713 16.8934C16.0412 16.4723 15.6754 16.1553 15.2542 16.1854L15.3255 17.1828ZM14.1475 17.6782C14.1382 17.5484 14.2359 17.4358 14.3656 17.4265L14.437 18.4239C14.8581 18.3938 15.1751 18.028 15.145 17.6069L14.1475 17.6782ZM14.3656 17.4265C14.4954 17.4172 14.6081 17.5149 14.6174 17.6446L13.6199 17.7159C13.65 18.1371 14.0158 18.454 14.437 18.4239L14.3656 17.4265ZM14.6174 17.6446C14.6266 17.7744 14.529 17.8871 14.3992 17.8963L14.3279 16.8989C13.9068 16.929 13.5898 17.2948 13.6199 17.7159L14.6174 17.6446ZM14.3992 17.8963C14.2695 17.9056 14.1568 17.808 14.1475 17.6782L15.145 17.6069C15.1149 17.1858 14.7491 16.8688 14.3279 16.8989L14.3992 17.8963ZM12.6917 21.8926C12.6917 22.6867 12.1114 23.2702 11.4463 23.2702V24.2702C12.7382 24.2702 13.6917 23.1613 13.6917 21.8926H12.6917ZM11.4463 23.2702C10.8029 23.2702 10.2008 22.6815 10.2008 21.8926H9.20083C9.20083 23.1664 10.1855 24.2702 11.4463 24.2702V23.2702ZM11.9463 19.3802V14.6198H10.9463V19.3802H11.9463ZM9.26766 14.0095C8.60428 13.4148 8.19091 12.5442 8.19091 11.5785H7.19091C7.19091 12.8343 7.7296 13.9736 8.60011 14.7541L9.26766 14.0095ZM8.19091 11.5785C8.19091 9.76769 9.65732 8.32314 11.4463 8.32314V7.32314C9.10962 7.32314 7.19091 9.21083 7.19091 11.5785H8.19091ZM11.4463 8.32314C13.2329 8.32314 14.7017 9.79185 14.7017 11.5785H15.7017C15.7017 9.23956 13.7852 7.32314 11.4463 7.32314V8.32314ZM14.7017 11.5785C14.7017 12.4735 14.3342 13.2955 13.7444 13.8627L14.4375 14.5836C15.2228 13.8284 15.7017 12.7464 15.7017 11.5785H14.7017ZM13.7374 13.8696C13.7379 13.869 13.737 13.87 13.7337 13.8729C13.7304 13.876 13.726 13.8799 13.7193 13.8857C13.7088 13.8948 13.6848 13.9153 13.6639 13.9341C13.6194 13.9742 13.5504 14.0399 13.4898 14.1309L14.3218 14.6856C14.314 14.6973 14.3112 14.6969 14.3328 14.6774C14.345 14.6665 14.354 14.6589 14.375 14.6407C14.3919 14.626 14.418 14.6031 14.4445 14.5767L13.7374 13.8696Z" fill="#2978A0"/>
</svg>
