<svg width="16" height="16" viewBox="0 0 16 16" fill="none" xmlns="http://www.w3.org/2000/svg">
<path fill-rule="evenodd" clip-rule="evenodd" d="M6.85944 0.761561C7.01857 0.761312 7.18975 0.761389 7.37449 0.761472L7.67896 0.761561C10.1181 0.761561 10.4072 0.770316 11.3704 0.81409C12.2611 0.854819 12.7446 1.00365 13.0666 1.12869C13.4929 1.29427 13.7968 1.4922 14.1164 1.81194C14.4361 2.13168 14.6341 2.4362 14.8 2.86252C14.9251 3.18416 15.0741 3.66758 15.1146 4.55828C15.1584 5.52131 15.1679 5.8106 15.1679 8.24861C15.1679 10.6866 15.1584 10.9759 15.1146 11.9389C15.0739 12.8296 14.9251 13.3131 14.8 13.6347C14.6344 14.061 14.4361 14.3646 14.1164 14.6841C13.7967 15.0039 13.4931 15.2018 13.0666 15.3674C12.7449 15.493 12.2611 15.6415 11.3704 15.6822C10.4074 15.726 10.1181 15.7355 7.67896 15.7355C5.23961 15.7355 4.95052 15.726 3.98749 15.6822C3.09679 15.6411 2.61337 15.4922 2.29116 15.3672C1.86484 15.2016 1.56032 15.0037 1.24058 14.6839C0.920844 14.3642 0.722909 14.0605 0.556949 13.6339C0.431908 13.3123 0.282886 12.8289 0.242348 11.9382C0.198574 10.9752 0.189819 10.6859 0.189819 8.24633C0.189819 5.80679 0.198574 5.51902 0.242348 4.556C0.283077 3.66529 0.431908 3.18188 0.556949 2.85985C0.722529 2.43353 0.920844 2.12902 1.24058 1.80928C1.56032 1.48954 1.86484 1.29161 2.29116 1.12565C2.61318 1.00003 3.09679 0.851583 3.98749 0.810664C4.83023 0.7726 5.15683 0.761181 6.85944 0.759277V0.761561ZM12.5541 2.27862C11.9489 2.27862 11.4578 2.76908 11.4578 3.37449C11.4578 3.97971 11.9489 4.47074 12.5541 4.47074C13.1593 4.47074 13.6503 3.97971 13.6503 3.37449C13.6503 2.76927 13.1593 2.27824 12.5541 2.27824V2.27862ZM2.98634 8.2509C2.98634 5.66006 5.08692 3.55948 7.67776 3.55948H7.67757C10.2684 3.55948 12.3684 5.66006 12.3684 8.2509C12.3684 10.8417 10.2686 12.9414 7.67776 12.9414C5.08692 12.9414 2.98634 10.8417 2.98634 8.2509Z" fill="#7D808E"/>
<path fill-rule="evenodd" clip-rule="evenodd" d="M7.67942 5.20557C9.3611 5.20557 10.7246 6.56884 10.7246 8.25071C10.7246 9.93239 9.3611 11.2958 7.67942 11.2958C5.99755 11.2958 4.63428 9.93239 4.63428 8.25071C4.63428 6.56884 5.99755 5.20557 7.67942 5.20557V5.20557Z" fill="#7D808E"/>
</svg>
