<svg width="34" height="35" viewBox="0 0 34 35" fill="none"
    xmlns="http://www.w3.org/2000/svg">
    <path d="M9.82323 26.0236C9.82323 25.7474 9.59937 25.5236 9.32323 25.5236C9.04709 25.5236 8.82323 25.7474 8.82323 26.0236H9.82323ZM8.82323 26.1582C8.82323 26.4344 9.04709 26.6582 9.32323 26.6582C9.59937 26.6582 9.82323 26.4344 9.82323 26.1582H8.82323ZM9.82323 27.963C9.82323 27.6868 9.59937 27.463 9.32323 27.463C9.04709 27.463 8.82323 27.6868 8.82323 27.963H9.82323ZM8.82323 33.3771C8.82323 33.6532 9.04709 33.8771 9.32323 33.8771C9.59937 33.8771 9.82323 33.6532 9.82323 33.3771H8.82323ZM9.82323 34.2929C9.82323 34.0168 9.59937 33.7929 9.32323 33.7929C9.04709 33.7929 8.82323 34.0168 8.82323 34.2929H9.82323ZM8.82323 34.4276C8.82323 34.7037 9.04709 34.9276 9.32323 34.9276C9.59937 34.9276 9.82323 34.7037 9.82323 34.4276H8.82323ZM18.2273 20.771C18.2273 20.4949 18.0034 20.271 17.7273 20.271C17.4511 20.271 17.2273 20.4949 17.2273 20.771H18.2273ZM17.2273 20.9057C17.2273 21.1819 17.4511 21.4057 17.7273 21.4057C18.0034 21.4057 18.2273 21.1819 18.2273 20.9057H17.2273ZM18.2273 22.5758C18.2273 22.2996 18.0034 22.0758 17.7273 22.0758C17.4511 22.0758 17.2273 22.2996 17.2273 22.5758H18.2273ZM17.2273 33.4579C17.2273 33.7341 17.4511 33.9579 17.7273 33.9579C18.0034 33.9579 18.2273 33.7341 18.2273 33.4579H17.2273ZM18.2273 34.2929C18.2273 34.0168 18.0034 33.7929 17.7273 33.7929C17.4511 33.7929 17.2273 34.0168 17.2273 34.2929H18.2273ZM17.2273 34.4276C17.2273 34.7037 17.4511 34.9276 17.7273 34.9276C18.0034 34.9276 18.2273 34.7037 18.2273 34.4276H17.2273ZM28.1128 13.4983C28.1128 13.2222 27.8889 12.9983 27.6128 12.9983C27.3367 12.9983 27.1128 13.2222 27.1128 13.4983H28.1128ZM27.1128 13.633C27.1128 13.9091 27.3367 14.133 27.6128 14.133C27.8889 14.133 28.1128 13.9091 28.1128 13.633H27.1128ZM28.1128 15.2761C28.1128 15 27.8889 14.7761 27.6128 14.7761C27.3367 14.7761 27.1128 15 27.1128 15.2761H28.1128ZM27.1128 33.4848C27.1128 33.761 27.3367 33.9848 27.6128 33.9848C27.8889 33.9848 28.1128 33.761 28.1128 33.4848H27.1128ZM28.1128 34.2929C28.1128 34.0168 27.8889 33.7929 27.6128 33.7929C27.3367 33.7929 27.1128 34.0168 27.1128 34.2929H28.1128ZM27.1128 34.4276C27.1128 34.7037 27.3367 34.9276 27.6128 34.9276C27.8889 34.9276 28.1128 34.7037 28.1128 34.4276H27.1128ZM6.57914 16.5455C6.77441 16.3502 6.77441 16.0336 6.57914 15.8384C6.38388 15.6431 6.0673 15.6431 5.87204 15.8384L6.57914 16.5455ZM2.69697 19.7205L2.3434 19.367L2.34051 19.3699L2.69697 19.7205ZM0.724345 21.013C0.530703 21.2099 0.53332 21.5265 0.730189 21.7201C0.927058 21.9137 1.24363 21.9111 1.43727 21.7143L0.724345 21.013ZM17.0487 8.00174C16.8544 8.19798 16.856 8.51455 17.0522 8.70884C17.2485 8.90313 17.5651 8.90156 17.7593 8.70533L17.0487 8.00174ZM20.0976 5.633L19.7471 5.27638L19.7423 5.28121L20.0976 5.633ZM23.2492 2.53535L23.5997 2.89195L23.6027 2.88891L23.2492 2.53535ZM23.303 2.48148L23.6566 2.83503C23.7996 2.69204 23.8424 2.47698 23.765 2.29014C23.6876 2.1033 23.5053 1.98148 23.303 1.98148V2.48148ZM24.7845 3.58586H25.2845C25.2845 3.38363 25.1627 3.20131 24.9759 3.12392C24.789 3.04653 24.574 3.08931 24.431 3.2323L24.7845 3.58586ZM24.7306 3.63973L24.3771 3.28617L24.3756 3.2877L24.7306 3.63973ZM21.6061 6.79125L21.957 7.14743L21.9611 7.14328L21.6061 6.79125ZM19.7744 8.59596L19.4235 8.23979L19.4209 8.24241L19.7744 8.59596ZM13.4983 14.8721L13.1464 15.2272C13.3419 15.421 13.6572 15.4202 13.8519 15.2256L13.4983 14.8721ZM10.5084 11.9091L10.8604 11.5539C10.6649 11.3602 10.3495 11.3609 10.1549 11.5555L10.5084 11.9091ZM7.64981 14.0606C7.45455 14.2558 7.45455 14.5724 7.64981 14.7677C7.84508 14.963 8.16166 14.963 8.35692 14.7677L7.64981 14.0606ZM0.727255 18.3704C0.531993 18.5656 0.531993 18.8822 0.727255 19.0775C0.922517 19.2727 1.2391 19.2727 1.43436 19.0775L0.727255 18.3704ZM10.6162 9.18855L10.9697 8.835C10.7745 8.63974 10.4579 8.63974 10.2626 8.835L10.6162 9.18855ZM13.6061 12.1785L13.2525 12.532C13.3467 12.6262 13.4745 12.6789 13.6077 12.6784C13.7408 12.678 13.8683 12.6245 13.9619 12.5297L13.6061 12.1785ZM16.0629 10.4018C16.2569 10.2053 16.2549 9.88872 16.0584 9.69471C15.8619 9.50069 15.5453 9.50271 15.3513 9.69921L16.0629 10.4018ZM1 34.4276H0.5C0.5 34.5602 0.552678 34.6874 0.646447 34.7812C0.740215 34.8749 0.867392 34.9276 1 34.9276L1 34.4276ZM9.35017 26.0774L9.70701 25.7272C9.61355 25.632 9.48592 25.5781 9.3525 25.5774C9.21909 25.5768 9.09096 25.6295 8.99661 25.7239L9.35017 26.0774ZM10.7778 27.532L10.4209 27.8822C10.5144 27.9774 10.642 28.0314 10.7754 28.032C10.9089 28.0326 11.037 27.9799 11.1313 27.8855L10.7778 27.532ZM17.7542 20.5556L18.1114 20.2057C18.018 20.1103 17.8903 20.0562 17.7568 20.0556C17.6233 20.0549 17.4951 20.1076 17.4007 20.202L17.7542 20.5556ZM19.0471 21.8754L18.69 22.2253C18.7834 22.3207 18.9111 22.3747 19.0446 22.3754C19.1781 22.3761 19.3063 22.3234 19.4007 22.229L19.0471 21.8754ZM27.6667 13.2559L28.0202 12.9023C27.825 12.7071 27.5084 12.7071 27.3131 12.9023L27.6667 13.2559ZM28.8788 14.468L28.5252 14.8216C28.7205 15.0168 29.0371 15.0168 29.2323 14.8216L28.8788 14.468ZM33.3536 10.7004C33.5488 10.5051 33.5488 10.1885 33.3536 9.99325C33.1583 9.79799 32.8417 9.79799 32.6464 9.99325L33.3536 10.7004ZM1.5 1.70034C1.5 1.42419 1.27614 1.20034 1 1.20034C0.723858 1.20034 0.5 1.42419 0.5 1.70034H1.5ZM32.9192 34.9276C33.1953 34.9276 33.4192 34.7037 33.4192 34.4276C33.4192 34.1515 33.1953 33.9276 32.9192 33.9276V34.9276ZM8.82323 26.0236V26.1582H9.82323V26.0236H8.82323ZM8.82323 27.963V33.3771H9.82323V27.963H8.82323ZM8.82323 34.2929V34.4276H9.82323V34.2929H8.82323ZM17.2273 20.771V20.9057H18.2273V20.771H17.2273ZM17.2273 22.5758V33.4579H18.2273V22.5758H17.2273ZM17.2273 34.2929V34.4276H18.2273V34.2929H17.2273ZM27.1128 13.4983V13.633H28.1128V13.4983H27.1128ZM27.1128 15.2761V33.4848H28.1128V15.2761H27.1128ZM27.1128 34.2929V34.4276H28.1128V34.2929H27.1128ZM5.87204 15.8384L2.34342 19.367L3.05052 20.0741L6.57914 16.5455L5.87204 15.8384ZM2.34051 19.3699L0.724345 21.013L1.43727 21.7143L3.05343 20.0712L2.34051 19.3699ZM17.7593 8.70533L20.4529 5.98479L19.7423 5.28121L17.0487 8.00174L17.7593 8.70533ZM20.4481 5.98958L23.5997 2.89194L22.8987 2.17877L19.7472 5.27641L20.4481 5.98958ZM23.6027 2.88891C23.6162 2.87544 23.6229 2.8687 23.6297 2.86197C23.6364 2.85523 23.6431 2.8485 23.6566 2.83503L22.9495 2.12793C22.936 2.1414 22.9293 2.14813 22.9225 2.15487C22.9158 2.1616 22.9091 2.16833 22.8956 2.1818L23.6027 2.88891ZM23.303 1.98148H18.9663V2.98148H23.303V1.98148ZM18.9663 1.98148C18.9488 1.98148 18.9346 1.97551 18.9216 1.96205C18.9063 1.94626 18.9007 1.92784 18.9007 1.91582H17.9007C17.9007 2.47268 18.3516 2.98148 18.9663 2.98148V1.98148ZM18.9007 1.91582V1.56566H17.9007V1.91582H18.9007ZM18.9007 1.56566C18.9007 1.54817 18.9066 1.53394 18.9201 1.52092C18.9359 1.50563 18.9543 1.5 18.9663 1.5V0.5C18.4095 0.5 17.9007 0.950957 17.9007 1.56566H18.9007ZM25.4579 1.5C25.6236 1.5 25.766 1.63708 25.766 1.80808H26.766C26.766 1.06325 26.1541 0.5 25.4579 0.5V1.5ZM25.766 7.92256C25.766 7.94004 25.76 7.95427 25.7466 7.9673C25.7308 7.98259 25.7124 7.98821 25.7003 7.98821V8.98821C26.2572 8.98821 26.766 8.53726 26.766 7.92256H25.766ZM25.7003 7.98821H25.3502V8.98821H25.7003V7.98821ZM25.3502 7.98821C25.3327 7.98821 25.3185 7.98225 25.3054 7.96879C25.2901 7.95299 25.2845 7.93457 25.2845 7.92256H24.2845C24.2845 8.47941 24.7355 8.98821 25.3502 8.98821V7.98821ZM25.2845 7.92256V3.58586H24.2845V7.92256H25.2845ZM24.431 3.2323C24.4175 3.24578 24.4108 3.25251 24.404 3.25925C24.3973 3.26598 24.3906 3.27271 24.3771 3.28618L25.0842 3.99328C25.0977 3.97981 25.1044 3.97308 25.1111 3.96634C25.1179 3.95961 25.1246 3.95288 25.1381 3.93941L24.431 3.2323ZM24.3756 3.2877L21.251 6.43921L21.9611 7.14328L25.0857 3.99176L24.3756 3.2877ZM21.2551 6.43508L19.4235 8.2398L20.1253 8.95212L21.957 7.14741L21.2551 6.43508ZM13.8503 14.5169L10.8604 11.5539L10.1565 12.2642L13.1464 15.2272L13.8503 14.5169ZM10.1549 11.5555L7.64981 14.0606L8.35692 14.7677L10.862 12.2626L10.1549 11.5555ZM1.43436 19.0775L10.9697 9.54211L10.2626 8.835L0.727255 18.3704L1.43436 19.0775ZM10.2626 9.54211L13.2525 12.532L13.9596 11.8249L10.9697 8.835L10.2626 9.54211ZM13.9619 12.5297L16.0629 10.4018L15.3513 9.69921L13.2503 11.8272L13.9619 12.5297ZM1.35355 34.7812L9.70372 26.431L8.99661 25.7239L0.646447 34.0741L1.35355 34.7812ZM8.99333 26.4277L10.4209 27.8822L11.1346 27.1817L9.70701 25.7272L8.99333 26.4277ZM11.1313 27.8855L18.1078 20.9091L17.4007 20.202L10.4242 27.1784L11.1313 27.8855ZM17.397 20.9054L18.69 22.2253L19.4043 21.5255L18.1114 20.2057L17.397 20.9054ZM27.3131 13.6094L28.5252 14.8216L29.2323 14.1145L28.0202 12.9023L27.3131 13.6094ZM29.2323 14.8216L33.3536 10.7004L32.6464 9.99325L28.5252 14.1145L29.2323 14.8216ZM0.5 1.70034V34.4276H1.5V1.70034H0.5ZM1 34.9276L32.9192 34.9276V33.9276L1 33.9276L1 34.9276ZM18.9663 1.5H25.4579V0.5H18.9663V1.5ZM25.766 1.80808V7.92256H26.766V1.80808H25.766ZM19.4209 8.24241L13.1448 14.5185L13.8519 15.2256L20.128 8.94951L19.4209 8.24241ZM19.4007 22.229L28.0202 13.6094L27.3131 12.9023L18.6936 21.5219L19.4007 22.229Z" fill="#2978A0"/>
</svg>
