<svg width="18" height="16" viewBox="0 0 18 16" fill="none" xmlns="http://www.w3.org/2000/svg">
<path fill-rule="evenodd" clip-rule="evenodd" d="M4.56298 5.30176H1.08472V15.7525H4.56298V5.30176Z" fill="#7D808E"/>
<path fill-rule="evenodd" clip-rule="evenodd" d="M4.79621 2.06809C4.77363 1.0434 4.04087 0.262939 2.85098 0.262939C1.66109 0.262939 0.883179 1.0434 0.883179 2.06809C0.883179 3.07156 1.6381 3.87449 2.80583 3.87449H2.82806C4.04087 3.87449 4.79621 3.07156 4.79621 2.06809Z" fill="#7D808E"/>
<path fill-rule="evenodd" clip-rule="evenodd" d="M17.1093 9.75967C17.1093 6.54966 15.3933 5.05566 13.1045 5.05566C11.2577 5.05566 10.4309 6.07002 9.96928 6.78161V5.30135H6.4906C6.53645 6.28199 6.4906 15.7521 6.4906 15.7521H9.96928V9.91553C9.96928 9.60319 9.99186 9.29162 10.0838 9.06799C10.3352 8.44401 10.9076 7.79797 11.8685 7.79797C13.1277 7.79797 13.631 8.75628 13.631 10.1607V15.7518H17.1091L17.1093 9.75967Z" fill="#7D808E"/>
</svg>
