<svg xmlns="http://www.w3.org/2000/svg" version="1.1" xmlns:xlink="http://www.w3.org/1999/xlink" xmlns:svgjs="http://svgjs.com/svgjs" width="512" height="512" x="0" y="0" viewBox="0 0 512 512" style="enable-background:new 0 0 512 512" xml:space="preserve"><g><path d="M406 341H106c-19.3 0-35 15.7-35 35s15.7 35 35 35h300c19.3 0 35-15.7 35-35s-15.7-35-35-35zm25 35c0 13.8-11.2 25-25 25H106c-13.8 0-25-11.2-25-25s11.2-25 25-25h300c13.8 0 25 11.2 25 25zm-25-275H106c-19.3 0-35 15.7-35 35s15.7 35 35 35h300c19.3 0 35-15.7 35-35s-15.7-35-35-35zm25 35c0 13.8-11.2 25-25 25H106c-13.8 0-25-11.2-25-25s11.2-25 25-25h300c13.8 0 25 11.2 25 25zm-25 85H106c-19.3 0-35 15.7-35 35s15.7 35 35 35h300c19.3 0 35-15.7 35-35s-15.7-35-35-35zm25 35c0 13.8-11.2 25-25 25H106c-13.8 0-25-11.2-25-25s11.2-25 25-25h300c13.8 0 25 11.2 25 25z" fill="#000000" data-original="#000000"></path></g></svg>