<svg width="18" height="16" viewBox="0 0 18 16" fill="none" xmlns="http://www.w3.org/2000/svg">
<path fill-rule="evenodd" clip-rule="evenodd" d="M8.48484 4.60074L8.52272 5.22534L7.89141 5.14886C5.59343 4.85568 3.58586 3.86142 1.88131 2.19156L1.04798 1.363L0.833333 1.97486C0.378788 3.33879 0.669191 4.7792 1.61616 5.74797C2.12121 6.28334 2.00757 6.35983 1.13636 6.04115C0.833333 5.93918 0.568181 5.86269 0.542929 5.90093C0.454545 5.99016 0.757575 7.15014 0.997474 7.60903C1.32576 8.24638 1.99495 8.87099 2.72727 9.24065L3.34596 9.53383L2.61363 9.54658C1.90656 9.54658 1.88131 9.55932 1.95707 9.82701C2.20959 10.6556 3.20707 11.5351 4.31818 11.9175L5.10101 12.1852L4.41919 12.5931C3.40909 13.1795 2.22222 13.5109 1.03535 13.5364C0.467171 13.5491 0 13.6001 0 13.6384C0 13.7658 1.5404 14.4797 2.43687 14.7601C5.12626 15.5887 8.3207 15.2317 10.7197 13.8168C12.4242 12.8098 14.1288 10.8085 14.9242 8.87099C15.3535 7.83848 15.7828 5.95192 15.7828 5.04689C15.7828 4.46052 15.8207 4.38404 16.5278 3.68296C16.9444 3.27505 17.3358 2.82891 17.4116 2.70144C17.5379 2.45925 17.5252 2.45925 16.8813 2.67594C15.8081 3.05835 15.6566 3.00737 16.1869 2.43375C16.5783 2.02585 17.0454 1.28652 17.0454 1.06982C17.0454 1.03158 16.856 1.09532 16.6414 1.21004C16.4141 1.33751 15.9091 1.52871 15.5303 1.64344L14.8485 1.86014L14.2298 1.43949C13.8889 1.21004 13.4091 0.9551 13.1566 0.878618C12.5126 0.70016 11.5278 0.725654 10.947 0.929606C9.36868 1.50322 8.37121 2.98187 8.48484 4.60074Z" fill="#7D808E"/>
</svg>
