<svg width="18" height="14" viewBox="0 0 18 14" fill="none" xmlns="http://www.w3.org/2000/svg">
<path fill-rule="evenodd" clip-rule="evenodd" d="M16.0898 1.13425C16.8417 1.34057 17.4339 1.94851 17.6348 2.72053C18 4.11973 18 7.03917 18 7.03917C18 7.03917 18 9.95851 17.6348 11.3578C17.4339 12.1298 16.8417 12.7378 16.0898 12.9442C14.7272 13.3191 9.26276 13.3191 9.26276 13.3191C9.26276 13.3191 3.79831 13.3191 2.43559 12.9442C1.68369 12.7378 1.09155 12.1298 0.890591 11.3578C0.525513 9.95851 0.525513 7.03917 0.525513 7.03917C0.525513 7.03917 0.525513 4.11973 0.890591 2.72053C1.09155 1.94851 1.68369 1.34057 2.43559 1.13425C3.79831 0.759277 9.26276 0.759277 9.26276 0.759277C9.26276 0.759277 14.7272 0.759277 16.0898 1.13425ZM7.62463 4.582V10.0428L11.9933 7.3125L7.62463 4.582Z" fill="#7D808E"/>
</svg>
