<svg version="1.1" id="Layer_1" xmlns="http://www.w3.org/2000/svg" xmlns:xlink="http://www.w3.org/1999/xlink" x="0px" y="0px"
	 width="100%" viewBox="0 0 300 300" enable-background="new 0 0 300 300" xml:space="preserve">
<path fill="none" opacity="1.000000" stroke="none" 
	d="
M171.000000,301.000000 
	C114.000008,301.000000 57.500019,301.000000 1.000023,301.000000 
	C1.000015,201.000031 1.000015,101.000053 1.000008,1.000063 
	C100.999947,1.000042 200.999893,1.000042 300.999878,1.000021 
	C300.999939,100.999939 300.999939,200.999878 300.999969,300.999908 
	C257.833344,301.000000 214.666672,301.000000 171.000000,301.000000 
M169.423157,192.082504 
	C169.601242,192.426422 169.779327,192.770340 169.996460,193.873703 
	C170.884872,199.298950 174.944305,199.260651 179.002655,198.967834 
	C182.560043,198.711166 184.717163,196.617523 184.946365,193.083511 
	C185.200211,189.169693 185.627441,184.911240 179.461563,183.951996 
	C179.253296,183.643524 179.045029,183.335037 178.978317,182.105835 
	C178.978317,178.504181 178.978317,174.902527 178.978317,170.856964 
	C174.370468,170.856964 170.297195,170.856964 166.343033,170.856964 
	C166.343033,167.982834 166.343033,165.595505 166.343033,162.999908 
	C171.158890,162.999908 175.643600,162.816315 180.105331,163.057678 
	C183.708939,163.252640 185.408401,162.153900 185.046417,158.307617 
	C184.802170,155.712555 184.999863,153.075897 184.999863,150.232452 
	C193.507980,150.232452 201.593414,150.232452 209.653442,150.232452 
	C212.276443,155.480148 215.425064,157.250015 220.142914,155.882568 
	C224.103531,154.734619 224.952286,151.714462 225.096725,147.880630 
	C225.270706,143.262558 222.486481,140.947540 218.944702,140.196518 
	C213.867188,139.119858 210.913162,142.516586 209.440460,146.710068 
	C201.140289,146.710068 193.222900,146.710068 185.316360,146.710068 
	C185.316360,141.361008 185.316360,136.306503 185.316360,130.999619 
	C188.936096,130.999619 192.248947,130.863876 195.545288,131.039017 
	C198.638580,131.203384 200.234100,130.297760 200.043335,126.868301 
	C199.803558,122.558296 199.884933,118.230431 199.975784,113.490921 
	C199.975784,113.490921 200.078781,113.058289 200.008713,113.001747 
	C200.008713,113.001747 200.059952,113.075607 200.846664,113.007515 
	C206.110428,113.398148 206.815933,109.097771 206.764954,105.874802 
	C206.707489,102.241585 204.854904,98.592377 200.302643,98.025352 
	C196.085205,97.500023 192.652252,99.270012 191.145142,103.068687 
	C189.206177,107.955826 191.306854,111.233658 197.021851,114.902962 
	C197.021851,119.176704 197.021851,123.450439 197.021851,127.668396 
	C192.672256,127.668396 188.942429,127.668396 184.740326,127.668396 
	C184.740326,123.935661 184.740326,120.534515 184.740326,116.847466 
	C180.313309,116.847466 176.366714,116.847466 172.000000,116.847466 
	C172.000000,112.425888 172.160004,108.292725 171.956406,104.177567 
	C171.739014,99.782898 171.887482,96.076973 176.608749,93.506454 
	C179.485748,91.940071 179.928757,88.442635 178.066666,85.229507 
	C176.219696,82.042473 173.748749,79.527748 169.842957,80.147552 
	C166.281570,80.712700 163.500946,82.690086 163.001633,86.757957 
	C162.408630,91.589111 164.021484,95.094597 168.768097,96.309639 
	C168.768097,103.348907 168.768097,109.961205 168.768097,116.729553 
	C163.140717,116.729553 157.747635,116.729553 152.281448,116.729553 
	C152.281448,97.047585 152.281448,77.637306 152.281448,57.899567 
	C156.484406,58.326988 160.446960,58.386669 164.258270,59.176334 
	C181.777725,62.806171 196.952545,70.543396 209.448318,83.778786 
	C224.075699,99.271889 231.370148,117.538757 231.869156,138.547333 
	C232.023239,145.033936 230.569336,151.552612 229.999741,158.069534 
	C229.918961,158.993805 230.681870,159.991821 231.054291,160.955719 
	C231.844452,160.334274 232.790253,159.829865 233.374191,159.053360 
	C233.819824,158.460739 233.836441,157.529205 233.993759,156.738464 
	C236.253830,145.378616 236.279205,134.099228 234.096207,122.637215 
	C230.180145,102.075699 219.863312,85.184013 203.714554,72.605858 
	C186.273621,59.021236 166.168015,52.855629 143.470673,54.785709 
	C123.707413,56.466282 106.769966,63.828411 92.680328,77.098183 
	C78.327423,90.615906 69.477333,107.303276 66.824860,127.347023 
	C64.511703,144.826706 66.972206,161.299774 74.551727,176.923889 
	C82.798042,193.922470 95.767990,206.481857 112.550804,215.306488 
	C120.243835,219.351608 122.547089,223.892227 120.316734,231.000839 
	C116.938667,231.000839 113.456482,231.132294 109.989159,230.961655 
	C106.890312,230.809158 105.917992,232.146759 105.957947,235.110336 
	C106.076981,243.940948 106.141953,252.777527 105.932846,261.604797 
	C105.845657,265.285370 107.390343,266.240692 110.705490,266.042908 
	C114.002106,265.846252 117.319626,265.999847 120.031136,265.999847 
	C120.031136,271.838837 119.776192,277.305634 120.136322,282.731598 
	C120.322540,285.537140 122.063377,287.130829 125.519852,287.090302 
	C142.515350,286.890991 159.515457,286.902161 176.511612,287.071289 
	C180.550644,287.111511 181.819427,284.952820 181.943649,281.706055 
	C182.141373,276.538483 181.996475,271.357819 181.996475,266.000000 
	C184.680527,266.000000 187.504410,266.006378 190.328262,265.998627 
	C195.829132,265.983551 196.944794,264.930023 196.986282,259.392090 
	C197.041229,252.060074 196.977386,244.727280 197.008209,237.394989 
	C197.026352,233.074188 195.562256,230.558624 190.610443,230.932327 
	C186.302200,231.257462 181.949982,231.000000 177.617203,231.000000 
	C169.180206,230.999985 160.743225,231.000000 152.322891,231.000000 
	C152.322891,208.023361 152.322891,185.628342 152.322891,163.354813 
	C156.054626,163.354813 159.455765,163.354813 162.828476,163.354813 
	C163.327942,173.831299 163.328018,173.827423 173.782776,174.016968 
	C174.409851,174.028351 175.034409,174.178421 175.948410,174.303360 
	C175.948410,177.620209 175.948410,180.749161 175.203720,183.988312 
	C170.885849,184.940125 169.165100,187.623123 169.970856,191.987656 
	C169.970856,191.987656 169.941971,191.910233 169.423157,192.082504 
M149.324966,37.826923 
	C150.373764,38.270096 151.422562,38.713264 152.998505,39.379189 
	C152.998505,31.883942 153.122910,25.230246 152.870850,18.590839 
	C152.830826,17.536455 151.096359,16.546402 150.145279,15.526606 
	C149.773941,15.861107 149.402603,16.195608 149.031265,16.530111 
	C149.031265,23.339741 149.031265,30.149372 149.324966,37.826923 
M61.974968,209.523376 
	C63.808346,207.706512 65.641724,205.889664 67.475105,204.072800 
	C60.593998,204.352371 48.541126,214.057724 48.386696,218.747589 
	C53.011745,215.613907 57.187660,212.784515 61.974968,209.523376 
M230.455856,65.029938 
	C233.780228,60.723343 239.405289,58.207687 241.278336,51.976887 
	C236.108734,53.105679 224.591003,65.035477 224.379135,70.197067 
	C226.718689,68.252747 228.339157,66.906044 230.455856,65.029938 
M242.459656,89.029709 
	C241.928864,89.779388 241.398087,90.529060 240.046341,92.438255 
	C249.400955,90.750870 255.169067,84.976334 261.994690,80.766983 
	C260.275208,80.029457 258.503784,79.776009 257.216125,80.448624 
	C252.397171,82.965851 247.736481,85.786049 242.459656,89.029709 
M86.037872,39.294468 
	C87.732773,42.019913 89.324760,44.816799 91.152603,47.449963 
	C92.853363,49.900055 94.805374,52.175747 96.646774,54.528217 
	C97.014755,54.204704 97.382744,53.881187 97.750725,53.557674 
	C96.910416,47.190708 87.555389,34.273117 83.795113,34.704628 
	C84.545494,36.043381 85.245415,37.292110 86.037872,39.294468 
M80.527328,228.981827 
	C77.697426,232.552261 74.800598,236.073456 72.102997,239.741196 
	C71.649330,240.358017 72.056976,241.608353 72.066658,242.565964 
	C72.899712,242.353500 74.014023,242.408951 74.516457,241.881516 
	C76.542923,239.754227 78.502960,237.538345 80.258659,235.184464 
	C82.769005,231.818893 85.078857,228.303802 87.474327,224.852554 
	C86.903542,224.378479 86.332748,223.904388 85.761963,223.430298 
	C84.187141,225.100800 82.612328,226.771317 80.527328,228.981827 
M223.603729,230.943222 
	C226.496536,233.976608 229.389328,237.010010 232.282135,240.043396 
	C233.364029,238.369003 233.792221,236.585861 233.092911,235.774475 
	C228.738373,230.722076 224.131363,225.887253 219.608047,220.980301 
	C219.114365,221.224945 218.620682,221.469589 218.126984,221.714233 
	C218.669876,223.225769 219.019699,224.848190 219.807190,226.219238 
	C220.684647,227.746964 221.960159,229.046066 223.603729,230.943222 
M58.872509,59.319477 
	C63.874397,63.760590 68.876289,68.201698 73.878174,72.642807 
	C74.367767,72.096672 74.857368,71.550529 75.346962,71.004387 
	C71.598801,63.930206 63.923042,60.665157 58.130310,55.140312 
	C58.185863,56.364902 58.241421,57.589489 58.872509,59.319477 
M248.631760,209.955444 
	C251.233475,211.415573 253.835190,212.875702 257.343201,214.844467 
	C255.675598,208.997437 240.978806,199.730621 236.085159,201.180389 
	C240.414612,204.202927 244.215973,206.856796 248.631760,209.955444 
M202.427460,46.059334 
	C201.863647,47.912693 201.299835,49.766048 200.736023,51.619408 
	C201.397308,51.905682 202.058609,52.191952 202.719894,52.478222 
	C206.422623,45.617626 210.125351,38.757030 213.828079,31.896433 
	C213.058380,31.439247 212.288666,30.982061 211.518967,30.524876 
	C207.788757,34.924660 205.905640,40.564667 202.427460,46.059334 
M26.778406,118.961937 
	C34.085793,120.491432 41.393181,122.020927 48.700565,123.550423 
	C48.786362,121.466064 48.449875,120.247963 47.871235,120.119347 
	C41.440205,118.689987 34.985119,117.350456 28.492594,116.244629 
	C27.842438,116.133904 26.903587,117.718193 26.778406,118.961937 
M176.048538,26.752699 
	C175.123474,31.389500 174.198395,36.026302 173.244217,40.809044 
	C174.470734,40.809044 175.555298,40.809044 176.358322,40.809044 
	C177.901031,34.516304 179.458603,28.478643 180.796509,22.392689 
	C181.017700,21.386450 180.277649,20.168896 179.981812,19.049004 
	C179.276764,19.846106 178.345459,20.538948 177.919022,21.464426 
	C177.258179,22.898546 176.941727,24.491348 176.048538,26.752699 
M271.928497,182.370590 
	C271.865967,181.732758 271.969879,180.615097 271.716614,180.527222 
	C265.257996,178.286621 258.775452,176.110657 252.248993,174.077728 
	C251.680573,173.900681 250.780304,174.789001 250.034195,175.182465 
	C250.569412,175.791245 250.995270,176.746307 251.656754,176.955185 
	C258.191956,179.018784 264.766266,180.958649 271.928497,182.370590 
M46.514816,179.060379 
	C41.229191,181.178345 35.943562,183.296310 30.657934,185.414276 
	C30.978535,186.237854 31.299133,187.061432 31.619734,187.885010 
	C38.421574,185.412949 45.234810,182.970871 51.999210,180.400284 
	C52.442802,180.231735 52.512760,179.079956 52.756516,178.385529 
	C51.990257,178.205765 51.189198,177.792847 50.465900,177.900833 
	C49.379353,178.063049 48.347294,178.590271 46.514816,179.060379 
M29.881037,150.003403 
	C28.811985,150.329773 27.688431,150.541367 26.689604,151.015625 
	C25.738153,151.467361 24.916859,152.193207 24.038338,152.798538 
	C25.113409,153.197174 26.228220,154.019928 27.256910,153.923538 
	C32.721966,153.411484 38.175037,152.735672 43.608734,151.953186 
	C44.781380,151.784332 45.857269,150.943588 46.977722,150.412323 
	C45.636375,149.942871 44.283157,149.046722 42.955894,149.083633 
	C38.899700,149.196487 34.853485,149.668213 29.881037,150.003403 
M117.447960,20.013952 
	C117.108894,21.315710 116.231812,22.755245 116.523788,23.895407 
	C117.797096,28.867685 119.368156,33.766369 120.930504,38.660042 
	C121.303497,39.828369 122.058945,40.874592 122.638489,41.976978 
	C123.078880,40.613098 124.169441,39.069664 123.850685,37.915436 
	C122.192291,31.910316 120.174950,26.004324 117.447960,20.013952 
M252.757248,118.937134 
	C259.215729,117.605698 265.689056,116.338493 272.111389,114.851006 
	C272.811920,114.688751 273.218506,113.257187 273.761414,112.414375 
	C272.828339,112.269020 271.835175,111.840645 270.971832,112.023857 
	C264.995636,113.292061 259.034271,114.639229 253.110519,116.129456 
	C252.609772,116.255417 252.418762,117.612534 252.757248,118.937134 
M272.560364,145.999939 
	C267.471832,145.667603 262.385620,145.281296 257.292175,145.063354 
	C256.560547,145.032059 255.794159,145.812759 255.043869,146.217682 
	C255.605591,146.808426 256.136017,147.877808 256.733795,147.916870 
	C263.759094,148.376022 270.794464,148.680679 277.827179,149.026047 
	C277.954010,148.363342 278.080841,147.700638 278.207672,147.037918 
	C276.632996,146.691956 275.058319,146.345978 272.560364,145.999939 
M57.775337,94.322746 
	C51.548210,90.555992 45.321079,86.789230 39.093952,83.022476 
	C38.622761,83.672256 38.151573,84.322037 37.680386,84.971817 
	C38.574722,85.912994 39.305210,87.159752 40.391804,87.742355 
	C45.055992,90.243195 49.799797,92.601547 54.580254,94.873672 
	C55.383778,95.255585 56.510891,94.956680 57.775337,94.322746 
M211.933975,200.550247 
	C212.609863,199.661301 213.954681,198.654831 213.823441,197.907684 
	C213.543884,196.316284 212.818573,194.474777 211.643082,193.495209 
	C210.963257,192.928711 208.239273,193.436081 207.871613,194.174927 
	C207.204361,195.515823 207.145081,197.584183 207.725769,198.976059 
	C208.132339,199.950623 210.024277,200.305511 211.933975,200.550247 
M201.152878,209.941986 
	C201.439026,208.001266 202.039795,206.020935 201.803665,204.146011 
	C201.739746,203.638458 198.746109,202.761536 197.816315,203.298767 
	C196.784393,203.894974 195.744553,206.363495 196.201752,207.211502 
	C196.897720,208.502304 198.879013,209.100098 201.152878,209.941986 
M221.867172,181.381439 
	C216.770828,181.014755 216.335846,181.677704 217.773468,188.441025 
	C219.741165,187.877548 221.900818,187.652252 223.474747,186.572891 
	C223.957504,186.241821 222.835815,183.571182 221.867172,181.381439 
M188.876358,210.389084 
	C187.265564,210.949585 185.161285,211.098251 184.224243,212.221039 
	C183.637878,212.923676 184.382812,215.945648 185.293137,216.400543 
	C186.596985,217.052124 188.597580,216.309479 190.300674,216.162125 
	C190.017441,214.432419 189.734207,212.702728 188.876358,210.389084 
M224.001053,171.690643 
	C223.646362,174.140518 224.539368,175.690506 227.136551,174.907532 
	C228.547760,174.482086 230.705704,173.117584 230.696259,172.195480 
	C230.682007,170.808456 229.250122,168.565842 228.071030,168.311951 
	C226.949463,168.070450 225.378876,169.914139 224.001053,171.690643 
z"/>
<path fill="#2978A0" opacity="1.000000" stroke="none" 
	d="
M175.948410,183.878113 
	C175.948410,180.749161 175.948410,177.620209 175.948410,174.303360 
	C175.034409,174.178421 174.409851,174.028351 173.782776,174.016968 
	C163.328018,173.827423 163.327942,173.831299 162.828476,163.354813 
	C159.455765,163.354813 156.054626,163.354813 152.322891,163.354813 
	C152.322891,185.628342 152.322891,208.023361 152.322891,231.000000 
	C160.743225,231.000000 169.180206,230.999985 177.617203,231.000000 
	C181.949982,231.000000 186.302200,231.257462 190.610443,230.932327 
	C195.562256,230.558624 197.026352,233.074188 197.008209,237.394989 
	C196.977386,244.727280 197.041229,252.060074 196.986282,259.392090 
	C196.944794,264.930023 195.829132,265.983551 190.328262,265.998627 
	C187.504410,266.006378 184.680527,266.000000 181.996475,266.000000 
	C181.996475,271.357819 182.141373,276.538483 181.943649,281.706055 
	C181.819427,284.952820 180.550644,287.111511 176.511612,287.071289 
	C159.515457,286.902161 142.515350,286.890991 125.519852,287.090302 
	C122.063377,287.130829 120.322540,285.537140 120.136322,282.731598 
	C119.776192,277.305634 120.031136,271.838837 120.031136,265.999847 
	C117.319626,265.999847 114.002106,265.846252 110.705490,266.042908 
	C107.390343,266.240692 105.845657,265.285370 105.932846,261.604797 
	C106.141953,252.777527 106.076981,243.940948 105.957947,235.110336 
	C105.917992,232.146759 106.890312,230.809158 109.989159,230.961655 
	C113.456482,231.132294 116.938667,231.000839 120.316734,231.000839 
	C122.547089,223.892227 120.243835,219.351608 112.550804,215.306488 
	C95.767990,206.481857 82.798042,193.922470 74.551727,176.923889 
	C66.972206,161.299774 64.511703,144.826706 66.824860,127.347023 
	C69.477333,107.303276 78.327423,90.615906 92.680328,77.098183 
	C106.769966,63.828411 123.707413,56.466282 143.470673,54.785709 
	C166.168015,52.855629 186.273621,59.021236 203.714554,72.605858 
	C219.863312,85.184013 230.180145,102.075699 234.096207,122.637215 
	C236.279205,134.099228 236.253830,145.378616 233.993759,156.738464 
	C233.836441,157.529205 233.819824,158.460739 233.374191,159.053360 
	C232.790253,159.829865 231.844452,160.334274 231.054291,160.955719 
	C230.681870,159.991821 229.918961,158.993805 229.999741,158.069534 
	C230.569336,151.552612 232.023239,145.033936 231.869156,138.547333 
	C231.370148,117.538757 224.075699,99.271889 209.448318,83.778786 
	C196.952545,70.543396 181.777725,62.806171 164.258270,59.176334 
	C160.446960,58.386669 156.484406,58.326988 152.281448,57.899567 
	C152.281448,77.637306 152.281448,97.047585 152.281448,116.729553 
	C157.747635,116.729553 163.140717,116.729553 168.768097,116.729553 
	C168.768097,109.961205 168.768097,103.348907 168.768097,96.309639 
	C164.021484,95.094597 162.408630,91.589111 163.001633,86.757957 
	C163.500946,82.690086 166.281570,80.712700 169.842957,80.147552 
	C173.748749,79.527748 176.219696,82.042473 178.066666,85.229507 
	C179.928757,88.442635 179.485748,91.940071 176.608749,93.506454 
	C171.887482,96.076973 171.739014,99.782898 171.956406,104.177567 
	C172.160004,108.292725 172.000000,112.425888 172.000000,116.847466 
	C176.366714,116.847466 180.313309,116.847466 184.740326,116.847466 
	C184.740326,120.534515 184.740326,123.935661 184.740326,127.668396 
	C188.942429,127.668396 192.672256,127.668396 197.021851,127.668396 
	C197.021851,123.450439 197.021851,119.176704 197.426239,114.433014 
	C198.496323,113.945473 199.162018,113.927872 199.827728,113.910278 
	C199.884933,118.230431 199.803558,122.558296 200.043335,126.868301 
	C200.234100,130.297760 198.638580,131.203384 195.545288,131.039017 
	C192.248947,130.863876 188.936096,130.999619 185.316360,130.999619 
	C185.316360,136.306503 185.316360,141.361008 185.316360,146.710068 
	C193.222900,146.710068 201.140289,146.710068 209.440460,146.710068 
	C210.913162,142.516586 213.867188,139.119858 218.944702,140.196518 
	C222.486481,140.947540 225.270706,143.262558 225.096725,147.880630 
	C224.952286,151.714462 224.103531,154.734619 220.142914,155.882568 
	C215.425064,157.250015 212.276443,155.480148 209.653442,150.232452 
	C201.593414,150.232452 193.507980,150.232452 184.999863,150.232452 
	C184.999863,153.075897 184.802170,155.712555 185.046417,158.307617 
	C185.408401,162.153900 183.708939,163.252640 180.105331,163.057678 
	C175.643600,162.816315 171.158890,162.999908 166.343033,162.999908 
	C166.343033,165.595505 166.343033,167.982834 166.343033,170.856964 
	C170.297195,170.856964 174.370468,170.856964 178.978317,170.856964 
	C178.978317,174.902527 178.978317,178.504181 178.627991,182.700806 
	C177.501236,183.489868 176.724823,183.683990 175.948410,183.878113 
M109.034538,247.730637 
	C109.056129,248.499176 109.077713,249.267700 109.013153,250.955093 
	C109.013153,254.550980 109.013153,258.146851 109.013153,261.711090 
	C137.304413,261.711090 164.993118,261.711090 192.690048,261.711090 
	C192.690048,252.703156 192.690048,243.987335 192.690048,235.287857 
	C164.687408,235.287857 136.995712,235.287857 109.099319,235.287857 
	C109.099319,239.370087 109.099319,243.166931 109.034538,247.730637 
M147.962769,111.097000 
	C147.942078,103.052597 147.921387,95.008186 147.986984,86.034546 
	C147.986984,76.747986 147.986984,67.461426 147.986984,58.112419 
	C143.903870,58.478230 140.237869,58.393845 136.772018,59.185593 
	C117.365257,63.618908 100.686607,72.545731 87.984993,88.413696 
	C72.796432,107.388596 67.198608,128.761276 71.022469,152.606796 
	C75.025162,177.567398 88.664650,196.114319 110.099998,208.906815 
	C118.326004,213.816055 126.236374,218.251831 124.096321,229.807907 
	C124.052071,230.046814 124.369095,230.352631 124.560387,230.706390 
	C132.246323,230.706390 139.970337,230.706390 147.900711,230.706390 
	C147.900711,217.955048 147.900711,205.495636 147.968552,192.099472 
	C147.946533,184.053925 147.924530,176.008362 147.987686,167.030136 
	C147.959305,148.699158 147.930923,130.368179 147.962769,111.097000 
M182.000000,151.430634 
	C182.000000,141.366852 182.000000,131.303070 182.000000,121.328522 
	C171.644943,121.328522 161.938446,121.328522 152.325439,121.328522 
	C152.325439,134.026245 152.325439,146.393143 152.325439,158.668274 
	C162.360458,158.668274 172.066879,158.668274 182.000000,158.668274 
	C182.000000,156.362411 182.000000,154.386765 182.000000,151.430634 
M124.000000,274.627930 
	C124.000000,277.372009 124.000000,280.116119 124.000000,282.644440 
	C142.437225,282.644440 160.133163,282.644440 177.999969,282.644440 
	C177.999969,279.307739 177.777710,276.304962 178.053833,273.348694 
	C178.435898,269.258392 177.044800,267.832336 172.769791,267.905579 
	C158.313141,268.153381 143.846100,268.179840 129.390808,267.895416 
	C124.783669,267.804749 123.391342,269.507141 124.000000,274.627930 
M217.509171,152.998474 
	C219.248627,151.550369 221.401031,150.356918 222.527298,148.530670 
	C222.987366,147.784653 221.595612,145.177521 220.399200,144.274719 
	C217.685699,142.227188 214.800140,142.316849 213.079117,145.759598 
	C211.140701,149.637177 213.264893,151.707581 217.509171,152.998474 
M175.943069,87.772781 
	C174.095032,86.190437 172.441406,84.100021 170.301254,83.281075 
	C169.469589,82.962830 166.421799,85.469337 166.368866,86.769920 
	C166.287064,88.779236 167.416077,92.038734 168.912903,92.666458 
	C172.234268,94.059349 175.323822,92.862526 175.943069,87.772781 
z"/>
<path fill="#2978A0" opacity="1.000000" stroke="none" 
	d="
M199.901764,113.700600 
	C199.162018,113.927872 198.496323,113.945473 197.497833,113.970398 
	C191.306854,111.233658 189.206177,107.955826 191.145142,103.068687 
	C192.652252,99.270012 196.085205,97.500023 200.302643,98.025352 
	C204.854904,98.592377 206.707489,102.241585 206.764954,105.874802 
	C206.815933,109.097771 206.110428,113.398148 200.405624,112.940590 
	C199.964584,112.873665 199.711594,112.850677 199.711594,112.850677 
	C199.711594,112.850677 200.078781,113.058289 200.078781,113.058289 
	C200.078781,113.058289 199.975784,113.490921 199.901764,113.700600 
M195.537460,102.064232 
	C193.267319,105.636040 193.532822,110.673805 196.129486,110.766144 
	C198.414093,110.847397 201.005066,109.606506 202.951294,108.229492 
	C203.702957,107.697662 203.626541,104.842941 202.917938,103.642281 
	C201.490540,101.223663 199.246979,99.727119 195.537460,102.064232 
z"/>
<path fill="#2978A0" opacity="1.000000" stroke="none" 
	d="
M149.178116,37.392963 
	C149.031265,30.149372 149.031265,23.339741 149.031265,16.530111 
	C149.402603,16.195608 149.773941,15.861107 150.145279,15.526606 
	C151.096359,16.546402 152.830826,17.536455 152.870850,18.590839 
	C153.122910,25.230246 152.998505,31.883942 152.998505,39.379189 
	C151.422562,38.713264 150.373764,38.270096 149.178116,37.392963 
z"/>
<path fill="#2978A0" opacity="1.000000" stroke="none" 
	d="
M179.988556,184.166656 
	C185.627441,184.911240 185.200211,189.169693 184.946365,193.083511 
	C184.717163,196.617523 182.560043,198.711166 179.002655,198.967834 
	C174.944305,199.260651 170.884872,199.298950 169.987335,193.192780 
	C169.966125,192.311310 169.954041,192.110779 169.941971,191.910233 
	C169.941971,191.910233 169.970856,191.987656 170.239899,191.971832 
	C170.711655,191.957275 170.914352,191.958557 171.439911,192.095947 
	C175.362228,197.592056 178.701797,198.124695 181.658401,193.784042 
	C184.187195,190.071503 180.338272,188.546875 179.096710,185.902802 
	C179.459915,185.150101 179.724228,184.658371 179.988556,184.166656 
z"/>
<path fill="#2978A0" opacity="1.000000" stroke="none" 
	d="
M61.669273,209.739258 
	C57.187660,212.784515 53.011745,215.613907 48.386696,218.747589 
	C48.541126,214.057724 60.593998,204.352371 67.475105,204.072800 
	C65.641724,205.889664 63.808346,207.706512 61.669273,209.739258 
z"/>
<path fill="#2978A0" opacity="1.000000" stroke="none" 
	d="
M230.207733,65.294640 
	C228.339157,66.906044 226.718689,68.252747 224.379135,70.197067 
	C224.591003,65.035477 236.108734,53.105679 241.278336,51.976887 
	C239.405289,58.207687 233.780228,60.723343 230.207733,65.294640 
z"/>
<path fill="#2978A0" opacity="1.000000" stroke="none" 
	d="
M242.738052,88.761169 
	C247.736481,85.786049 252.397171,82.965851 257.216125,80.448624 
	C258.503784,79.776009 260.275208,80.029457 261.994690,80.766983 
	C255.169067,84.976334 249.400955,90.750870 240.046341,92.438255 
	C241.398087,90.529060 241.928864,89.779388 242.738052,88.761169 
z"/>
<path fill="#2978A0" opacity="1.000000" stroke="none" 
	d="
M85.991608,38.917656 
	C85.245415,37.292110 84.545494,36.043381 83.795113,34.704628 
	C87.555389,34.273117 96.910416,47.190708 97.750725,53.557674 
	C97.382744,53.881187 97.014755,54.204704 96.646774,54.528217 
	C94.805374,52.175747 92.853363,49.900055 91.152603,47.449963 
	C89.324760,44.816799 87.732773,42.019913 85.991608,38.917656 
z"/>
<path fill="#2978A0" opacity="1.000000" stroke="none" 
	d="
M80.782425,228.711823 
	C82.612328,226.771317 84.187141,225.100800 85.761963,223.430298 
	C86.332748,223.904388 86.903542,224.378479 87.474327,224.852554 
	C85.078857,228.303802 82.769005,231.818893 80.258659,235.184464 
	C78.502960,237.538345 76.542923,239.754227 74.516457,241.881516 
	C74.014023,242.408951 72.899712,242.353500 72.066658,242.565964 
	C72.056976,241.608353 71.649330,240.358017 72.102997,239.741196 
	C74.800598,236.073456 77.697426,232.552261 80.782425,228.711823 
z"/>
<path fill="#2978A0" opacity="1.000000" stroke="none" 
	d="
M223.333069,230.693939 
	C221.960159,229.046066 220.684647,227.746964 219.807190,226.219238 
	C219.019699,224.848190 218.669876,223.225769 218.126984,221.714233 
	C218.620682,221.469589 219.114365,221.224945 219.608047,220.980301 
	C224.131363,225.887253 228.738373,230.722076 233.092911,235.774475 
	C233.792221,236.585861 233.364029,238.369003 232.282135,240.043396 
	C229.389328,237.010010 226.496536,233.976608 223.333069,230.693939 
z"/>
<path fill="#2978A0" opacity="1.000000" stroke="none" 
	d="
M58.584740,59.066780 
	C58.241421,57.589489 58.185863,56.364902 58.130310,55.140312 
	C63.923042,60.665157 71.598801,63.930206 75.346962,71.004387 
	C74.857368,71.550529 74.367767,72.096672 73.878174,72.642807 
	C68.876289,68.201698 63.874397,63.760590 58.584740,59.066780 
z"/>
<path fill="#2978A0" opacity="1.000000" stroke="none" 
	d="
M248.324554,209.733063 
	C244.215973,206.856796 240.414612,204.202927 236.085159,201.180389 
	C240.978806,199.730621 255.675598,208.997437 257.343201,214.844467 
	C253.835190,212.875702 251.233475,211.415573 248.324554,209.733063 
z"/>
<path fill="#2978A0" opacity="1.000000" stroke="none" 
	d="
M202.684235,45.768909 
	C205.905640,40.564667 207.788757,34.924660 211.518967,30.524876 
	C212.288666,30.982061 213.058380,31.439247 213.828079,31.896433 
	C210.125351,38.757030 206.422623,45.617626 202.719894,52.478222 
	C202.058609,52.191952 201.397308,51.905682 200.736023,51.619408 
	C201.299835,49.766048 201.863647,47.912693 202.684235,45.768909 
z"/>
<path fill="#2978A0" opacity="1.000000" stroke="none" 
	d="
M26.438562,118.738876 
	C26.903587,117.718193 27.842438,116.133904 28.492594,116.244629 
	C34.985119,117.350456 41.440205,118.689987 47.871235,120.119347 
	C48.449875,120.247963 48.786362,121.466064 48.700565,123.550423 
	C41.393181,122.020927 34.085793,120.491432 26.438562,118.738876 
z"/>
<path fill="#2978A0" opacity="1.000000" stroke="none" 
	d="
M176.263901,26.384785 
	C176.941727,24.491348 177.258179,22.898546 177.919022,21.464426 
	C178.345459,20.538948 179.276764,19.846106 179.981812,19.049002 
	C180.277649,20.168896 181.017700,21.386450 180.796509,22.392689 
	C179.458603,28.478643 177.901031,34.516304 176.358322,40.809044 
	C175.555298,40.809044 174.470734,40.809044 173.244217,40.809044 
	C174.198395,36.026302 175.123474,31.389500 176.263901,26.384785 
z"/>
<path fill="#2978A0" opacity="1.000000" stroke="none" 
	d="
M271.628998,182.652084 
	C264.766266,180.958649 258.191956,179.018784 251.656754,176.955185 
	C250.995270,176.746307 250.569412,175.791245 250.034195,175.182465 
	C250.780304,174.789001 251.680573,173.900681 252.248993,174.077728 
	C258.775452,176.110657 265.257996,178.286621 271.716614,180.527222 
	C271.969879,180.615097 271.865967,181.732758 271.628998,182.652084 
z"/>
<path fill="#2978A0" opacity="1.000000" stroke="none" 
	d="
M46.903442,179.011322 
	C48.347294,178.590271 49.379353,178.063049 50.465900,177.900833 
	C51.189198,177.792847 51.990257,178.205765 52.756516,178.385529 
	C52.512760,179.079956 52.442802,180.231735 51.999210,180.400284 
	C45.234810,182.970871 38.421574,185.412949 31.619734,187.885010 
	C31.299133,187.061432 30.978535,186.237854 30.657934,185.414276 
	C35.943562,183.296310 41.229191,181.178345 46.903442,179.011322 
z"/>
<path fill="#2978A0" opacity="1.000000" stroke="none" 
	d="
M30.342213,150.001862 
	C34.853485,149.668213 38.899700,149.196487 42.955894,149.083633 
	C44.283157,149.046722 45.636375,149.942871 46.977722,150.412323 
	C45.857269,150.943588 44.781380,151.784332 43.608734,151.953186 
	C38.175037,152.735672 32.721966,153.411484 27.256910,153.923538 
	C26.228220,154.019928 25.113409,153.197174 24.038342,152.798538 
	C24.916859,152.193207 25.738153,151.467361 26.689604,151.015625 
	C27.688431,150.541367 28.811985,150.329773 30.342213,150.001862 
z"/>
<path fill="#2978A0" opacity="1.000000" stroke="none" 
	d="
M117.865273,20.038885 
	C120.174950,26.004324 122.192291,31.910316 123.850685,37.915436 
	C124.169441,39.069664 123.078880,40.613098 122.638489,41.976978 
	C122.058945,40.874592 121.303497,39.828369 120.930504,38.660042 
	C119.368156,33.766369 117.797096,28.867685 116.523788,23.895407 
	C116.231812,22.755245 117.108894,21.315710 117.865273,20.038885 
z"/>
<path fill="#2978A0" opacity="1.000000" stroke="none" 
	d="
M252.420563,118.667419 
	C252.418762,117.612534 252.609772,116.255417 253.110519,116.129456 
	C259.034271,114.639229 264.995636,113.292061 270.971832,112.023857 
	C271.835175,111.840645 272.828339,112.269020 273.761414,112.414375 
	C273.218506,113.257187 272.811920,114.688751 272.111389,114.851006 
	C265.689056,116.338493 259.215729,117.605698 252.420563,118.667419 
z"/>
<path fill="#2978A0" opacity="1.000000" stroke="none" 
	d="
M273.022003,145.999969 
	C275.058319,146.345978 276.632996,146.691956 278.207672,147.037918 
	C278.080841,147.700638 277.954010,148.363342 277.827179,149.026047 
	C270.794464,148.680679 263.759094,148.376022 256.733795,147.916870 
	C256.136017,147.877808 255.605591,146.808426 255.043869,146.217682 
	C255.794159,145.812759 256.560547,145.032059 257.292175,145.063354 
	C262.385620,145.281296 267.471832,145.667603 273.022003,145.999969 
z"/>
<path fill="#2978A0" opacity="1.000000" stroke="none" 
	d="
M57.631912,94.647552 
	C56.510891,94.956680 55.383778,95.255585 54.580254,94.873672 
	C49.799797,92.601547 45.055992,90.243195 40.391804,87.742355 
	C39.305210,87.159752 38.574722,85.912994 37.680386,84.971817 
	C38.151573,84.322037 38.622761,83.672256 39.093952,83.022476 
	C45.321079,86.789230 51.548210,90.555992 57.631912,94.647552 
z"/>
<path fill="#2978A0" opacity="1.000000" stroke="none" 
	d="
M211.593414,200.743698 
	C210.024277,200.305511 208.132339,199.950623 207.725769,198.976059 
	C207.145081,197.584183 207.204361,195.515823 207.871613,194.174927 
	C208.239273,193.436081 210.963257,192.928711 211.643082,193.495209 
	C212.818573,194.474777 213.543884,196.316284 213.823441,197.907684 
	C213.954681,198.654831 212.609863,199.661301 211.593414,200.743698 
z"/>
<path fill="#2978A0" opacity="1.000000" stroke="none" 
	d="
M200.733673,209.967102 
	C198.879013,209.100098 196.897720,208.502304 196.201752,207.211502 
	C195.744553,206.363495 196.784393,203.894974 197.816315,203.298767 
	C198.746109,202.761536 201.739746,203.638458 201.803665,204.146011 
	C202.039795,206.020935 201.439026,208.001266 200.733673,209.967102 
z"/>
<path fill="#2978A0" opacity="1.000000" stroke="none" 
	d="
M222.158020,181.676666 
	C222.835815,183.571182 223.957504,186.241821 223.474747,186.572891 
	C221.900818,187.652252 219.741165,187.877548 217.773468,188.441025 
	C216.335846,181.677704 216.770828,181.014755 222.158020,181.676666 
z"/>
<path fill="#2978A0" opacity="1.000000" stroke="none" 
	d="
M189.163666,210.681061 
	C189.734207,212.702728 190.017441,214.432419 190.300674,216.162125 
	C188.597580,216.309479 186.596985,217.052124 185.293137,216.400543 
	C184.382812,215.945648 183.637878,212.923676 184.224243,212.221039 
	C185.161285,211.098251 187.265564,210.949585 189.163666,210.681061 
z"/>
<path fill="#2978A0" opacity="1.000000" stroke="none" 
	d="
M224.003387,171.265823 
	C225.378876,169.914139 226.949463,168.070450 228.071030,168.311951 
	C229.250122,168.565842 230.682007,170.808456 230.696259,172.195480 
	C230.705704,173.117584 228.547760,174.482086 227.136551,174.907532 
	C224.539368,175.690506 223.646362,174.140518 224.003387,171.265823 
z"/>
<path fill="#2978A0" opacity="1.000000" stroke="none" 
	d="
M179.725052,184.059326 
	C179.724228,184.658371 179.459915,185.150101 178.723251,185.829529 
	C174.146454,185.925491 172.818085,189.166336 171.117065,191.959824 
	C170.914352,191.958557 170.711655,191.957275 170.204941,191.949799 
	C169.165100,187.623123 170.885849,184.940125 175.576065,183.933212 
	C176.724823,183.683990 177.501236,183.489868 178.557205,183.161163 
	C179.045029,183.335037 179.253296,183.643524 179.725052,184.059326 
z"/>
<path fill="#2978A0" opacity="1.000000" stroke="none" 
	d="
M169.682556,191.996368 
	C169.954041,192.110779 169.966125,192.311310 169.967804,192.813049 
	C169.779327,192.770340 169.601242,192.426422 169.682556,191.996368 
z"/>
<path fill="none" opacity="1.000000" stroke="none" 
	d="
M147.900711,193.036224 
	C147.900711,205.495636 147.900711,217.955048 147.900711,230.706390 
	C139.970337,230.706390 132.246323,230.706390 124.560387,230.706390 
	C124.369095,230.352631 124.052071,230.046814 124.096321,229.807907 
	C126.236374,218.251831 118.326004,213.816055 110.099998,208.906815 
	C88.664650,196.114319 75.025162,177.567398 71.022469,152.606796 
	C67.198608,128.761276 72.796432,107.388596 87.984993,88.413696 
	C100.686607,72.545731 117.365257,63.618908 136.772018,59.185593 
	C140.237869,58.393845 143.903870,58.478230 147.986984,58.112419 
	C147.986984,67.461426 147.986984,76.747986 147.547897,86.515396 
	C143.083237,86.006111 142.362274,89.581711 142.263474,91.655457 
	C141.982880,97.544670 137.463364,97.995193 133.727570,98.410072 
	C131.759262,98.628654 129.149109,96.478416 127.441269,94.781364 
	C125.229439,92.583473 123.208809,92.587387 120.889664,94.040924 
	C118.895737,95.290619 117.191940,96.421188 118.666595,99.547668 
	C119.782753,101.914101 121.393028,104.748665 118.144196,107.494026 
	C114.980537,110.167419 112.657021,113.617691 107.602379,111.360176 
	C104.767799,110.094177 102.592270,111.261543 100.819550,114.286766 
	C98.817764,117.702904 101.152046,119.406334 102.995506,120.280899 
	C108.636566,122.957092 105.415253,127.030113 104.865898,130.433563 
	C104.394020,133.356964 102.221809,135.222366 98.862930,135.010010 
	C95.882957,134.821579 94.175064,136.178894 94.001907,139.250641 
	C93.831894,142.266846 95.241974,144.561188 98.130135,144.852646 
	C101.267624,145.169250 104.058197,145.525742 104.926147,148.992920 
	C105.906998,152.911133 107.428825,156.992218 102.666603,159.904144 
	C100.162819,161.435150 99.092285,163.672531 101.125229,166.504715 
	C103.238724,169.449112 105.719307,169.740494 108.846138,168.092987 
	C110.001602,167.484161 111.836731,167.014343 112.865837,167.510330 
	C118.106453,170.036224 120.028000,174.623810 118.325760,180.198761 
	C117.313782,183.513077 118.942123,184.974976 121.632500,186.248093 
	C124.105270,187.418259 125.733406,187.541077 127.182419,184.665619 
	C128.488403,182.074036 130.848602,180.041534 134.038254,181.113449 
	C137.413940,182.247894 142.027054,181.858826 142.151535,187.653183 
	C142.216904,190.695648 143.387863,194.033432 147.900711,193.036224 
z"/>
<path fill="#2978A0" opacity="1.000000" stroke="none" 
	d="
M147.934631,192.567841 
	C143.387863,194.033432 142.216904,190.695648 142.151535,187.653183 
	C142.027054,181.858826 137.413940,182.247894 134.038254,181.113449 
	C130.848602,180.041534 128.488403,182.074036 127.182419,184.665619 
	C125.733406,187.541077 124.105270,187.418259 121.632500,186.248093 
	C118.942123,184.974976 117.313782,183.513077 118.325760,180.198761 
	C120.028000,174.623810 118.106453,170.036224 112.865837,167.510330 
	C111.836731,167.014343 110.001602,167.484161 108.846138,168.092987 
	C105.719307,169.740494 103.238724,169.449112 101.125229,166.504715 
	C99.092285,163.672531 100.162819,161.435150 102.666603,159.904144 
	C107.428825,156.992218 105.906998,152.911133 104.926147,148.992920 
	C104.058197,145.525742 101.267624,145.169250 98.130135,144.852646 
	C95.241974,144.561188 93.831894,142.266846 94.001907,139.250641 
	C94.175064,136.178894 95.882957,134.821579 98.862930,135.010010 
	C102.221809,135.222366 104.394020,133.356964 104.865898,130.433563 
	C105.415253,127.030113 108.636566,122.957092 102.995506,120.280899 
	C101.152046,119.406334 98.817764,117.702904 100.819550,114.286766 
	C102.592270,111.261543 104.767799,110.094177 107.602379,111.360176 
	C112.657021,113.617691 114.980537,110.167419 118.144196,107.494026 
	C121.393028,104.748665 119.782753,101.914101 118.666595,99.547668 
	C117.191940,96.421188 118.895737,95.290619 120.889664,94.040924 
	C123.208809,92.587387 125.229439,92.583473 127.441269,94.781364 
	C129.149109,96.478416 131.759262,98.628654 133.727570,98.410072 
	C137.463364,97.995193 141.982880,97.544670 142.263474,91.655457 
	C142.362274,89.581711 143.083237,86.006111 147.504761,86.980011 
	C147.921387,95.008186 147.942078,103.052597 147.510437,111.550446 
	C131.033447,112.416183 119.025970,124.833969 119.219933,140.229752 
	C119.404190,154.854843 131.487198,167.948776 147.902527,167.962814 
	C147.924530,176.008362 147.946533,184.053925 147.934631,192.567841 
z"/>
<path fill="none" opacity="1.000000" stroke="none" 
	d="
M109.099319,246.963776 
	C109.099319,243.166931 109.099319,239.370087 109.099319,235.287857 
	C136.995712,235.287857 164.687408,235.287857 192.690048,235.287857 
	C192.690048,243.987335 192.690048,252.703156 192.690048,261.711090 
	C164.993118,261.711090 137.304413,261.711090 109.013153,261.711090 
	C109.013153,258.146851 109.013153,254.550980 109.515045,250.479401 
	C127.995697,250.002487 145.974548,250.024734 163.953033,249.955139 
	C165.382278,249.949600 166.809082,249.308380 168.237030,248.962585 
	C168.119919,248.296310 168.002823,247.630051 167.885727,246.963776 
	C148.290253,246.963776 128.694794,246.963776 109.099319,246.963776 
z"/>
<path fill="none" opacity="1.000000" stroke="none" 
	d="
M147.945099,167.496475 
	C131.487198,167.948776 119.404190,154.854843 119.219933,140.229752 
	C119.025970,124.833969 131.033447,112.416183 147.480316,112.020538 
	C147.930923,130.368179 147.959305,148.699158 147.945099,167.496475 
z"/>
<path fill="none" opacity="1.000000" stroke="none" 
	d="
M182.000000,151.920868 
	C182.000000,154.386765 182.000000,156.362411 182.000000,158.668274 
	C172.066879,158.668274 162.360458,158.668274 152.325439,158.668274 
	C152.325439,146.393143 152.325439,134.026245 152.325439,121.328522 
	C161.938446,121.328522 171.644943,121.328522 182.000000,121.328522 
	C182.000000,131.303070 182.000000,141.366852 182.000000,151.920868 
z"/>
<path fill="none" opacity="1.000000" stroke="none" 
	d="
M124.000000,274.154938 
	C123.391342,269.507141 124.783669,267.804749 129.390808,267.895416 
	C143.846100,268.179840 158.313141,268.153381 172.769791,267.905579 
	C177.044800,267.832336 178.435898,269.258392 178.053833,273.348694 
	C177.777710,276.304962 177.999969,279.307739 177.999969,282.644440 
	C160.133163,282.644440 142.437225,282.644440 124.000000,282.644440 
	C124.000000,280.116119 124.000000,277.372009 124.000000,274.154938 
z"/>
<path fill="#2978A0" opacity="1.000000" stroke="none" 
	d="
M109.066925,247.347198 
	C128.694794,246.963776 148.290253,246.963776 167.885727,246.963776 
	C168.002823,247.630051 168.119919,248.296310 168.237030,248.962585 
	C166.809082,249.308380 165.382278,249.949600 163.953033,249.955139 
	C145.974548,250.024734 127.995697,250.002487 109.558121,250.019989 
	C109.077713,249.267700 109.056129,248.499176 109.066925,247.347198 
z"/>
<path fill="none" opacity="1.000000" stroke="none" 
	d="
M217.114746,152.996399 
	C213.264893,151.707581 211.140701,149.637177 213.079117,145.759598 
	C214.800140,142.316849 217.685699,142.227188 220.399200,144.274719 
	C221.595612,145.177521 222.987366,147.784653 222.527298,148.530670 
	C221.401031,150.356918 219.248627,151.550369 217.114746,152.996399 
z"/>
<path fill="none" opacity="1.000000" stroke="none" 
	d="
M175.962906,88.165466 
	C175.323822,92.862526 172.234268,94.059349 168.912903,92.666458 
	C167.416077,92.038734 166.287064,88.779236 166.368866,86.769920 
	C166.421799,85.469337 169.469589,82.962830 170.301254,83.281075 
	C172.441406,84.100021 174.095032,86.190437 175.962906,88.165466 
z"/>
<path fill="none" opacity="1.000000" stroke="none" 
	d="
M195.943253,102.010101 
	C199.246979,99.727119 201.490540,101.223663 202.917938,103.642281 
	C203.626541,104.842941 203.702957,107.697662 202.951294,108.229492 
	C201.005066,109.606506 198.414093,110.847397 196.129486,110.766144 
	C193.532822,110.673805 193.267319,105.636040 195.943253,102.010101 
z"/>
<path fill="#2978A0" opacity="1.000000" stroke="none" 
	d="
M200.043747,113.030014 
	C200.078781,113.058289 199.711594,112.850677 199.711594,112.850677 
	C199.711594,112.850677 199.964584,112.873665 200.012268,112.974640 
	C200.059952,113.075607 200.008713,113.001747 200.043747,113.030014 
z"/>
<path fill="none" opacity="1.000000" stroke="none" 
	d="
M171.439911,192.095947 
	C172.818085,189.166336 174.146454,185.925491 178.624359,186.090485 
	C180.338272,188.546875 184.187195,190.071503 181.658401,193.784042 
	C178.701797,198.124695 175.362228,197.592056 171.439911,192.095947 
z"/>
</svg>