<svg version="1.1" id="Layer_1" xmlns="http://www.w3.org/2000/svg" xmlns:xlink="http://www.w3.org/1999/xlink" x="0px" y="0px"
	 width="100%" viewBox="0 0 300 300" enable-background="new 0 0 300 300" xml:space="preserve">
<path fill="none" opacity="1.000000" stroke="none" 
	d="
M1.000000,108.000000 
	C1.000000,72.000000 1.000000,36.500000 1.000000,1.000000 
	C101.000000,1.000000 201.000000,1.000000 301.000000,1.000000 
	C301.000000,101.000000 301.000000,201.000000 301.000000,301.000000 
	C201.000000,301.000000 101.000000,301.000000 1.000000,301.000000 
	C1.000000,236.833328 1.000000,172.666672 1.000000,108.000000 
M107.050926,56.966824 
	C107.050926,56.966824 107.087387,56.936249 107.016876,56.073639 
	C107.070374,45.963490 102.147881,38.551826 94.736000,32.134933 
	C83.822021,22.686077 60.841137,22.617634 51.130348,32.947193 
	C39.387959,45.437805 35.801182,61.246284 45.048893,76.634399 
	C47.065899,79.990685 48.447582,85.434624 55.641918,83.395615 
	C54.348701,80.928841 53.569603,78.461906 52.019085,76.658051 
	C45.904755,69.544724 43.760738,61.436462 46.098404,52.479553 
	C49.781006,38.369423 60.943295,29.976419 74.328606,30.319185 
	C87.445343,30.655071 96.885567,38.044861 101.070793,51.839314 
	C103.849709,61.669914 101.022438,70.111053 94.775719,77.776756 
	C93.485580,79.359955 92.581909,81.258080 91.363838,83.231888 
	C96.744591,85.274879 98.939964,82.125153 100.789528,79.363625 
	C105.057549,72.991158 107.112617,65.829552 107.514915,57.917091 
	C107.360268,57.585403 107.205627,57.253712 107.050926,56.966824 
M43.000000,177.525238 
	C42.999954,176.692169 42.949566,175.855484 43.008911,175.026657 
	C43.223057,172.035797 42.862617,169.885773 38.889408,169.911407 
	C34.720390,169.938293 34.798943,172.475815 35.020866,175.244736 
	C35.611633,182.615814 35.689877,190.094940 37.058250,197.325531 
	C44.361172,235.914703 66.037804,264.446075 99.995766,283.305115 
	C128.342361,299.047791 159.035583,302.165863 190.314987,294.645050 
	C220.844849,287.304474 245.154297,269.850647 262.871033,243.995529 
	C277.312073,222.920746 284.301270,199.447556 284.220795,173.556870 
	C284.157928,153.341980 279.981995,134.371307 270.745392,116.715919 
	C262.154572,100.294846 250.547119,86.181793 235.507065,74.812828 
	C213.546249,58.212326 188.962418,49.909313 161.654984,48.996300 
	C158.311356,48.884506 154.989349,48.935188 155.041641,53.535339 
	C155.089478,57.744244 158.272781,58.044670 161.378738,57.977375 
	C174.522949,57.692593 187.063217,60.429787 199.352707,64.942436 
	C221.975494,73.249428 240.217758,87.311646 254.185501,106.783592 
	C272.111847,131.774109 279.441010,159.870148 274.762726,190.174545 
	C270.355774,218.721146 257.300079,242.986511 234.736496,261.956573 
	C214.242950,279.186310 190.696762,288.145752 164.336136,289.876404 
	C150.809052,290.764496 137.493530,288.293854 124.558853,284.208618 
	C100.291107,276.544037 80.521065,262.326752 65.576683,241.881729 
	C51.845074,223.095856 44.306599,201.816284 43.000000,177.525238 
M138.047302,218.538345 
	C141.370956,219.355881 144.664719,220.648972 148.026489,220.860367 
	C151.555862,221.082275 152.017014,222.731415 152.046585,225.647690 
	C152.141479,235.003281 152.220810,235.002457 161.787933,234.999985 
	C161.954559,234.999939 162.121170,235.000092 162.287796,234.999969 
	C168.996674,234.995102 169.340622,234.973038 168.898331,228.077408 
	C168.496918,221.819107 170.307617,217.970474 176.555847,215.560898 
	C181.805756,213.536331 186.883591,210.473175 189.145172,204.529587 
	C194.994034,189.158417 188.340149,171.366409 171.644379,164.959396 
	C165.414169,162.568542 159.430283,159.538727 153.317917,156.836823 
	C149.579620,155.184326 147.857834,152.368149 149.317276,148.506180 
	C150.692566,144.866943 153.625565,143.093246 157.705414,142.948776 
	C164.386230,142.712219 170.838028,143.228775 176.905884,146.394073 
	C179.692017,147.847473 182.079361,147.378738 182.987122,143.951279 
	C183.777557,140.966751 184.038956,137.796173 185.165146,134.958221 
	C186.554810,131.456268 184.681961,130.059372 182.077271,129.112671 
	C179.020905,128.001801 175.853592,126.563637 172.702087,126.479691 
	C166.265930,126.308258 165.455917,122.685905 165.977127,117.574684 
	C166.388779,113.538025 164.400284,111.727783 160.379486,111.984863 
	C158.885986,112.080368 157.374146,112.094391 155.882950,111.982216 
	C151.635910,111.662712 149.339951,113.567612 150.067093,117.803619 
	C151.186142,124.322792 148.106537,127.405769 142.486221,130.045853 
	C132.909958,134.544220 128.302170,142.535278 127.903297,153.310532 
	C127.496849,164.290314 132.548370,171.449799 142.013641,175.976349 
	C149.687592,179.646210 157.403107,183.245895 165.225891,186.581940 
	C170.503204,188.832489 170.569748,197.397217 166.033020,200.186798 
	C160.002335,203.894943 154.174301,203.032303 148.093781,201.532196 
	C143.984390,200.518402 139.987457,198.375305 135.876221,198.194733 
	C129.117615,197.897934 131.855972,204.514587 130.301514,207.886795 
	C129.061432,210.576981 127.285187,214.693863 132.181381,216.583572 
	C133.853348,217.228867 135.627625,217.609039 138.047302,218.538345 
M71.000000,94.519089 
	C71.000000,103.276497 71.000000,112.033905 71.000000,120.757599 
	C66.970016,120.757599 63.687435,120.757599 60.165226,120.757599 
	C60.241150,114.446518 57.527534,110.527237 52.101891,107.208633 
	C46.219715,103.610794 40.636971,98.873917 36.309505,93.514709 
	C26.333487,81.160225 23.449684,66.843239 26.841190,51.178192 
	C29.619715,38.344444 36.382614,28.316538 46.857384,20.647226 
	C62.035271,9.534441 81.111488,8.540884 96.580582,17.520714 
	C113.342758,27.251188 122.307953,42.455357 121.962059,62.350636 
	C121.890694,66.455803 121.065086,70.557762 121.144806,74.650337 
	C121.173264,76.111099 122.558556,78.330727 123.843163,78.807983 
	C126.084389,79.640648 127.403030,78.469040 128.157562,75.639778 
	C130.331436,67.488480 130.370224,59.269001 128.837326,51.230724 
	C123.253052,21.947542 97.890060,0.731269 67.128288,4.860209 
	C54.865505,6.506159 44.343575,11.390816 35.847797,19.862661 
	C21.773239,33.897575 15.874667,51.002003 18.950922,70.984467 
	C21.786127,89.401138 30.667616,103.617065 46.953995,113.031487 
	C49.807545,114.681000 53.216911,116.154030 52.813736,120.688988 
	C47.445354,121.431969 45.547615,124.690582 45.970016,129.749557 
	C46.149643,131.900894 45.999912,134.079712 46.000011,136.246048 
	C46.000443,145.567780 46.419228,146.052902 55.696957,147.479889 
	C58.729588,157.113571 64.328468,162.738327 71.145073,162.999420 
	C82.533989,163.435608 86.249870,160.868774 91.249641,149.586349 
	C91.761467,148.431366 93.533127,147.182037 94.777573,147.119553 
	C99.650421,146.874893 101.451286,143.731934 101.903473,139.726318 
	C102.330704,135.941879 102.181114,132.059891 101.949310,128.241211 
	C101.617935,122.782219 99.636620,121.052170 94.129700,121.009636 
	C88.530159,120.966370 82.930031,121.000069 77.000000,121.000069 
	C77.000000,109.549812 77.009590,98.744766 76.988869,87.939781 
	C76.986015,86.450233 77.210953,84.788147 76.633408,83.524536 
	C76.143784,82.453300 74.590019,81.148560 73.610970,81.227928 
	C72.673988,81.303886 71.244125,82.962463 71.127350,84.043854 
	C70.789337,87.173836 71.002922,90.363388 71.000000,94.519089 
M252.190384,190.691956 
	C247.608414,214.868958 235.384567,234.355133 215.744812,249.045578 
	C199.249268,261.384155 180.474274,267.364594 159.912598,268.173004 
	C158.306854,268.236145 156.796356,270.721741 155.241592,272.081451 
	C156.850937,273.387024 158.524017,275.881470 160.058945,275.799164 
	C168.113937,275.367279 176.328369,275.110291 184.131058,273.276367 
	C211.582977,266.824219 232.580048,251.089508 247.433258,227.175064 
	C257.366180,211.182526 262.586853,193.843216 262.032806,174.888260 
	C261.952057,172.125641 261.798737,170.004822 258.140503,169.941803 
	C254.208847,169.874084 254.082153,172.135910 253.935318,175.105942 
	C253.691086,180.046326 253.034836,184.966339 252.190384,190.691956 
M74.372498,68.959572 
	C75.473511,68.627983 76.613998,68.390633 77.668854,67.948845 
	C82.829140,65.787659 85.007797,60.780746 83.192863,55.380482 
	C81.420853,50.107929 76.604599,47.669891 70.901382,49.158413 
	C66.324928,50.352852 63.180859,55.439140 64.059372,60.388706 
	C64.999901,65.687637 68.614258,68.098953 74.372498,68.959572 
M121.983170,86.384354 
	C121.279854,85.277527 120.314346,83.145195 119.919800,83.246071 
	C118.422203,83.628960 117.109344,84.734390 115.425926,85.751862 
	C117.801201,88.108536 119.282692,91.125702 121.983170,86.384354 
M100.910118,110.192329 
	C99.997139,108.817627 99.084160,107.442924 98.171165,106.068230 
	C97.468643,107.334923 95.996346,108.759537 96.217339,109.836784 
	C96.743256,112.400520 98.555847,112.693924 100.910118,110.192329 
z"/>
<path fill="#2978A0" opacity="1.000000" stroke="none" 
	d="
M43.000000,177.993835 
	C44.306599,201.816284 51.845074,223.095856 65.576683,241.881729 
	C80.521065,262.326752 100.291107,276.544037 124.558853,284.208618 
	C137.493530,288.293854 150.809052,290.764496 164.336136,289.876404 
	C190.696762,288.145752 214.242950,279.186310 234.736496,261.956573 
	C257.300079,242.986511 270.355774,218.721146 274.762726,190.174545 
	C279.441010,159.870148 272.111847,131.774109 254.185501,106.783592 
	C240.217758,87.311646 221.975494,73.249428 199.352707,64.942436 
	C187.063217,60.429787 174.522949,57.692593 161.378738,57.977375 
	C158.272781,58.044670 155.089478,57.744244 155.041641,53.535339 
	C154.989349,48.935188 158.311356,48.884506 161.654984,48.996300 
	C188.962418,49.909313 213.546249,58.212326 235.507065,74.812828 
	C250.547119,86.181793 262.154572,100.294846 270.745392,116.715919 
	C279.981995,134.371307 284.157928,153.341980 284.220795,173.556870 
	C284.301270,199.447556 277.312073,222.920746 262.871033,243.995529 
	C245.154297,269.850647 220.844849,287.304474 190.314987,294.645050 
	C159.035583,302.165863 128.342361,299.047791 99.995766,283.305115 
	C66.037804,264.446075 44.361172,235.914703 37.058250,197.325531 
	C35.689877,190.094940 35.611633,182.615814 35.020866,175.244736 
	C34.798943,172.475815 34.720390,169.938293 38.889408,169.911407 
	C42.862617,169.885773 43.223057,172.035797 43.008911,175.026657 
	C42.949566,175.855484 42.999954,176.692169 43.000000,177.993835 
z"/>
<path fill="#2978A0" opacity="1.000000" stroke="none" 
	d="
M137.701233,218.324341 
	C135.627625,217.609039 133.853348,217.228867 132.181381,216.583572 
	C127.285187,214.693863 129.061432,210.576981 130.301514,207.886795 
	C131.855972,204.514587 129.117615,197.897934 135.876221,198.194733 
	C139.987457,198.375305 143.984390,200.518402 148.093781,201.532196 
	C154.174301,203.032303 160.002335,203.894943 166.033020,200.186798 
	C170.569748,197.397217 170.503204,188.832489 165.225891,186.581940 
	C157.403107,183.245895 149.687592,179.646210 142.013641,175.976349 
	C132.548370,171.449799 127.496849,164.290314 127.903297,153.310532 
	C128.302170,142.535278 132.909958,134.544220 142.486221,130.045853 
	C148.106537,127.405769 151.186142,124.322792 150.067093,117.803619 
	C149.339951,113.567612 151.635910,111.662712 155.882950,111.982216 
	C157.374146,112.094391 158.885986,112.080368 160.379486,111.984863 
	C164.400284,111.727783 166.388779,113.538025 165.977127,117.574684 
	C165.455917,122.685905 166.265930,126.308258 172.702087,126.479691 
	C175.853592,126.563637 179.020905,128.001801 182.077271,129.112671 
	C184.681961,130.059372 186.554810,131.456268 185.165146,134.958221 
	C184.038956,137.796173 183.777557,140.966751 182.987122,143.951279 
	C182.079361,147.378738 179.692017,147.847473 176.905884,146.394073 
	C170.838028,143.228775 164.386230,142.712219 157.705414,142.948776 
	C153.625565,143.093246 150.692566,144.866943 149.317276,148.506180 
	C147.857834,152.368149 149.579620,155.184326 153.317917,156.836823 
	C159.430283,159.538727 165.414169,162.568542 171.644379,164.959396 
	C188.340149,171.366409 194.994034,189.158417 189.145172,204.529587 
	C186.883591,210.473175 181.805756,213.536331 176.555847,215.560898 
	C170.307617,217.970474 168.496918,221.819107 168.898331,228.077408 
	C169.340622,234.973038 168.996674,234.995102 162.287796,234.999969 
	C162.121170,235.000092 161.954559,234.999939 161.787933,234.999985 
	C152.220810,235.002457 152.141479,235.003281 152.046585,225.647690 
	C152.017014,222.731415 151.555862,221.082275 148.026489,220.860367 
	C144.664719,220.648972 141.370956,219.355881 137.701233,218.324341 
z"/>
<path fill="#2978A0" opacity="1.000000" stroke="none" 
	d="
M71.000000,94.024323 
	C71.002922,90.363388 70.789337,87.173836 71.127350,84.043854 
	C71.244125,82.962463 72.673988,81.303886 73.610970,81.227928 
	C74.590019,81.148560 76.143784,82.453300 76.633408,83.524536 
	C77.210953,84.788147 76.986015,86.450233 76.988869,87.939781 
	C77.009590,98.744766 77.000000,109.549812 77.000000,121.000069 
	C82.930031,121.000069 88.530159,120.966370 94.129700,121.009636 
	C99.636620,121.052170 101.617935,122.782219 101.949310,128.241211 
	C102.181114,132.059891 102.330704,135.941879 101.903473,139.726318 
	C101.451286,143.731934 99.650421,146.874893 94.777573,147.119553 
	C93.533127,147.182037 91.761467,148.431366 91.249641,149.586349 
	C86.249870,160.868774 82.533989,163.435608 71.145073,162.999420 
	C64.328468,162.738327 58.729588,157.113571 55.696957,147.479889 
	C46.419228,146.052902 46.000443,145.567780 46.000011,136.246048 
	C45.999912,134.079712 46.149643,131.900894 45.970016,129.749557 
	C45.547615,124.690582 47.445354,121.431969 52.813736,120.688988 
	C53.216911,116.154030 49.807545,114.681000 46.953995,113.031487 
	C30.667616,103.617065 21.786127,89.401138 18.950922,70.984467 
	C15.874667,51.002003 21.773239,33.897575 35.847797,19.862661 
	C44.343575,11.390816 54.865505,6.506159 67.128288,4.860209 
	C97.890060,0.731269 123.253052,21.947542 128.837326,51.230724 
	C130.370224,59.269001 130.331436,67.488480 128.157562,75.639778 
	C127.403030,78.469040 126.084389,79.640648 123.843163,78.807983 
	C122.558556,78.330727 121.173264,76.111099 121.144806,74.650337 
	C121.065086,70.557762 121.890694,66.455803 121.962059,62.350636 
	C122.307953,42.455357 113.342758,27.251188 96.580582,17.520714 
	C81.111488,8.540884 62.035271,9.534441 46.857384,20.647226 
	C36.382614,28.316538 29.619715,38.344444 26.841190,51.178192 
	C23.449684,66.843239 26.333487,81.160225 36.309505,93.514709 
	C40.636971,98.873917 46.219715,103.610794 52.101891,107.208633 
	C57.527534,110.527237 60.241150,114.446518 60.165226,120.757599 
	C63.687435,120.757599 66.970016,120.757599 71.000000,120.757599 
	C71.000000,112.033905 71.000000,103.276497 71.000000,94.024323 
M52.215088,126.492691 
	C51.810101,129.728928 51.342342,132.958847 51.015644,136.202957 
	C50.583847,140.490738 52.647854,142.122803 56.880653,142.049774 
	C66.191597,141.889084 75.508453,142.095993 84.820648,141.976822 
	C97.819382,141.810486 95.724174,144.205643 96.050812,130.580368 
	C96.133842,127.117020 94.948090,125.892845 91.450027,125.941589 
	C78.646790,126.119987 65.840218,126.059280 52.215088,126.492691 
M68.760071,147.000000 
	C67.217247,147.101852 65.674416,147.203720 64.016891,147.313141 
	C65.961792,153.568451 70.703911,156.914795 75.680664,155.961929 
	C79.571114,155.217026 82.796196,151.215073 82.587273,147.000000 
	C78.307846,147.000000 74.003395,147.000000 68.760071,147.000000 
z"/>
<path fill="#2978A0" opacity="1.000000" stroke="none" 
	d="
M252.371246,190.293442 
	C253.034836,184.966339 253.691086,180.046326 253.935318,175.105942 
	C254.082153,172.135910 254.208847,169.874084 258.140503,169.941803 
	C261.798737,170.004822 261.952057,172.125641 262.032806,174.888260 
	C262.586853,193.843216 257.366180,211.182526 247.433258,227.175064 
	C232.580048,251.089508 211.582977,266.824219 184.131058,273.276367 
	C176.328369,275.110291 168.113937,275.367279 160.058945,275.799164 
	C158.524017,275.881470 156.850937,273.387024 155.241577,272.081451 
	C156.796356,270.721741 158.306854,268.236145 159.912598,268.173004 
	C180.474274,267.364594 199.249268,261.384155 215.744812,249.045578 
	C235.384567,234.355133 247.608414,214.868958 252.371246,190.293442 
z"/>
<path fill="#2978A0" opacity="1.000000" stroke="none" 
	d="
M101.166519,51.000751 
	C96.885567,38.044861 87.445343,30.655071 74.328606,30.319185 
	C60.943295,29.976419 49.781006,38.369423 46.098404,52.479553 
	C43.760738,61.436462 45.904755,69.544724 52.019085,76.658051 
	C53.569603,78.461906 54.348701,80.928841 55.641918,83.395615 
	C48.447582,85.434624 47.065899,79.990685 45.048893,76.634399 
	C35.801182,61.246284 39.387959,45.437805 51.130348,32.947193 
	C60.841137,22.617634 83.822021,22.686077 94.736000,32.134933 
	C102.147881,38.551826 107.070374,45.963490 106.695831,56.468834 
	C104.638702,54.909607 102.902611,52.955177 101.166519,51.000751 
z"/>
<path fill="#2978A0" opacity="1.000000" stroke="none" 
	d="
M73.980209,68.958138 
	C68.614258,68.098953 64.999901,65.687637 64.059372,60.388706 
	C63.180859,55.439140 66.324928,50.352852 70.901382,49.158413 
	C76.604599,47.669891 81.420853,50.107929 83.192863,55.380482 
	C85.007797,60.780746 82.829140,65.787659 77.668854,67.948845 
	C76.613998,68.390633 75.473511,68.627983 73.980209,68.958138 
z"/>
<path fill="#2978A0" opacity="1.000000" stroke="none" 
	d="
M101.118652,51.420033 
	C102.902611,52.955177 104.638702,54.909607 106.731094,56.900139 
	C107.087387,56.936249 107.050926,56.966824 107.037560,57.241802 
	C107.030052,57.714851 107.035912,57.912918 107.041779,58.110989 
	C107.112617,65.829552 105.057549,72.991158 100.789528,79.363625 
	C98.939964,82.125153 96.744591,85.274879 91.363838,83.231888 
	C92.581909,81.258080 93.485580,79.359955 94.775719,77.776756 
	C101.022438,70.111053 103.849709,61.669914 101.118652,51.420033 
z"/>
<path fill="#2978A0" opacity="1.000000" stroke="none" 
	d="
M121.950546,86.773285 
	C119.282692,91.125702 117.801201,88.108536 115.425926,85.751862 
	C117.109344,84.734390 118.422203,83.628960 119.919800,83.246071 
	C120.314346,83.145195 121.279854,85.277527 121.950546,86.773285 
z"/>
<path fill="#2978A0" opacity="1.000000" stroke="none" 
	d="
M100.725861,110.547028 
	C98.555847,112.693924 96.743256,112.400520 96.217339,109.836784 
	C95.996346,108.759537 97.468643,107.334923 98.171173,106.068230 
	C99.084160,107.442924 99.997139,108.817627 100.725861,110.547028 
z"/>
<path fill="#2978A0" opacity="1.000000" stroke="none" 
	d="
M107.278351,58.014038 
	C107.035912,57.912918 107.030052,57.714851 107.037582,57.219402 
	C107.205627,57.253712 107.360268,57.585403 107.278351,58.014038 
z"/>
<path fill="none" opacity="1.000000" stroke="none" 
	d="
M52.624996,126.290657 
	C65.840218,126.059280 78.646790,126.119987 91.450027,125.941589 
	C94.948090,125.892845 96.133842,127.117020 96.050812,130.580368 
	C95.724174,144.205643 97.819382,141.810486 84.820648,141.976822 
	C75.508453,142.095993 66.191597,141.889084 56.880653,142.049774 
	C52.647854,142.122803 50.583847,140.490738 51.015644,136.202957 
	C51.342342,132.958847 51.810101,129.728928 52.624996,126.290657 
z"/>
<path fill="none" opacity="1.000000" stroke="none" 
	d="
M69.229507,147.000000 
	C74.003395,147.000000 78.307846,147.000000 82.587273,147.000000 
	C82.796196,151.215073 79.571114,155.217026 75.680664,155.961929 
	C70.703911,156.914795 65.961792,153.568451 64.016891,147.313141 
	C65.674416,147.203720 67.217247,147.101852 69.229507,147.000000 
z"/>
</svg>