<?xml version="1.0" encoding="UTF-8"?><svg id="Layer_1" xmlns="http://www.w3.org/2000/svg" viewBox="0 0 60 58"><defs><style>.cls-1{stroke:#2978A0;}.cls-1,.cls-2{fill:none;stroke-linecap:round;stroke-linejoin:round;stroke-width:1.07px;}.cls-3{fill:#2978A0;}.cls-2{stroke:#ffffff;}</style></defs><g><path class="cls-2" d="M18.04,27.38h9.89l4.65,4.65h9.84"/><path class="cls-2" d="M9.78,39.31l8.82,8.83h8.18"/><path class="cls-2" d="M34.24,10.46h7.8l8.57,8.61"/><path class="cls-1" d="M33.77,42.25l-.85,1.54,4.82,7.42,4.04-7.51-1.06-1.66-2.3-3.54-1.45-2.25-1.54,2.89"/><path class="cls-1" d="M24.05,43.87l4.82,7.51,8.87-.17-4.82-7.42-4.09,.04-4.78,.04,4.14-7.67,8.78,.05"/><path class="cls-1" d="M42.55,51.21l4.05-7.51"/><path class="cls-1" d="M47.2,51.21l4.05-7.51"/><path class="cls-1" d="M51.89,51.21l4-7.51"/><path class="cls-1" d="M6.37,37.06l1.45,2.21,4.05-7.5-4.82-7.46-4.05,7.55,1.07,1.66,2.3,3.54Z"/><path class="cls-1" d="M20.73,31.64l-4.77-7.46-8.91,.13,4.82,7.46,4.09-.04,4.77-.09-4.13,7.67-8.78-.04"/><path class="cls-1" d="M18.81,12.85l-.77,1.45,1.07,1.66,2.26,3.54,1.45,2.25,4.05-7.54-4.78-7.42-2.04,3.8"/><path class="cls-1" d="M35.78,14.13l-4.82-7.51-8.87,.17,4.78,7.42,4.13-.04,4.78-.04-4.14,7.67-8.82-.05"/><path class="cls-1" d="M53.63,21.33l-1.45-2.22-4.05,7.5,4.82,7.46,4.05-7.54-1.07-1.66-2.3-3.54Z"/><path class="cls-1" d="M39.27,26.74l4.77,7.46,8.91-.13-4.82-7.46-4.09,.05-4.77,.08,4.13-7.67,8.78,.04"/></g><circle class="cls-3" cx="4.79" cy="14.38" r=".94"/><circle class="cls-3" cx="9.78" cy="14.38" r=".94"/><circle class="cls-3" cx="14.76" cy="14.38" r=".94"/></svg>