<svg version="1.1" id=""
    xmlns="http://www.w3.org/2000/svg"
    xmlns:xlink="http://www.w3.org/1999/xlink" x="0px" y="0px" viewBox="0 0 1233.8 484" style="enable-background:new 0 0 1233.8 484;" xml:space="preserve">
    <style type="text/css">
	.st0{fill:#0A0A23;}
	.st1{fill:#EAEBEF;}
	.st2{fill:none;stroke:#6A4BFF;stroke-dasharray:4,4;}
	.st3{opacity:0.1;fill:#7D808E;enable-background:new    ;}
	.st4{fill:none;}
	.st5{opacity:0.1;fill:#B1A0FF;enable-background:new    ;}
	.st6{fill:none;stroke:#FCC049;stroke-dasharray:4,4;}
	.st7{enable-background:new    ;}
	.st8{fill:#FFFFFF;}
	.st9{fill:none;stroke:url(#SVGID_1_);stroke-width:4;}
	.st10{fill:none;stroke:url(#SVGID_2_);stroke-width:4;stroke-dasharray:4.0084,8.0169;}
	.st11{fill:none;stroke:url(#SVGID_3_);stroke-width:4;}
	.st12{fill:#6A4BFF;stroke:#FFFFFF;stroke-width:7;}
	.st13{fill:#FCC049;stroke:#FFFFFF;stroke-width:7;}
	.st14{fill:none;stroke:#42D481;stroke-dasharray:4,4;}
	.st15{fill:#42D481;stroke:#FFFFFF;stroke-width:7;}
    </style>
    <rect x="37.1" y="0.5" class="st0 graph" width="1196.7" height="440"></rect>
    <rect x="40" class="st4" width="1196.9" height="440"></rect>




    <g class="graph-line-overlay">
        <rect width="1202" height="460" transform="matrix(1 0 0 -1 36 460)"></rect>
    </g>
    <g class="axis x-axis">
        <rect x="37" y="439" class="st1" width="1197.9" height="2.1"></rect>
    </g>

    <g class="axis y-axis">
        <rect x="36" class="st1" width="2" height="441"></rect>
    </g>
    <g class="graph-points">
        <g class="graph-points-lines">
            <path class="st2 line2" d="M218.9,335.8H263l10.4,46"></path>
            <path class="st2 line1" d="M77.4,292.9h57.7l10.4,46"></path>
            <path class="st2 line6" d="M582.5,238h48l16,60"></path>
            <path class="st6 line7" d="M934.6,307.2h59l12.6,47.2"></path>
            <path class="st6 line8" d="M1071.1,313.2h15.5h29.5l9.6,26.7"></path>
            <path class="st2 line5" d="M541.5,289h64l23.8,43.4"></path>
            <path class="st2 line4" d="M514,357h58l25.6,23"></path>
            <path class="st14 line13" d="M1053.8,74.4h123l38,66"></path>
            <path class="st14 line12" d="M1054.1,123.6h112.5l42,60"></path>
            <path class="st14 line11" d="M1112.7,172.7h47l47,53.3"></path>
            <path class="st14 line10" d="M1073.9,221.8h84.5l46,43.5"></path>
            <path class="st14 line9" d="M1077.5,266h70.9l49,38.5"></path>
            <path class="st2 line3" d="M382.6,357h58l19.2,20.7"></path>
        </g>
        <g class="graph-points-circles">
            <circle class="st12 circle1" cx="143.6" cy="339.8" r="6.5"></circle>
            <circle class="st12 circle2" cx="272.7" cy="377.1" r="6.5"></circle>
            <circle class="st12 circle3" cx="460.7" cy="377.1" r="6.5"></circle>
            <circle class="st12 circle6" cx="645" cy="290.5" r="6.5"></circle>
            <circle class="st12 circle5" cx="625.7" cy="328.4" r="6.5"></circle>
            <circle class="st12 circle4" cx="601" cy="377.1" r="6.5"></circle>
            <circle class="st13 circle7" cx="1005.5" cy="353.5" r="6.5"></circle>
            <circle class="st13 circle8" cx="1126.6" cy="339.9" r="6.5"></circle>
            <circle class="st15 circle13" cx="1216.7" cy="141.4" r="6.5"></circle>
            <circle class="st15 circle12" cx="1211.7" cy="183.4" r="6.5"></circle>
            <circle class="st15 circle11" cx="1209.2" cy="226.4" r="6.5"></circle>
            <circle class="st15 circle10" cx="1205.2" cy="265.4" r="6.5"></circle>
            <circle class="st15 circle9" cx="1198.7" cy="305.4" r="6.5"></circle>
        </g>
    </g>

    <!-- ####################### -->
    <g>
        <g>
            <linearGradient id="SVGID_1_" gradientUnits="userSpaceOnUse" x1="35.8767" y1="101.3718" x2="1254.7427" y2="23.4409" gradientTransform="matrix(1 0 0 1 0 354)">
                <stop offset="0" style="stop-color:#6A4BFF"></stop>
                <stop offset="0.2426" style="stop-color:#FCC049"></stop>
                <stop offset="1" style="stop-color:#42D481"></stop>
            </linearGradient>
            <path class="st9" d="M36,455.3c0,0,0.8,0,2,0"></path>
            <linearGradient id="SVGID_2_" gradientUnits="userSpaceOnUse" x1="28.9125" y1="-7.5723" x2="1247.7784" y2="-85.5032" gradientTransform="matrix(1 0 0 1 0 354)">
                <stop offset="0" style="stop-color:#6A4BFF"></stop>
                <stop offset="0.2426" style="stop-color:#FCC049"></stop>
                <stop offset="1" style="stop-color:#42D481"></stop>
            </linearGradient>
            <path class="st10 graph-line" d="M46,455c5.6-0.5,11-2.3,15.8-5.1c1.1-0.6,2.1-1.2,3-1.8c2.5-1.6,4.7-3.8,6.1-6.4c0.2-0.4,0.7-1.3,0.7-1.3
			l0.9-1.5c0,0,0.2-0.4,0.3-0.6c7.8-16,56.3-113.1,73.2-96.6c20.3,19.9,19.7,54.9,49.2,62.8c5.4,1.4,14.4,2,21.8,1.4
			c19.1-1.6,32.5-12.9,44.3-20.9c18.1-12.3,32.5-20.5,58.4-2.8c10.7,6.8,14,15.5,22.2,21.3c4.5,3.2,12-6.1,17-6.4
			c22-1.5,22.9,2.9,32.7,7.4c8.1,3.7,9.4,14.9,19,12.2c35.7-10.2,12.7-21.6,51.6-37.9c0.8-0.4,3.7-1.5,7.8-2.5
			c9.7-2.5,19.6,7.7,25.2,11.9c3.2,2.4,13.7,8.1,13.7,8.1s8.1,4.4,9.8,4.5c5.1,0.3,14-19.8,24.8-18.2c1,0.2,0,0,1,0.2
			c25.4,4.2,40.3,0.6,51.2-0.1c2.6-0.2,4.4-1.5,6.8-2.3c6.4-2.1-6.2,1.7,1.7-9.6c1.2-1.8,11.2-18.3,12.5-20.5
			c9.9-15.7,13.3-32.6,15.7-45c4.2-21.5,5.6-29.4,33.5,6c4,6,14.1,22.8,17.1,28.6c4.6,8.9,14.1,15.6,17.9,21.2
			c17.9,26.3,30.9,34.8,52.5,45.6c9.5,4.7,19.5,14.5,32,19.6c5.8,2.4,16.1,10.9,23.7,11.5c2.8,0.2,10.8-2,10.8-2s18.1-8.8,26.5-4.2
			c2.5,1.4,7.9,3.1,10.2,4.7c12.7,9,38.4,15.1,47.9,14.9c16.8-0.4,24-6.7,28.1-13.3c2-3.3,5-11.7,6.5-13.9
			c11.9-17.2,42.6-63.3,65-70.3c6.3-2-0.6,0.9,6.5,6.1c14.8,10.9,29.1,14.3,42.2,14.5c7.9,0.1,16.5-1.4,23.4-2.5
			c15.6-2.3,16.7-0.8,23.7-12.7c10.6-18.2,23-19,26.9-19c18.4,0,22.3,2,27.3,23.2c0.5,2.2,11.8,36.2,13.6,37.9
			c8.2,7.8,25.6-26.5,31.9-74.8c0.3-2.4,0.6-4.8,0.9-7.2c1.6-13.3,2.9-27.6,4.1-42.3c0.7-9,3.7-21.1,4.3-30.4
			c1-15.3,1.8-27.9,2.5-43.1c3.5-69.6,10.7-87.1,16-92.3c0,0,1.4-1.7,3.4-2.4"></path>
            <linearGradient id="SVGID_3_" gradientUnits="userSpaceOnUse" x1="18.7028" y1="-167.2558" x2="1237.5687" y2="-245.1867" gradientTransform="matrix(1 0 0 1 0 354)">
                <stop offset="0" style="stop-color:#6A4BFF"></stop>
                <stop offset="0.2426" style="stop-color:#FCC049"></stop>
                <stop offset="1" style="stop-color:#42D481"></stop>
            </linearGradient>
            <path class="st11" d="M1234.6,108.6c0.6,0.2,1.1,0.6,1.7,1.1"></path>
        </g>
    </g>
    <g class="graph-years">
        <path class="st1" d="M1202.6,472l0.2-1.1c0.6-0.4,1.3-0.6,2-0.6s1.3,0.2,1.8,0.6c0.4,0.4,0.7,1,0.7,1.7c0,0.9-0.5,2-1.4,3
	c-0.3,0.4-1.1,1.2-2.3,2.3c-0.1,0.1-0.1,0.1-0.2,0.1h3.4l-0.2,1h-5.6c1.8-1.7,2.8-2.7,3.3-3.2c0.9-1,1.5-1.9,1.7-2.5
	c0-0.2,0.1-0.4,0.1-0.6c0-0.4-0.1-0.8-0.4-1s-0.6-0.4-1.1-0.4C1203.9,471.4,1203.2,471.6,1202.6,472z M1208.7,475.7
	c0-1.5,0.4-2.8,1.2-3.8c0.8-1,1.8-1.6,2.9-1.6c0.8,0,1.5,0.3,2,1s0.7,1.5,0.7,2.6c0,1.5-0.4,2.7-1.2,3.8c-0.8,1-1.8,1.6-2.9,1.6
	c-0.8,0-1.5-0.3-1.9-1C1208.9,477.6,1208.7,476.8,1208.7,475.7z M1209.9,475.6c0,0.8,0.2,1.4,0.4,1.9c0.3,0.5,0.7,0.7,1.2,0.7
	c0.8,0,1.4-0.4,2-1.2c0.5-0.8,0.8-1.8,0.8-3c0-0.8-0.2-1.4-0.4-1.9c-0.3-0.5-0.7-0.7-1.2-0.7c-0.8,0-1.4,0.4-2,1.2
	C1210.1,473.4,1209.9,474.4,1209.9,475.6z M1217.2,472l0.2-1.1c0.6-0.4,1.3-0.6,2-0.6s1.3,0.2,1.8,0.6c0.4,0.4,0.7,1,0.7,1.7
	c0,0.9-0.5,2-1.4,3c-0.3,0.4-1.1,1.2-2.3,2.3c0,0.1-0.1,0.1-0.1,0.1h3.4l-0.2,1h-5.6c1.8-1.7,2.8-2.7,3.3-3.2c1-1,1.5-1.9,1.7-2.5
	c0-0.2,0.1-0.4,0.1-0.6c0-0.4-0.1-0.8-0.4-1c-0.3-0.3-0.6-0.4-1.1-0.4C1218.4,471.4,1217.8,471.6,1217.2,472z M1223.3,475.7
	c0-1.5,0.4-2.8,1.2-3.8c0.8-1,1.8-1.6,2.9-1.6c0.8,0,1.5,0.3,2,1s0.7,1.5,0.7,2.6c0,1.5-0.4,2.7-1.2,3.8c-0.8,1-1.8,1.6-2.9,1.6
	c-0.8,0-1.5-0.3-2-1S1223.3,476.8,1223.3,475.7z M1224.4,475.6c0,0.8,0.1,1.4,0.4,1.9s0.7,0.7,1.2,0.7c0.8,0,1.4-0.4,1.9-1.2
	c0.5-0.8,0.8-1.8,0.8-3c0-0.8-0.2-1.4-0.4-1.9c-0.3-0.5-0.7-0.7-1.2-0.7c-0.8,0-1.4,0.4-2,1.2
	C1224.7,473.4,1224.4,474.4,1224.4,475.6z"></path>
        <path class="st1" d="M36.4,471.5l0.2-1h2.2l-1.4,8.6h-1.2l1.2-7.6H36.4z M46.2,470.5l-5.1,8.6h-1.2l4.6-7.6h-4l0.2-1H46.2z
	 M48.6,474.7c-0.4-0.2-0.7-0.4-0.9-0.8c-0.2-0.3-0.4-0.7-0.4-1.2c0-0.7,0.3-1.3,0.9-1.7c0.6-0.5,1.3-0.7,2.1-0.7
	c0.7,0,1.2,0.2,1.6,0.5c0.4,0.4,0.6,0.8,0.6,1.4s-0.2,1.1-0.6,1.5c-0.4,0.4-0.9,0.8-1.4,1c0.4,0.2,0.8,0.5,1.1,0.8
	c0.3,0.4,0.4,0.8,0.4,1.2c0,0.7-0.3,1.3-0.9,1.8c-0.6,0.5-1.3,0.7-2.2,0.7c-0.7,0-1.3-0.2-1.8-0.6c-0.4-0.4-0.7-0.8-0.7-1.4
	s0.2-1.1,0.7-1.6S48,475,48.6,474.7z M47.5,477.1c0,0.3,0.1,0.6,0.4,0.9s0.6,0.3,1.1,0.3s1-0.1,1.3-0.4c0.4-0.3,0.6-0.7,0.6-1.1
	c0-0.3-0.1-0.6-0.4-0.9c-0.2-0.3-0.6-0.5-1-0.7c-0.6,0.2-1,0.5-1.4,0.8C47.7,476.3,47.5,476.7,47.5,477.1z M48.4,472.8
	c0,0.6,0.4,1.1,1.2,1.5c1.2-0.5,1.8-1.1,1.8-1.8c0-0.3-0.1-0.6-0.4-0.8c-0.2-0.2-0.5-0.3-0.9-0.3c-0.5,0-0.9,0.1-1.2,0.4
	C48.5,472,48.4,472.4,48.4,472.8z M53.7,475.7c0-1.5,0.4-2.8,1.2-3.8s1.8-1.6,2.9-1.6c0.8,0,1.5,0.3,2,1s0.7,1.5,0.7,2.6
	c0,1.5-0.4,2.7-1.2,3.8c-0.8,1-1.8,1.6-2.9,1.6c-0.8,0-1.5-0.3-2-1S53.7,476.7,53.7,475.7z M54.9,475.6c0,0.8,0.1,1.4,0.4,1.9
	c0.3,0.5,0.7,0.7,1.2,0.7c0.8,0,1.4-0.4,2-1.2c0.5-0.8,0.8-1.8,0.8-3c0-0.8-0.1-1.4-0.4-1.9c-0.3-0.5-0.7-0.7-1.2-0.7
	c-0.8,0-1.4,0.4-2,1.2C55.2,473.4,54.9,474.4,54.9,475.6z"></path>
        <path class="st1" d="M141.1,471.5l0.2-1h2.2l-1.4,8.6H141l1.2-7.6H141.1z M147,474.7c-0.4-0.2-0.7-0.4-0.9-0.8s-0.4-0.7-0.4-1.2
	c0-0.7,0.3-1.3,0.9-1.7c0.6-0.5,1.3-0.7,2.1-0.7c0.7,0,1.2,0.2,1.6,0.5c0.4,0.4,0.6,0.8,0.6,1.4s-0.2,1.1-0.6,1.5
	c-0.4,0.4-0.9,0.8-1.4,1c0.4,0.2,0.8,0.5,1.1,0.8c0.3,0.4,0.4,0.8,0.4,1.2c0,0.7-0.3,1.3-0.9,1.8c-0.6,0.5-1.3,0.7-2.2,0.7
	c-0.7,0-1.3-0.2-1.8-0.6c-0.4-0.4-0.7-0.8-0.7-1.4s0.2-1.1,0.7-1.6S146.4,475,147,474.7z M145.9,477.1c0,0.3,0.1,0.6,0.4,0.9
	s0.6,0.3,1.1,0.3s1-0.1,1.3-0.4c0.4-0.3,0.6-0.7,0.6-1.1c0-0.3-0.1-0.6-0.4-0.9c-0.2-0.3-0.6-0.5-1-0.7c-0.6,0.2-1,0.5-1.4,0.8
	C146.1,476.3,145.9,476.7,145.9,477.1z M146.8,472.8c0,0.6,0.4,1.1,1.2,1.5c1.2-0.5,1.8-1.1,1.8-1.8c0-0.3-0.1-0.6-0.4-0.8
	s-0.5-0.3-0.9-0.3c-0.5,0-0.9,0.1-1.2,0.4C146.9,472,146.8,472.4,146.8,472.8z M152.1,475.7c0-1.5,0.4-2.8,1.2-3.8s1.8-1.6,2.9-1.6
	c0.8,0,1.5,0.3,2,1s0.7,1.5,0.7,2.6c0,1.5-0.4,2.7-1.2,3.8s-1.8,1.6-2.9,1.6c-0.8,0-1.5-0.3-2-1S152.1,476.7,152.1,475.7z
	 M153.3,475.6c0,0.8,0.1,1.4,0.4,1.9c0.3,0.5,0.7,0.7,1.2,0.7c0.8,0,1.4-0.4,2-1.2c0.5-0.8,0.8-1.8,0.8-3c0-0.8-0.1-1.4-0.4-1.9
	c-0.3-0.5-0.7-0.7-1.2-0.7c-0.8,0-1.4,0.4-2,1.2C153.6,473.4,153.3,474.4,153.3,475.6z M160.4,475.7c0-1.5,0.4-2.8,1.2-3.8
	s1.8-1.6,2.9-1.6c0.8,0,1.5,0.3,2,1s0.7,1.5,0.7,2.6c0,1.5-0.4,2.7-1.2,3.8c-0.8,1-1.8,1.6-2.9,1.6c-0.8,0-1.5-0.3-2-1
	C160.6,477.6,160.4,476.7,160.4,475.7z M161.5,475.6c0,0.8,0.1,1.4,0.4,1.9c0.3,0.5,0.7,0.7,1.2,0.7c0.8,0,1.4-0.4,2-1.2
	c0.5-0.8,0.8-1.8,0.8-3c0-0.8-0.1-1.4-0.4-1.9c-0.3-0.5-0.7-0.7-1.2-0.7c-0.8,0-1.4,0.4-2,1.2C161.8,473.4,161.5,474.4,161.5,475.6z
	">        </path>
        <path class="st1" d="M247.8,471.5l0.2-1h2.2l-1.4,8.6h-1.2l1.2-7.6H247.8z M253.6,474.7c-0.4-0.2-0.7-0.4-0.9-0.8s-0.4-0.7-0.4-1.2
	c0-0.7,0.3-1.3,0.9-1.7c0.6-0.5,1.3-0.7,2.1-0.7c0.7,0,1.2,0.2,1.6,0.5c0.4,0.4,0.6,0.8,0.6,1.4s-0.2,1.1-0.6,1.5s-0.9,0.8-1.4,1
	c0.4,0.2,0.8,0.5,1.1,0.8c0.3,0.4,0.4,0.8,0.4,1.2c0,0.7-0.3,1.3-0.9,1.8s-1.3,0.7-2.2,0.7c-0.7,0-1.3-0.2-1.8-0.6
	c-0.4-0.4-0.7-0.8-0.7-1.4s0.2-1.1,0.7-1.6S253,475,253.6,474.7z M252.5,477.1c0,0.3,0.1,0.6,0.4,0.9s0.6,0.3,1.1,0.3s1-0.1,1.3-0.4
	c0.4-0.3,0.6-0.7,0.6-1.1c0-0.3-0.1-0.6-0.4-0.9c-0.2-0.3-0.6-0.5-1-0.7c-0.6,0.2-1,0.5-1.4,0.8
	C252.7,476.3,252.5,476.7,252.5,477.1z M253.4,472.8c0,0.6,0.4,1.1,1.2,1.5c1.2-0.5,1.8-1.1,1.8-1.8c0-0.3-0.1-0.6-0.4-0.8
	c-0.2-0.2-0.5-0.3-0.9-0.3c-0.5,0-0.9,0.1-1.2,0.4C253.6,472,253.4,472.4,253.4,472.8z M263.5,477l-0.3,2.1h-1l0.3-2.1h-4.1l4-6.6
	h1.2l-3.4,5.6h2.5l0.4-2.3h1l-0.4,2.3h1.2l-0.2,1H263.5z M266.1,475.7c0-1.5,0.4-2.8,1.2-3.8c0.8-1,1.8-1.6,2.9-1.6
	c0.8,0,1.5,0.3,2,1s0.7,1.5,0.7,2.6c0,1.5-0.4,2.7-1.2,3.8s-1.8,1.6-2.9,1.6c-0.8,0-1.5-0.3-2-1
	C266.3,477.6,266.1,476.7,266.1,475.7z M267.2,475.6c0,0.8,0.1,1.4,0.4,1.9s0.7,0.7,1.2,0.7c0.8,0,1.4-0.4,2-1.2
	c0.5-0.8,0.8-1.8,0.8-3c0-0.8-0.1-1.4-0.4-1.9s-0.7-0.7-1.2-0.7c-0.8,0-1.4,0.4-2,1.2C267.5,473.4,267.2,474.4,267.2,475.6z"></path>
        <path class="st1" d="M353.5,471.5l0.2-1h2.2l-1.4,8.6h-1.2l1.2-7.6H353.5z M359.3,474.7c-0.4-0.2-0.7-0.4-0.9-0.8
	c-0.2-0.3-0.4-0.7-0.4-1.2c0-0.7,0.3-1.3,0.9-1.7c0.6-0.5,1.3-0.7,2.1-0.7c0.7,0,1.2,0.2,1.6,0.5c0.4,0.4,0.6,0.8,0.6,1.4
	s-0.2,1.1-0.6,1.5s-0.9,0.8-1.4,1c0.4,0.2,0.8,0.5,1.1,0.8c0.3,0.4,0.4,0.8,0.4,1.2c0,0.7-0.3,1.3-0.9,1.8s-1.3,0.7-2.2,0.7
	c-0.7,0-1.3-0.2-1.8-0.6c-0.4-0.4-0.7-0.8-0.7-1.4s0.2-1.1,0.7-1.6S358.7,475,359.3,474.7z M358.2,477.1c0,0.3,0.1,0.6,0.4,0.9
	s0.6,0.3,1.1,0.3s1-0.1,1.3-0.4c0.4-0.3,0.6-0.7,0.6-1.1c0-0.3-0.1-0.6-0.4-0.9c-0.2-0.3-0.6-0.5-1-0.7c-0.6,0.2-1,0.5-1.4,0.8
	C358.4,476.3,358.2,476.7,358.2,477.1z M359.1,472.8c0,0.6,0.4,1.1,1.2,1.5c1.2-0.5,1.8-1.1,1.8-1.8c0-0.3-0.1-0.6-0.4-0.8
	c-0.2-0.2-0.5-0.3-0.9-0.3c-0.5,0-0.9,0.1-1.2,0.4C359.3,472,359.1,472.4,359.1,472.8z M367.8,473.5c0.7,0,1.3,0.2,1.8,0.7
	c0.4,0.5,0.7,1.1,0.7,1.7c0,0.9-0.3,1.7-1,2.3c-0.7,0.6-1.5,0.9-2.4,0.9c-0.8,0-1.4-0.2-1.8-0.7s-0.7-1.1-0.7-1.8
	c0-0.5,0.1-1.1,0.4-1.7s0.7-1.2,1.1-1.8c1-1.2,1.9-2.1,2.9-2.7h1.5c-0.8,0.5-1.5,1.1-2.2,1.7c-0.7,0.7-1.2,1.3-1.6,1.8
	C366.9,473.7,367.3,473.5,367.8,473.5z M366.9,478.3c0.6,0,1.2-0.2,1.6-0.6s0.6-0.9,0.6-1.6c0-0.5-0.2-0.9-0.5-1.2
	c-0.3-0.3-0.7-0.5-1.2-0.5c-0.6,0-1.1,0.2-1.6,0.6c-0.4,0.4-0.6,0.9-0.6,1.5c0,0.5,0.1,0.9,0.4,1.2
	C366,478.1,366.4,478.3,366.9,478.3z M371.9,475.7c0-1.5,0.4-2.8,1.2-3.8c0.8-1,1.8-1.6,2.9-1.6c0.8,0,1.5,0.3,2,1s0.7,1.5,0.7,2.6
	c0,1.5-0.4,2.7-1.2,3.8c-0.8,1-1.8,1.6-2.9,1.6c-0.8,0-1.5-0.3-2-1S371.9,476.7,371.9,475.7z M373.1,475.6c0,0.8,0.1,1.4,0.4,1.9
	s0.7,0.7,1.2,0.7c0.8,0,1.4-0.4,2-1.2c0.5-0.8,0.8-1.8,0.8-3c0-0.8-0.1-1.4-0.4-1.9s-0.7-0.7-1.2-0.7c-0.8,0-1.4,0.4-2,1.2
	C373.4,473.4,373.1,474.4,373.1,475.6z"></path>
        <path class="st1" d="M459.4,471.5l0.2-1h2.2l-1.4,8.6h-1.2l1.2-7.6H459.4z M465.2,474.7c-0.4-0.2-0.7-0.4-0.9-0.8
	c-0.2-0.3-0.4-0.7-0.4-1.2c0-0.7,0.3-1.3,0.9-1.7c0.6-0.5,1.3-0.7,2.1-0.7c0.7,0,1.2,0.2,1.6,0.5c0.4,0.4,0.6,0.8,0.6,1.4
	s-0.2,1.1-0.6,1.5s-0.9,0.8-1.4,1c0.4,0.2,0.8,0.5,1.1,0.8c0.3,0.4,0.4,0.8,0.4,1.2c0,0.7-0.3,1.3-0.9,1.8s-1.3,0.7-2.2,0.7
	c-0.7,0-1.3-0.2-1.8-0.6c-0.4-0.4-0.7-0.8-0.7-1.4s0.2-1.1,0.7-1.6S464.6,475,465.2,474.7z M464.1,477.1c0,0.3,0.1,0.6,0.4,0.9
	s0.6,0.3,1.1,0.3s1-0.1,1.3-0.4c0.4-0.3,0.6-0.7,0.6-1.1c0-0.3-0.1-0.6-0.4-0.9c-0.2-0.3-0.6-0.5-1-0.7c-0.6,0.2-1,0.5-1.4,0.8
	C464.3,476.3,464.1,476.7,464.1,477.1z M465,472.8c0,0.6,0.4,1.1,1.2,1.5c1.2-0.5,1.8-1.1,1.8-1.8c0-0.3-0.1-0.6-0.4-0.8
	s-0.5-0.3-0.9-0.3c-0.5,0-0.9,0.1-1.2,0.4C465.1,472,465,472.4,465,472.8z M472.2,474.7c-0.4-0.2-0.7-0.4-0.9-0.8
	c-0.2-0.3-0.4-0.7-0.4-1.2c0-0.7,0.3-1.3,0.9-1.7c0.6-0.5,1.3-0.7,2.1-0.7c0.7,0,1.2,0.2,1.6,0.5c0.4,0.4,0.6,0.8,0.6,1.4
	s-0.2,1.1-0.6,1.5s-0.9,0.8-1.4,1c0.4,0.2,0.8,0.5,1.1,0.8c0.3,0.4,0.4,0.8,0.4,1.2c0,0.7-0.3,1.3-0.9,1.8s-1.3,0.7-2.2,0.7
	c-0.7,0-1.3-0.2-1.8-0.6c-0.4-0.4-0.7-0.8-0.7-1.4s0.2-1.1,0.7-1.6S471.6,475,472.2,474.7z M471.1,477.1c0,0.3,0.1,0.6,0.4,0.9
	s0.6,0.3,1.1,0.3s1-0.1,1.3-0.4c0.4-0.3,0.6-0.7,0.6-1.1c0-0.3-0.1-0.6-0.4-0.9c-0.2-0.3-0.6-0.5-1-0.7c-0.6,0.2-1,0.5-1.4,0.8
	C471.3,476.3,471.1,476.7,471.1,477.1z M471.9,472.8c0,0.6,0.4,1.1,1.2,1.5c1.2-0.5,1.8-1.1,1.8-1.8c0-0.3-0.1-0.6-0.4-0.8
	c-0.2-0.2-0.5-0.3-0.9-0.3c-0.5,0-0.9,0.1-1.2,0.4C472.1,472,471.9,472.4,471.9,472.8z M477.3,475.7c0-1.5,0.4-2.8,1.2-3.8
	c0.8-1,1.8-1.6,2.9-1.6c0.8,0,1.5,0.3,2,1s0.7,1.5,0.7,2.6c0,1.5-0.4,2.7-1.2,3.8s-1.8,1.6-2.9,1.6c-0.8,0-1.5-0.3-2-1
	C477.6,477.6,477.3,476.7,477.3,475.7z M478.5,475.6c0,0.8,0.1,1.4,0.4,1.9s0.7,0.7,1.2,0.7c0.8,0,1.4-0.4,2-1.2
	c0.5-0.8,0.8-1.8,0.8-3c0-0.8-0.1-1.4-0.4-1.9s-0.7-0.7-1.2-0.7c-0.8,0-1.4,0.4-2,1.2C478.7,473.4,478.5,474.4,478.5,475.6z"></path>
        <path class="st1" d="M561.4,471.5l0.2-1h2.2l-1.4,8.6h-1.2l1.2-7.6H561.4z M567.9,476c-0.7,0-1.3-0.2-1.8-0.7
	c-0.4-0.5-0.7-1-0.7-1.8c0-0.9,0.3-1.7,1-2.3c0.7-0.6,1.5-1,2.4-1c0.7,0,1.3,0.2,1.8,0.7s0.7,1.1,0.7,1.8c0,0.5-0.1,1.1-0.4,1.7
	c-0.3,0.6-0.7,1.2-1.1,1.8c-1,1.2-1.9,2.1-2.9,2.7h-1.5c0.8-0.5,1.5-1.1,2.2-1.7c0.7-0.7,1.2-1.3,1.6-1.8
	C568.9,475.9,568.4,476,567.9,476z M568.8,471.3c-0.6,0-1.1,0.2-1.6,0.6c-0.4,0.4-0.6,0.9-0.6,1.6c0,0.5,0.1,0.9,0.4,1.2
	c0.3,0.3,0.7,0.5,1.2,0.5c0.6,0,1.1-0.2,1.6-0.6c0.4-0.4,0.6-0.9,0.6-1.5c0-0.5-0.1-0.9-0.4-1.2
	C569.7,471.4,569.3,471.3,568.8,471.3z M572.5,475.7c0-1.5,0.4-2.8,1.2-3.8s1.8-1.6,2.9-1.6c0.8,0,1.5,0.3,2,1s0.7,1.5,0.7,2.6
	c0,1.5-0.4,2.7-1.2,3.8s-1.8,1.6-2.9,1.6c-0.8,0-1.5-0.3-2-1S572.5,476.8,572.5,475.7z M573.7,475.6c0,0.8,0.1,1.4,0.4,1.9
	c0.3,0.5,0.7,0.7,1.2,0.7c0.8,0,1.4-0.4,2-1.2c0.5-0.8,0.8-1.8,0.8-3c0-0.8-0.1-1.4-0.4-1.9c-0.3-0.5-0.7-0.7-1.2-0.7
	c-0.8,0-1.4,0.4-2,1.2C573.9,473.4,573.7,474.4,573.7,475.6z M580.7,475.7c0-1.5,0.4-2.8,1.2-3.8s1.8-1.6,2.9-1.6c0.8,0,1.5,0.3,2,1
	s0.7,1.5,0.7,2.6c0,1.5-0.4,2.7-1.2,3.8s-1.8,1.6-2.9,1.6c-0.8,0-1.5-0.3-2-1S580.7,476.8,580.7,475.7z M581.9,475.6
	c0,0.8,0.1,1.4,0.4,1.9c0.3,0.5,0.7,0.7,1.2,0.7c0.8,0,1.4-0.4,2-1.2c0.5-0.8,0.8-1.8,0.8-3c0-0.8-0.1-1.4-0.4-1.9
	c-0.3-0.5-0.7-0.7-1.2-0.7c-0.8,0-1.4,0.4-2,1.2C582.2,473.4,581.9,474.4,581.9,475.6z"></path>
        <path class="st1" d="M665.1,471.5l0.2-1h2.2l-1.4,8.6H665l1.2-7.6H665.1z M671.7,476c-0.7,0-1.3-0.2-1.8-0.7c-0.4-0.5-0.7-1-0.7-1.8
	c0-0.9,0.3-1.7,1-2.3c0.7-0.6,1.5-1,2.4-1c0.7,0,1.3,0.2,1.8,0.7s0.7,1.1,0.7,1.8c0,0.5-0.1,1.1-0.4,1.7c-0.3,0.6-0.7,1.2-1.1,1.8
	c-1,1.2-1.9,2.1-2.9,2.7h-1.5c0.8-0.5,1.5-1.1,2.2-1.7c0.7-0.7,1.2-1.3,1.6-1.8C672.6,475.9,672.2,476,671.7,476z M672.5,471.3
	c-0.6,0-1.1,0.2-1.6,0.6c-0.4,0.4-0.6,0.9-0.6,1.6c0,0.5,0.1,0.9,0.4,1.2c0.3,0.3,0.7,0.5,1.2,0.5c0.6,0,1.1-0.2,1.6-0.6
	c0.4-0.4,0.6-0.9,0.6-1.5c0-0.5-0.1-0.9-0.4-1.2C673.4,471.4,673,471.3,672.5,471.3z M676.7,472l0.2-1.1c0.6-0.4,1.3-0.6,2-0.6
	s1.3,0.2,1.8,0.6c0.4,0.4,0.7,1,0.7,1.7c0,0.9-0.5,2-1.4,3c-0.3,0.4-1.1,1.2-2.3,2.3c0,0.1-0.1,0.1-0.1,0.1h3.4l-0.2,1h-5.6
	c1.8-1.7,2.8-2.7,3.3-3.2c1-1,1.5-1.9,1.7-2.5c0-0.2,0.1-0.4,0.1-0.6c0-0.4-0.1-0.8-0.4-1c-0.3-0.3-0.6-0.4-1.1-0.4
	C677.9,471.4,677.3,471.6,676.7,472z M682.8,475.7c0-1.5,0.4-2.8,1.2-3.8s1.8-1.6,2.9-1.6c0.8,0,1.5,0.3,2,1s0.7,1.5,0.7,2.6
	c0,1.5-0.4,2.7-1.2,3.8s-1.8,1.6-2.9,1.6c-0.8,0-1.5-0.3-2-1S682.8,476.8,682.8,475.7z M683.9,475.6c0,0.8,0.1,1.4,0.4,1.9
	c0.3,0.5,0.7,0.7,1.2,0.7c0.8,0,1.4-0.4,2-1.2c0.5-0.8,0.8-1.8,0.8-3c0-0.8-0.1-1.4-0.4-1.9c-0.3-0.5-0.7-0.7-1.2-0.7
	c-0.8,0-1.4,0.4-2,1.2C684.2,473.4,683.9,474.4,683.9,475.6z"></path>
        <path class="st1" d="M767.2,471.5l0.2-1h2.2l-1.4,8.6H767l1.2-7.6H767.2z M773.7,476c-0.7,0-1.3-0.2-1.8-0.7c-0.4-0.5-0.7-1-0.7-1.8
	c0-0.9,0.3-1.7,1-2.3c0.7-0.6,1.5-1,2.4-1c0.7,0,1.3,0.2,1.8,0.7s0.7,1.1,0.7,1.8c0,0.5-0.1,1.1-0.4,1.7c-0.3,0.6-0.7,1.2-1.1,1.8
	c-1,1.2-1.9,2.1-2.9,2.7h-1.5c0.8-0.5,1.5-1.1,2.2-1.7c0.7-0.7,1.2-1.3,1.6-1.8C774.6,475.9,774.2,476,773.7,476z M774.6,471.3
	c-0.6,0-1.1,0.2-1.6,0.6c-0.4,0.4-0.6,0.9-0.6,1.6c0,0.5,0.1,0.9,0.4,1.2c0.3,0.3,0.7,0.5,1.2,0.5c0.6,0,1.1-0.2,1.6-0.6
	c0.4-0.4,0.6-0.9,0.6-1.5c0-0.5-0.1-0.9-0.4-1.2C775.4,471.4,775,471.3,774.6,471.3z M782.4,477l-0.3,2.1h-1l0.3-2.1h-4.1l4-6.6h1.2
	l-3.4,5.6h2.5l0.4-2.3h1l-0.4,2.3h1.2l-0.2,1H782.4z M785,475.7c0-1.5,0.4-2.8,1.2-3.8s1.8-1.6,2.9-1.6c0.8,0,1.5,0.3,2,1
	s0.7,1.5,0.7,2.6c0,1.5-0.4,2.7-1.2,3.8s-1.8,1.6-2.9,1.6c-0.8,0-1.5-0.3-2-1S785,476.8,785,475.7z M786.1,475.6
	c0,0.8,0.1,1.4,0.4,1.9c0.3,0.5,0.7,0.7,1.2,0.7c0.8,0,1.4-0.4,2-1.2c0.5-0.8,0.8-1.8,0.8-3c0-0.8-0.1-1.4-0.4-1.9
	c-0.3-0.5-0.7-0.7-1.2-0.7c-0.8,0-1.4,0.4-2,1.2C786.4,473.4,786.1,474.4,786.1,475.6z"></path>
        <path class="st1" d="M882.2,471.5l0.2-1h2.2l-1.4,8.6H882l1.2-7.6H882.2z M888.7,476c-0.7,0-1.3-0.2-1.8-0.7c-0.4-0.5-0.7-1-0.7-1.8
	c0-0.9,0.3-1.7,1-2.3c0.7-0.6,1.5-1,2.4-1c0.7,0,1.3,0.2,1.8,0.7s0.7,1.1,0.7,1.8c0,0.5-0.1,1.1-0.4,1.7c-0.3,0.6-0.7,1.2-1.1,1.8
	c-1,1.2-1.9,2.1-2.9,2.7h-1.5c0.8-0.5,1.5-1.1,2.2-1.7c0.7-0.7,1.2-1.3,1.6-1.8C889.7,475.9,889.2,476,888.7,476z M889.6,471.3
	c-0.6,0-1.1,0.2-1.6,0.6c-0.4,0.4-0.6,0.9-0.6,1.6c0,0.5,0.1,0.9,0.4,1.2c0.3,0.3,0.7,0.5,1.2,0.5c0.6,0,1.1-0.2,1.6-0.6
	c0.4-0.4,0.6-0.9,0.6-1.5c0-0.5-0.1-0.9-0.4-1.2C890.5,471.4,890.1,471.3,889.6,471.3z M896.6,473.5c0.7,0,1.3,0.2,1.8,0.7
	c0.4,0.5,0.7,1.1,0.7,1.7c0,0.9-0.3,1.7-1,2.3c-0.7,0.6-1.5,0.9-2.4,0.9c-0.8,0-1.4-0.2-1.8-0.7c-0.5-0.5-0.7-1.1-0.7-1.8
	c0-0.5,0.1-1.1,0.4-1.7c0.3-0.6,0.7-1.2,1.1-1.8c1-1.2,1.9-2.1,2.9-2.7h1.5c-0.8,0.5-1.5,1.1-2.2,1.7c-0.7,0.7-1.2,1.3-1.6,1.8
	C895.7,473.7,896.1,473.5,896.6,473.5z M895.8,478.3c0.6,0,1.2-0.2,1.6-0.6c0.4-0.4,0.6-0.9,0.6-1.6c0-0.5-0.2-0.9-0.5-1.2
	c-0.3-0.3-0.7-0.5-1.2-0.5c-0.6,0-1.1,0.2-1.6,0.6c-0.4,0.4-0.6,0.9-0.6,1.5c0,0.5,0.1,0.9,0.4,1.2
	C894.9,478.1,895.3,478.3,895.8,478.3z M900.8,475.7c0-1.5,0.4-2.8,1.2-3.8s1.8-1.6,2.9-1.6c0.8,0,1.5,0.3,2,1s0.7,1.5,0.7,2.6
	c0,1.5-0.4,2.7-1.2,3.8s-1.8,1.6-2.9,1.6c-0.8,0-1.5-0.3-2-1S900.8,476.8,900.8,475.7z M901.9,475.6c0,0.8,0.1,1.4,0.4,1.9
	c0.3,0.5,0.7,0.7,1.2,0.7c0.8,0,1.4-0.4,2-1.2c0.5-0.8,0.8-1.8,0.8-3c0-0.8-0.1-1.4-0.4-1.9c-0.3-0.5-0.7-0.7-1.2-0.7
	c-0.8,0-1.4,0.4-2,1.2C902.2,473.4,901.9,474.4,901.9,475.6z"></path>
        <path class="st1" d="M998,471.5l0.2-1h2.2l-1.4,8.6h-1.2l1.2-7.6H998z M1004.5,476c-0.7,0-1.3-0.2-1.8-0.7c-0.4-0.5-0.7-1-0.7-1.8
	c0-0.9,0.3-1.7,1-2.3c0.7-0.6,1.5-1,2.4-1c0.7,0,1.3,0.2,1.8,0.7s0.7,1.1,0.7,1.8c0,0.5-0.1,1.1-0.4,1.7c-0.3,0.6-0.7,1.2-1.1,1.8
	c-1,1.2-1.9,2.1-2.9,2.7h-1.5c0.8-0.5,1.5-1.1,2.2-1.7c0.7-0.7,1.2-1.3,1.6-1.8C1005.5,475.9,1005,476,1004.5,476z M1005.4,471.3
	c-0.6,0-1.1,0.2-1.6,0.6c-0.4,0.4-0.6,0.9-0.6,1.6c0,0.5,0.1,0.9,0.4,1.2c0.3,0.3,0.7,0.5,1.2,0.5c0.6,0,1.1-0.2,1.6-0.6
	c0.4-0.4,0.6-0.9,0.6-1.5c0-0.5-0.1-0.9-0.4-1.2C1006.3,471.4,1005.9,471.3,1005.4,471.3z M1010.9,474.7c-0.4-0.2-0.7-0.4-0.9-0.8
	s-0.4-0.7-0.4-1.2c0-0.7,0.3-1.3,0.9-1.7c0.6-0.5,1.3-0.7,2.1-0.7c0.7,0,1.2,0.2,1.6,0.5c0.4,0.4,0.6,0.8,0.6,1.4s-0.2,1.1-0.6,1.5
	c-0.4,0.4-0.9,0.8-1.4,1c0.4,0.2,0.8,0.5,1.1,0.8c0.3,0.4,0.4,0.8,0.4,1.2c0,0.7-0.3,1.3-0.9,1.8c-0.6,0.5-1.3,0.7-2.2,0.7
	c-0.7,0-1.3-0.2-1.8-0.6c-0.4-0.4-0.7-0.8-0.7-1.4s0.2-1.1,0.7-1.6C1009.8,475.3,1010.3,475,1010.9,474.7z M1009.9,477.1
	c0,0.3,0.1,0.6,0.4,0.9c0.3,0.2,0.6,0.3,1.1,0.3s1-0.1,1.3-0.4c0.4-0.3,0.6-0.7,0.6-1.1c0-0.3-0.1-0.6-0.4-0.9
	c-0.2-0.3-0.6-0.5-1-0.7c-0.6,0.2-1,0.5-1.4,0.8C1010,476.3,1009.9,476.7,1009.9,477.1z M1010.7,472.8c0,0.6,0.4,1.1,1.2,1.5
	c1.2-0.5,1.8-1.1,1.8-1.8c0-0.3-0.1-0.6-0.4-0.8s-0.5-0.3-0.9-0.3c-0.5,0-0.9,0.1-1.2,0.4C1010.9,472,1010.7,472.4,1010.7,472.8z
	 M1016.1,475.7c0-1.5,0.4-2.8,1.2-3.8s1.8-1.6,2.9-1.6c0.8,0,1.5,0.3,2,1s0.7,1.5,0.7,2.6c0,1.5-0.4,2.7-1.2,3.8
	c-0.8,1-1.8,1.6-2.9,1.6c-0.8,0-1.5-0.3-2-1S1016.1,476.7,1016.1,475.7z M1017.3,475.6c0,0.8,0.1,1.4,0.4,1.9
	c0.3,0.5,0.7,0.7,1.2,0.7c0.8,0,1.4-0.4,2-1.2c0.5-0.8,0.8-1.8,0.8-3c0-0.8-0.1-1.4-0.4-1.9c-0.3-0.5-0.7-0.7-1.2-0.7
	c-0.8,0-1.4,0.4-2,1.2C1017.5,473.4,1017.3,474.4,1017.3,475.6z"></path>
        <path class="st1" d="M1098.1,472l0.2-1.1c0.6-0.4,1.3-0.6,2-0.6s1.3,0.2,1.8,0.6c0.4,0.4,0.7,1,0.7,1.7c0,0.9-0.5,2-1.4,3
	c-0.3,0.4-1.1,1.2-2.3,2.3c-0.1,0.1-0.1,0.1-0.1,0.1h3.4l-0.2,1h-5.6c1.8-1.7,2.8-2.7,3.3-3.2c1-1,1.5-1.9,1.7-2.5
	c0-0.2,0.1-0.4,0.1-0.6c0-0.4-0.1-0.8-0.4-1c-0.3-0.3-0.6-0.4-1.1-0.4C1099.3,471.4,1098.7,471.6,1098.1,472z M1104.2,475.7
	c0-1.5,0.4-2.8,1.2-3.8c0.8-1,1.8-1.6,2.9-1.6c0.8,0,1.5,0.3,2,1s0.7,1.5,0.7,2.6c0,1.5-0.4,2.7-1.2,3.8s-1.8,1.6-2.9,1.6
	c-0.8,0-1.5-0.3-2-1C1104.4,477.6,1104.2,476.8,1104.2,475.7z M1105.3,475.6c0,0.8,0.1,1.4,0.4,1.9s0.7,0.7,1.2,0.7
	c0.8,0,1.4-0.4,2-1.2c0.5-0.8,0.8-1.8,0.8-3c0-0.8-0.2-1.4-0.4-1.9c-0.3-0.5-0.7-0.7-1.2-0.7c-0.8,0-1.4,0.4-1.9,1.2
	C1105.6,473.4,1105.3,474.4,1105.3,475.6z M1112.4,475.7c0-1.5,0.4-2.8,1.2-3.8c0.8-1,1.8-1.6,2.9-1.6c0.8,0,1.5,0.3,2,1
	s0.7,1.5,0.7,2.6c0,1.5-0.4,2.7-1.2,3.8s-1.8,1.6-2.9,1.6c-0.8,0-1.5-0.3-2-1S1112.4,476.8,1112.4,475.7z M1113.6,475.6
	c0,0.8,0.1,1.4,0.4,1.9s0.7,0.7,1.2,0.7c0.8,0,1.4-0.4,2-1.2c0.5-0.8,0.8-1.8,0.8-3c0-0.8-0.2-1.4-0.4-1.9c-0.3-0.5-0.7-0.7-1.2-0.7
	c-0.8,0-1.4,0.4-1.9,1.2C1113.8,473.4,1113.6,474.4,1113.6,475.6z M1120.6,475.7c0-1.5,0.4-2.8,1.2-3.8c0.8-1,1.8-1.6,2.9-1.6
	c0.8,0,1.5,0.3,2,1s0.7,1.5,0.7,2.6c0,1.5-0.4,2.7-1.2,3.8c-0.8,1-1.8,1.6-2.9,1.6c-0.8,0-1.5-0.3-1.9-1
	C1120.9,477.6,1120.6,476.8,1120.6,475.7z M1121.8,475.6c0,0.8,0.1,1.4,0.4,1.9s0.7,0.7,1.2,0.7c0.8,0,1.4-0.4,2-1.2
	c0.5-0.8,0.8-1.8,0.8-3c0-0.8-0.2-1.4-0.4-1.9c-0.3-0.5-0.7-0.7-1.2-0.7c-0.8,0-1.4,0.4-1.9,1.2
	C1122.1,473.4,1121.8,474.4,1121.8,475.6z"></path>
    </g>
    <g class="graph-text">
        <g class="st7 text1">
            <path class="st8" d="M69.7,281.6v-1.3c0.7,0.4,1.8,0.7,2.8,0.7c1.3,0,2.2-0.5,2.2-1.4s-0.5-1.4-2.2-2c-1.9-0.7-2.8-1.5-2.8-3
		c0-1.7,1.4-2.7,3.4-2.7c1,0,1.9,0.3,2.5,0.5v1.3c-0.6-0.3-1.5-0.6-2.4-0.6c-1.2,0-2.1,0.6-2.1,1.5c0,0.8,0.5,1.4,2.2,2
		c1.9,0.7,2.9,1.5,2.9,3c0,1.7-1.3,2.7-3.4,2.7C71.5,282.2,70.4,281.9,69.7,281.6z"></path>
            <path class="st8" d="M78,275v-2.1h1.3v2.1h2.1v1.1h-2.1v3.6c0,1,0.4,1.3,1,1.3c0.4,0,0.9-0.1,1.3-0.3v1.1c-0.3,0.2-0.9,0.3-1.6,0.3
		c-1,0-2.1-0.5-2.1-2.1v-4h-1.1v-1H78z"></path>
            <path class="st8" d="M89.1,278.1c0,0.3,0,0.5,0,0.7h-5.2l0,0c0,1.4,1,2.2,2.4,2.2c1,0,1.9-0.3,2.5-0.7v1.2
		c-0.5,0.3-1.5,0.6-2.6,0.6c-2.2,0-3.7-1.5-3.7-3.7c0-2.1,1.5-3.7,3.4-3.7C88,274.8,89.1,276.4,89.1,278.1z M85.9,275.9
		c-1.2,0-1.9,0.9-2,1.9h3.9C87.8,276.8,87.1,275.9,85.9,275.9z"></path>
            <path class="st8" d="M90.8,275.3c0.4-0.2,1.3-0.5,2.5-0.5c2,0,2.9,1,2.9,2.7v4.5H95v-0.8c0-0.3,0-0.6,0-0.6l0,0
		c-0.1,0.2-0.9,1.6-2.4,1.6c-1.3,0-2.2-0.8-2.2-2.1c0-1.7,1.6-2.6,4.6-2.2v-0.4c0-1.2-0.7-1.6-1.8-1.6c-1,0-1.9,0.3-2.3,0.6
		L90.8,275.3L90.8,275.3z M94.9,278.9c-2.3-0.4-3.3,0.3-3.3,1.2c0,0.6,0.4,1,1.1,1C94,281.1,94.9,280,94.9,278.9z"></path>
            <path class="st8" d="M99.7,275v1c0,0.3,0,0.5-0.1,0.5l0,0c0.4-1,1.4-1.7,2.6-1.7c1,0,1.9,0.6,2.1,1.6l0,0c0.4-0.9,1.4-1.6,2.4-1.6
		c1.7,0,2.5,1,2.5,2.8v4.4H108v-4.1c0-1-0.3-1.8-1.3-1.8c-1.5,0-2.1,1.4-2.1,2.7v3.3h-1.3v-4.2c0-0.9-0.2-1.8-1.3-1.8
		c-1.5,0-2.2,1.4-2.2,2.7v3.3h-1.3v-7L99.7,275L99.7,275z"></path>
            <path class="st8" d="M115.3,282v-10.1h6.2v1.1h-4.8v3.3h4.1v1.1h-4.1v3.4h5.1v1.1h-6.5V282z"></path>
            <path class="st8" d="M124.8,275v1c0,0.3,0,0.5-0.1,0.5l0,0c0.3-0.6,1.2-1.7,2.7-1.7c1.7,0,2.4,1,2.4,2.8v4.4h-1.3v-4.1
		c0-1-0.2-1.8-1.3-1.8c-1.4,0-2.4,1.1-2.4,2.5v3.4h-1.3v-7L124.8,275L124.8,275z"></path>
            <path class="st8" d="M135.3,280.9c1.8,0.2,2.8,0.7,2.8,2s-1.4,2.2-3.4,2.2c-1.9,0-3.2-0.6-3.2-1.9c0-0.8,0.9-1.5,1.9-1.7
		c-0.7-0.1-1.1-0.4-1.1-0.9c0-0.4,0.4-0.8,1-1c-1-0.4-1.7-1.2-1.7-2.3c0-1.5,1.2-2.5,2.8-2.5c0.4,0,0.8,0.1,1.1,0.2h2.5v1h-1
		c-0.2,0-0.4-0.1-0.4-0.1h-0.1c0.4,0.4,0.6,0.8,0.6,1.4c0,1.4-1.1,2.4-2.6,2.4l0,0c-0.6,0.1-1.1,0.3-1.1,0.6
		C133.6,280.7,134,280.8,135.3,280.9z M136.7,283c0-0.6-0.6-1.1-2.1-1.1c-1.1,0-1.9,0.5-1.9,1.2s0.8,1.1,2,1.1
		C136,284.1,136.7,283.7,136.7,283z M136.1,277.3c0-0.9-0.7-1.5-1.6-1.5c-1,0-1.6,0.6-1.6,1.5s0.7,1.5,1.6,1.5
		C135.5,278.8,136.1,278.2,136.1,277.3z"></path>
            <path class="st8" d="M140.3,272.2c0.5,0,0.8,0.3,0.8,0.8s-0.3,0.8-0.8,0.8s-0.8-0.3-0.8-0.8S139.8,272.2,140.3,272.2z M141,275v7
		h-1.3v-7H141z"></path>
            <path class="st8" d="M144.7,275v1c0,0.3,0,0.5-0.1,0.5l0,0c0.3-0.6,1.2-1.7,2.7-1.7c1.7,0,2.4,1,2.4,2.8v4.4h-1.3v-4.1
		c0-1-0.2-1.8-1.3-1.8c-1.4,0-2.4,1.1-2.4,2.5v3.4h-1.3v-7L144.7,275L144.7,275z"></path>
            <path class="st8" d="M158.2,278.1c0,0.3,0,0.5,0,0.7H153l0,0c0,1.4,1,2.2,2.4,2.2c1,0,1.9-0.3,2.5-0.7v1.2
		c-0.5,0.3-1.5,0.6-2.6,0.6c-2.2,0-3.7-1.5-3.7-3.7c0-2.1,1.5-3.7,3.4-3.7C157.1,274.8,158.2,276.4,158.2,278.1z M155,275.9
		c-1.2,0-1.9,0.9-2,1.9h3.9C156.9,276.8,156.2,275.9,155,275.9z"></path>
        </g>
        <g class="st7 text2">
            <path class="st8" d="M217.2,314.8c2.2,0,3.5,1.1,3.5,3.1c0,1.5-1,2.5-2.1,2.8l2.3,4.2h-1.5l-2.1-4h-2.1v4H214v-10.1H217.2z
		 M215.3,315.9v3.9h2c1.3,0,2.1-0.7,2.1-1.9s-0.8-1.9-2.2-1.9h-1.9V315.9z"></path>
            <path class="st8" d="M222.5,318.2c0.4-0.2,1.3-0.5,2.5-0.5c2,0,2.9,1,2.9,2.7v4.5h-1.2v-0.8c0-0.3,0-0.6,0-0.6l0,0
		c-0.1,0.2-0.9,1.6-2.4,1.6c-1.3,0-2.2-0.8-2.2-2.1c0-1.7,1.6-2.6,4.6-2.2v-0.4c0-1.2-0.7-1.6-1.8-1.6c-1,0-1.9,0.3-2.3,0.6v-1.2
		H222.5z M226.6,321.7c-2.3-0.4-3.3,0.3-3.3,1.2c0,0.6,0.4,1,1.1,1C225.6,324,226.6,322.8,226.6,321.7z"></path>
            <path class="st8" d="M230.8,315c0.5,0,0.8,0.3,0.8,0.8s-0.3,0.8-0.8,0.8s-0.8-0.3-0.8-0.8S230.3,315,230.8,315z M231.5,317.8v7
		h-1.3v-7H231.5z"></path>
            <path class="st8" d="M234,314.8h1.3v8c0,0.8,0.2,1.1,0.8,1.1c0.3,0,0.5-0.1,0.6-0.1v1.1c-0.1,0-0.4,0.1-0.9,0.1c-1,0-1.8-0.5-1.8-2
		L234,314.8L234,314.8z"></path>
            <path class="st8" d="M244.3,322.9l1.9-5.1h1.4l-2.9,7.2H244l-1.8-4.8l-1.8,4.8h-0.7l-2.9-7.2h1.4l1.9,5.1l1.8-5h0.7L244.3,322.9z"></path>
            <path class="st8" d="M248.7,318.2c0.4-0.2,1.3-0.5,2.5-0.5c2,0,2.9,1,2.9,2.7v4.5h-1.2v-0.8c0-0.3,0-0.6,0-0.6l0,0
		c-0.1,0.2-0.9,1.6-2.4,1.6c-1.3,0-2.2-0.8-2.2-2.1c0-1.7,1.6-2.6,4.6-2.2v-0.4c0-1.2-0.7-1.6-1.8-1.6c-1,0-1.9,0.3-2.3,0.6v-1.2
		H248.7z M252.8,321.7c-2.3-0.4-3.3,0.3-3.3,1.2c0,0.6,0.4,1,1.1,1C251.9,324,252.8,322.8,252.8,321.7z"></path>
            <path class="st8" d="M255.1,326.9c0.2,0,0.4,0.1,0.8,0.1c1.1,0,1.7-0.9,2.2-2.2l-2.9-6.9h1.4l1,2.5c0.4,1,0.8,2,1.2,3.1
		c0.4-0.8,0.9-2.2,1.2-3.1l1-2.5h1.4l-2.8,6.7c-1,2.3-1.7,3.6-3.6,3.6c-0.4,0-0.7-0.1-0.9-0.1L255.1,326.9L255.1,326.9z"></path>
            <path class="st8" d="M265.2,321.9c-1.2-0.4-2.1-0.9-2.1-2.2c0-1.2,1.1-2,2.5-2c0.8,0,1.5,0.2,2,0.4v1.2c-0.5-0.3-1.2-0.5-1.8-0.5
		c-0.8,0-1.4,0.3-1.4,0.9s0.5,0.8,1.4,1.1c1.5,0.5,2.2,1,2.2,2.2c0,1.3-1,2-2.5,2c-0.9,0-1.7-0.2-2.3-0.5v-1.2
		c0.7,0.3,1.6,0.6,2.2,0.6c0.7,0,1.4-0.3,1.4-0.9C266.7,322.4,266.2,322.2,265.2,321.9z"></path>
        </g>
        <g class="text3">
            <g class="st7">
                <path class="st8" d="M375.8,312.7v-10.1h1.3v10.1H375.8z"></path>
                <path class="st8" d="M381,305.7v1c0,0.3,0,0.5-0.1,0.5l0,0c0.3-0.6,1.2-1.7,2.7-1.7c1.7,0,2.4,1,2.4,2.8v4.4h-1.3v-4.1
		c0-1-0.2-1.8-1.3-1.8c-1.4,0-2.4,1.1-2.4,2.5v3.4h-1.3v-7L381,305.7L381,305.7z"></path>
                <path class="st8" d="M388.5,305.7v-2.1h1.3v2.1h2.1v1.1h-2.1v3.6c0,1,0.4,1.3,1,1.3c0.4,0,0.9-0.1,1.3-0.3v1.1
		c-0.3,0.2-0.9,0.3-1.6,0.3c-1,0-2.1-0.5-2.1-2.1v-4h-1.1v-1.1h1.2V305.7z"></path>
                <path class="st8" d="M399.6,308.8c0,0.3,0,0.5,0,0.7h-5.2l0,0c0,1.4,1,2.2,2.4,2.2c1,0,1.9-0.3,2.5-0.7v1.2
		c-0.5,0.3-1.5,0.6-2.6,0.6c-2.2,0-3.7-1.5-3.7-3.7c0-2.1,1.5-3.7,3.4-3.7C398.5,305.5,399.6,307,399.6,308.8z M396.4,306.6
		c-1.2,0-1.9,0.9-2,1.9h3.9C398.4,307.5,397.7,306.6,396.4,306.6z"></path>
                <path class="st8" d="M401.4,305.7h1.2v1c0,0.3,0,0.5,0,0.5l0,0c0.4-1,1.1-1.7,2.2-1.7c0.2,0,0.4,0,0.4,0v1.3c-0.1,0-0.2,0-0.4,0
		c-1.4,0-2.1,1.5-2.1,2.9v3.1h-1.3L401.4,305.7L401.4,305.7z"></path>
                <path class="st8" d="M408.1,305.7v1c0,0.3,0,0.5-0.1,0.5l0,0c0.3-0.6,1.2-1.7,2.7-1.7c1.7,0,2.4,1,2.4,2.8v4.4h-1.3v-4.1
		c0-1-0.2-1.8-1.3-1.8c-1.4,0-2.4,1.1-2.4,2.5v3.4h-1.3v-7L408.1,305.7L408.1,305.7z"></path>
                <path class="st8" d="M415.3,306c0.4-0.2,1.3-0.5,2.5-0.5c2,0,2.9,1,2.9,2.7v4.5h-1.2v-0.8c0-0.3,0-0.6,0-0.6l0,0
		c-0.1,0.2-0.9,1.6-2.4,1.6c-1.3,0-2.2-0.8-2.2-2.1c0-1.7,1.6-2.6,4.6-2.2v-0.4c0-1.2-0.7-1.6-1.8-1.6c-1,0-1.9,0.3-2.3,0.6V306
		H415.3z M419.4,309.5c-2.3-0.4-3.3,0.3-3.3,1.2c0,0.6,0.4,1,1.1,1C418.5,311.8,419.4,310.6,419.4,309.5z"></path>
                <path class="st8" d="M423,302.6h1.3v8c0,0.8,0.2,1.1,0.8,1.1c0.3,0,0.5-0.1,0.6-0.1v1.1c-0.1,0-0.4,0.1-0.9,0.1c-1,0-1.8-0.5-1.8-2
		V302.6z"></path>
            </g>
            <g class="st7">
                <path class="st8" d="M383.4,321.2c-0.7-0.3-1.7-0.8-3-0.8c-2.3,0-4,1.7-4,4s1.7,4,4,4c1.4,0,2.4-0.4,3.1-0.7v1.3
		c-0.3,0.2-1.5,0.7-3.1,0.7c-3.1,0-5.3-2.2-5.3-5.2s2.3-5.2,5.3-5.2c1.5,0,2.7,0.5,3,0.7V321.2z"></path>
                <path class="st8" d="M391.8,326c0,2.1-1.5,3.7-3.6,3.7s-3.6-1.6-3.6-3.7s1.5-3.7,3.6-3.7C390.2,322.3,391.8,323.8,391.8,326z
		 M390.5,326c0-1.5-1-2.5-2.4-2.5c-1.3,0-2.3,1.1-2.3,2.5s1,2.5,2.3,2.5C389.5,328.5,390.5,327.4,390.5,326z"></path>
                <path class="st8" d="M394.9,322.5v1c0,0.3,0,0.5-0.1,0.5l0,0c0.4-1,1.4-1.7,2.6-1.7c1,0,1.9,0.6,2.1,1.6l0,0
		c0.4-0.9,1.4-1.6,2.4-1.6c1.7,0,2.5,1,2.5,2.8v4.4h-1.3v-4.1c0-1-0.3-1.8-1.3-1.8c-1.5,0-2.1,1.4-2.1,2.7v3.3h-1.3v-4.2
		c0-0.9-0.2-1.8-1.3-1.8c-1.5,0-2.2,1.4-2.2,2.7v3.3h-1.3v-7L394.9,322.5L394.9,322.5z"></path>
                <path class="st8" d="M406.8,319.4h1.3v3.6c0,0.4,0,0.6,0,0.6l0,0c0.4-0.7,1.3-1.3,2.4-1.3c1.8,0,3.2,1.5,3.2,3.7s-1.4,3.7-3.3,3.7
		c-1.1,0-2.1-0.7-2.5-1.5l0,0c0,0,0,0.2,0,0.5v0.8h-1.2v-10.1H406.8z M408.1,326c0,1.8,1.1,2.5,2.2,2.5c1.3,0,2.2-1.1,2.2-2.5
		c0-1.5-0.9-2.5-2.2-2.5C409.3,323.4,408.1,324.2,408.1,326z"></path>
                <path class="st8" d="M420.5,329.5v-1c0-0.3,0.1-0.5,0.1-0.5l0,0c-0.3,0.6-1.2,1.7-2.6,1.7c-1.7,0-2.4-1-2.4-2.8v-4.4h1.3v4.1
		c0,1,0.2,1.8,1.3,1.8c1.3,0,2.3-1.1,2.3-2.5v-3.4h1.3v7L420.5,329.5L420.5,329.5z"></path>
                <path class="st8" d="M425.8,326.5c-1.2-0.4-2.1-0.9-2.1-2.2c0-1.2,1.1-2,2.5-2c0.8,0,1.5,0.2,2,0.4v1.2c-0.5-0.3-1.2-0.5-1.8-0.5
		c-0.8,0-1.4,0.3-1.4,0.9s0.5,0.8,1.4,1.1c1.5,0.5,2.2,1,2.2,2.2c0,1.3-1,2-2.5,2c-0.9,0-1.7-0.2-2.3-0.5V328
		c0.7,0.3,1.6,0.6,2.2,0.6c0.7,0,1.4-0.3,1.4-0.9C427.4,327,426.8,326.8,425.8,326.5z"></path>
                <path class="st8" d="M430.6,322.5v-2.1h1.3v2.1h2.1v1.1h-2.1v3.6c0,1,0.4,1.3,1,1.3c0.4,0,0.9-0.1,1.3-0.3v1.1
		c-0.3,0.2-0.9,0.3-1.6,0.3c-1,0-2.1-0.5-2.1-2.1v-4h-1.1v-1.1h1.2V322.5z"></path>
                <path class="st8" d="M436.3,319.6c0.5,0,0.8,0.3,0.8,0.8s-0.3,0.8-0.8,0.8s-0.8-0.3-0.8-0.8S435.8,319.6,436.3,319.6z M436.9,322.5
		v7h-1.3v-7H436.9z"></path>
                <path class="st8" d="M446.1,326c0,2.1-1.5,3.7-3.6,3.7s-3.6-1.6-3.6-3.7s1.5-3.7,3.6-3.7S446.1,323.8,446.1,326z M444.9,326
		c0-1.5-1-2.5-2.4-2.5c-1.3,0-2.3,1.1-2.3,2.5s1,2.5,2.3,2.5C443.9,328.5,444.9,327.4,444.9,326z"></path>
                <path class="st8" d="M449.3,322.5v1c0,0.3,0,0.5-0.1,0.5l0,0c0.3-0.6,1.2-1.7,2.7-1.7c1.7,0,2.4,1,2.4,2.8v4.4H453v-4.1
		c0-1-0.2-1.8-1.3-1.8c-1.4,0-2.4,1.1-2.4,2.5v3.4H448v-7L449.3,322.5L449.3,322.5z"></path>
            </g>
            <g class="st7">
                <path class="st8" d="M375.8,346.3v-10.1h6.2v1.1h-4.8v3.3h4.1v1.1h-4.1v3.4h5.1v1.1h-6.5V346.3z"></path>
                <path class="st8" d="M385.3,339.3v1c0,0.3,0,0.5-0.1,0.5l0,0c0.3-0.6,1.2-1.7,2.7-1.7c1.7,0,2.4,1,2.4,2.8v4.4H389v-4.1
		c0-1-0.2-1.8-1.3-1.8c-1.4,0-2.4,1.1-2.4,2.5v3.4H384v-7L385.3,339.3L385.3,339.3z"></path>
                <path class="st8" d="M395.8,345.2c1.8,0.2,2.8,0.7,2.8,2s-1.4,2.2-3.4,2.2c-1.9,0-3.2-0.6-3.2-1.9c0-0.8,0.9-1.5,1.9-1.7
		c-0.7-0.1-1.1-0.4-1.1-0.9c0-0.4,0.4-0.8,1-1c-1-0.4-1.7-1.2-1.7-2.3c0-1.5,1.2-2.5,2.8-2.5c0.4,0,0.8,0.1,1.1,0.2h2.5v1h-1
		c-0.2,0-0.4-0.1-0.4-0.1H397c0.4,0.4,0.6,0.8,0.6,1.4c0,1.4-1.1,2.4-2.6,2.4l0,0c-0.6,0.1-1.1,0.3-1.1,0.6
		C394.1,344.9,394.6,345,395.8,345.2z M397.2,347.3c0-0.6-0.6-1.1-2.1-1.1c-1.1,0-1.9,0.5-1.9,1.2s0.8,1.1,2,1.1
		C396.5,348.4,397.2,347.9,397.2,347.3z M396.6,341.6c0-0.9-0.7-1.5-1.6-1.5c-1,0-1.6,0.6-1.6,1.5s0.7,1.5,1.6,1.5
		C396,343.1,396.6,342.5,396.6,341.6z"></path>
                <path class="st8" d="M400.8,336.4c0.5,0,0.8,0.3,0.8,0.8s-0.3,0.8-0.8,0.8s-0.8-0.3-0.8-0.8C400,336.7,400.3,336.4,400.8,336.4z
		 M401.5,339.3v7h-1.3v-7H401.5z"></path>
                <path class="st8" d="M405.3,339.3v1c0,0.3,0,0.5-0.1,0.5l0,0c0.3-0.6,1.2-1.7,2.7-1.7c1.7,0,2.4,1,2.4,2.8v4.4H409v-4.1
		c0-1-0.2-1.8-1.3-1.8c-1.4,0-2.4,1.1-2.4,2.5v3.4H404v-7L405.3,339.3L405.3,339.3z"></path>
                <path class="st8" d="M418.7,342.4c0,0.3,0,0.5,0,0.7h-5.2l0,0c0,1.4,1,2.2,2.4,2.2c1,0,1.9-0.3,2.5-0.7v1.2
		c-0.5,0.3-1.5,0.6-2.6,0.6c-2.2,0-3.7-1.5-3.7-3.7c0-2.1,1.5-3.7,3.4-3.7C417.6,339.1,418.7,340.6,418.7,342.4z M415.5,340.2
		c-1.2,0-1.9,0.9-2,1.9h3.9C417.4,341.1,416.7,340.2,415.5,340.2z"></path>
            </g>
        </g>
        <g class="st7 text4">
            <path class="st8" d="M508.6,337.2v9h-1.3v-9h-3.1V336h7.5v1.1h-3.1V337.2z"></path>
            <path class="st8" d="M517.9,342.2c0,0.3,0,0.5,0,0.7h-5.2l0,0c0,1.4,1,2.2,2.4,2.2c1,0,1.9-0.3,2.5-0.7v1.2
		c-0.5,0.3-1.5,0.6-2.6,0.6c-2.2,0-3.7-1.5-3.7-3.7c0-2.1,1.5-3.7,3.4-3.7C516.8,338.9,517.9,340.5,517.9,342.2z M514.8,340
		c-1.2,0-1.9,0.9-2,1.9h3.9C516.7,341,516,340,514.8,340z"></path>
            <path class="st8" d="M519.8,336h1.3v8c0,0.8,0.2,1.1,0.8,1.1c0.3,0,0.5-0.1,0.6-0.1v1.1c-0.1,0-0.4,0.1-0.9,0.1c-1,0-1.8-0.5-1.8-2
		L519.8,336L519.8,336z"></path>
            <path class="st8" d="M530.2,342.2c0,0.3,0,0.5,0,0.7H525l0,0c0,1.4,1,2.2,2.4,2.2c1,0,1.9-0.3,2.5-0.7v1.2
		c-0.5,0.3-1.5,0.6-2.6,0.6c-2.2,0-3.7-1.5-3.7-3.7c0-2.1,1.5-3.7,3.4-3.7C529.1,338.9,530.2,340.5,530.2,342.2z M527,340
		c-1.2,0-1.9,0.9-2,1.9h3.9C528.9,341,528.3,340,527,340z"></path>
            <path class="st8" d="M532.1,339.1h1.2v0.7c0,0.3,0,0.5,0,0.5l0,0c0.4-0.7,1.3-1.4,2.5-1.4c1.8,0,3.2,1.5,3.2,3.7s-1.4,3.7-3.2,3.7
		c-1.1,0-2.1-0.7-2.4-1.4l0,0c0,0,0,0.2,0,0.6v3.7h-1.3V339.1z M537.8,342.6c0-1.5-0.9-2.5-2.2-2.5c-1.1,0-2.2,0.8-2.2,2.5
		s1.1,2.5,2.2,2.5C536.9,345.1,537.8,344.1,537.8,342.6z"></path>
            <path class="st8" d="M541,336h1.3v3.9c0,0.3,0,0.6,0,0.7l0,0c0.3-0.6,1.1-1.7,2.6-1.7c1.7,0,2.4,1,2.4,2.8v4.4H546V342
		c0-1-0.2-1.8-1.3-1.8c-1.4,0-2.4,1.1-2.4,2.5v3.4H541V336z"></path>
            <path class="st8" d="M556.3,342.6c0,2.1-1.5,3.7-3.6,3.7s-3.6-1.6-3.6-3.7s1.5-3.7,3.6-3.7S556.3,340.5,556.3,342.6z M555,342.6
		c0-1.5-1-2.5-2.4-2.5c-1.3,0-2.3,1.1-2.3,2.5s1,2.5,2.3,2.5C554,345.1,555,344.1,555,342.6z"></path>
            <path class="st8" d="M559.5,339.1v1c0,0.3,0,0.5-0.1,0.5l0,0c0.3-0.6,1.2-1.7,2.7-1.7c1.7,0,2.4,1,2.4,2.8v4.4h-1.3V342
		c0-1-0.2-1.8-1.3-1.8c-1.4,0-2.4,1.1-2.4,2.5v3.4h-1.3v-7H559.5z"></path>
            <path class="st8" d="M572.9,342.2c0,0.3,0,0.5,0,0.7h-5.2l0,0c0,1.4,1,2.2,2.4,2.2c1,0,1.9-0.3,2.5-0.7v1.2
		c-0.5,0.3-1.5,0.6-2.6,0.6c-2.2,0-3.7-1.5-3.7-3.7c0-2.1,1.5-3.7,3.4-3.7C571.8,338.9,572.9,340.5,572.9,342.2z M569.7,340
		c-1.2,0-1.9,0.9-2,1.9h3.9C571.6,341,570.9,340,569.7,340z"></path>
        </g>
        <g class="st7 text5">
            <path class="st8" d="M535.6,269.3L535.6,269.3l4.7,10.3h-1.4l-1-2.2h-4.5l-1,2.2H531L535.6,269.3z M537.4,276.2
		c-0.7-1.5-1.2-2.7-1.8-4.2c-0.6,1.4-1.1,2.6-1.8,4.2H537.4z"></path>
            <path class="st8" d="M546.3,279.6v-1c0-0.3,0.1-0.5,0.1-0.5l0,0c-0.3,0.6-1.2,1.7-2.6,1.7c-1.7,0-2.4-1-2.4-2.8v-4.4h1.3v4.1
		c0,1,0.2,1.8,1.3,1.8c1.3,0,2.3-1.1,2.3-2.5v-3.4h1.3v7L546.3,279.6L546.3,279.6z"></path>
            <path class="st8" d="M550.2,272.6v-2.1h1.3v2.1h2.1v1.1h-2.1v3.6c0,1,0.4,1.3,1,1.3c0.4,0,0.9-0.1,1.3-0.3v1.1
		c-0.3,0.2-0.9,0.3-1.6,0.3c-1,0-2.1-0.5-2.1-2.1v-4H549v-1.1h1.2V272.6z"></path>
            <path class="st8" d="M561.9,276.1c0,2.1-1.5,3.7-3.6,3.7s-3.6-1.6-3.6-3.7s1.5-3.7,3.6-3.7S561.9,274,561.9,276.1z M560.7,276.1
		c0-1.5-1-2.5-2.4-2.5c-1.3,0-2.3,1.1-2.3,2.5s1,2.5,2.3,2.5C559.7,278.6,560.7,277.6,560.7,276.1z"></path>
            <path class="st8" d="M565.1,272.6v1c0,0.3,0,0.5-0.1,0.5l0,0c0.4-1,1.4-1.7,2.6-1.7c1,0,1.9,0.6,2.1,1.6l0,0
		c0.4-0.9,1.4-1.6,2.4-1.6c1.7,0,2.5,1,2.5,2.8v4.4h-1.3v-4.1c0-1-0.3-1.8-1.3-1.8c-1.5,0-2.1,1.4-2.1,2.7v3.3h-1.3v-4.2
		c0-0.9-0.2-1.8-1.3-1.8c-1.5,0-2.2,1.4-2.2,2.7v3.3h-1.3v-7L565.1,272.6L565.1,272.6z"></path>
            <path class="st8" d="M583.6,276.1c0,2.1-1.5,3.7-3.6,3.7s-3.6-1.6-3.6-3.7s1.5-3.7,3.6-3.7S583.6,274,583.6,276.1z M582.4,276.1
		c0-1.5-1-2.5-2.4-2.5c-1.3,0-2.3,1.1-2.3,2.5s1,2.5,2.3,2.5C581.4,278.6,582.4,277.6,582.4,276.1z"></path>
            <path class="st8" d="M585.6,269.5h1.3v3.6c0,0.4,0,0.6,0,0.6l0,0c0.4-0.7,1.3-1.3,2.4-1.3c1.8,0,3.2,1.5,3.2,3.7s-1.4,3.7-3.3,3.7
		c-1.1,0-2.1-0.7-2.5-1.5l0,0c0,0,0,0.2,0,0.5v0.8h-1.2L585.6,269.5L585.6,269.5z M586.9,276.1c0,1.8,1.1,2.5,2.2,2.5
		c1.3,0,2.2-1.1,2.2-2.5c0-1.5-0.9-2.5-2.2-2.5C588,273.5,586.9,274.3,586.9,276.1z"></path>
            <path class="st8" d="M595.1,269.7c0.5,0,0.8,0.3,0.8,0.8s-0.3,0.8-0.8,0.8s-0.8-0.3-0.8-0.8C594.3,270.1,594.6,269.7,595.1,269.7z
		 M595.8,272.6v7h-1.3v-7H595.8z"></path>
            <path class="st8" d="M598.3,269.5h1.3v8c0,0.8,0.2,1.1,0.8,1.1c0.3,0,0.5-0.1,0.6-0.1v1.1c-0.1,0-0.4,0.1-0.9,0.1
		c-1,0-1.8-0.5-1.8-2L598.3,269.5L598.3,269.5z"></path>
            <path class="st8" d="M608.7,275.7c0,0.3,0,0.5,0,0.7h-5.2l0,0c0,1.4,1,2.2,2.4,2.2c1,0,1.9-0.3,2.5-0.7v1.2
		c-0.5,0.3-1.5,0.6-2.6,0.6c-2.2,0-3.7-1.5-3.7-3.7c0-2.1,1.5-3.7,3.4-3.7C607.6,272.4,608.7,273.9,608.7,275.7z M605.5,273.5
		c-1.2,0-1.9,0.9-2,1.9h3.9C607.4,274.4,606.7,273.5,605.5,273.5z"></path>
        </g>
        <g class="st7 text6">
            <path class="st8" d="M569.8,227.2v-10.1h6.2v1.1h-4.8v3.3h4.1v1.1h-4.1v3.4h5.1v1.1L569.8,227.2L569.8,227.2z"></path>
            <path class="st8" d="M578,217.1h1.3v8c0,0.8,0.2,1.1,0.8,1.1c0.3,0,0.5-0.1,0.6-0.1v1.1c-0.1,0-0.4,0.1-0.9,0.1c-1,0-1.8-0.5-1.8-2
		L578,217.1L578,217.1z"></path>
            <path class="st8" d="M588.3,223.3c0,0.3,0,0.5,0,0.7h-5.2l0,0c0,1.4,1,2.2,2.4,2.2c1,0,1.9-0.3,2.5-0.7v1.2
		c-0.5,0.3-1.5,0.6-2.6,0.6c-2.2,0-3.7-1.5-3.7-3.7c0-2.1,1.5-3.7,3.4-3.7C587.2,220,588.3,221.6,588.3,223.3z M585.2,221.1
		c-1.2,0-1.9,0.9-2,1.9h3.9C587.1,222,586.4,221.1,585.2,221.1z"></path>
            <path class="st8" d="M593.4,226.2c1,0,1.7-0.4,2.1-0.6v1.2c-0.4,0.2-1.1,0.6-2.2,0.6c-2.2,0-3.7-1.6-3.7-3.7s1.5-3.7,3.7-3.7
		c1.1,0,1.7,0.3,2.2,0.5v1.2c-0.5-0.3-1.2-0.6-2.1-0.6c-1.4,0-2.4,1-2.4,2.5S592,226.2,593.4,226.2z"></path>
            <path class="st8" d="M597.5,220.2v-2.1h1.3v2.1h2.1v1.1h-2.1v3.6c0,1,0.4,1.3,1,1.3c0.4,0,0.9-0.1,1.3-0.3v1.1
		c-0.3,0.2-0.9,0.3-1.6,0.3c-1,0-2.1-0.5-2.1-2.1v-4h-1.1v-1.1L597.5,220.2L597.5,220.2z"></path>
            <path class="st8" d="M602.5,220.2h1.2v1c0,0.3,0,0.5,0,0.5l0,0c0.4-1,1.1-1.7,2.2-1.7c0.2,0,0.4,0,0.4,0v1.3c-0.1,0-0.2,0-0.4,0
		c-1.4,0-2.1,1.5-2.1,2.9v3.1h-1.3L602.5,220.2L602.5,220.2z"></path>
            <path class="st8" d="M608.6,217.4c0.5,0,0.8,0.3,0.8,0.8s-0.3,0.8-0.8,0.8s-0.8-0.3-0.8-0.8C607.7,217.7,608.1,217.4,608.6,217.4z
		 M609.2,220.2v7h-1.3v-7H609.2z"></path>
            <path class="st8" d="M614.9,226.2c1,0,1.7-0.4,2.1-0.6v1.2c-0.4,0.2-1.1,0.6-2.2,0.6c-2.2,0-3.7-1.6-3.7-3.7s1.5-3.7,3.7-3.7
		c1.1,0,1.7,0.3,2.2,0.5v1.2c-0.5-0.3-1.2-0.6-2.1-0.6c-1.4,0-2.4,1-2.4,2.5S613.5,226.2,614.9,226.2z"></path>
            <path class="st8" d="M619.5,217.4c0.5,0,0.8,0.3,0.8,0.8s-0.3,0.8-0.8,0.8s-0.8-0.3-0.8-0.8S619,217.4,619.5,217.4z M620.2,220.2v7
		h-1.3v-7H620.2z"></path>
            <path class="st8" d="M622.9,220.2v-2.1h1.3v2.1h2.1v1.1h-2.1v3.6c0,1,0.4,1.3,1,1.3c0.4,0,0.9-0.1,1.3-0.3v1.1
		c-0.3,0.2-0.9,0.3-1.6,0.3c-1,0-2.1-0.5-2.1-2.1v-4h-1.1v-1.1L622.9,220.2L622.9,220.2z"></path>
            <path class="st8" d="M626.7,229.2c0.2,0,0.4,0.1,0.8,0.1c1.1,0,1.7-0.9,2.2-2.2l-2.9-6.9h1.4l1,2.5c0.4,1,0.8,2,1.2,3.1
		c0.4-0.8,0.9-2.2,1.2-3.1l1-2.5h1.4l-2.8,6.7c-1,2.3-1.7,3.6-3.6,3.6c-0.4,0-0.7-0.1-0.9-0.1L626.7,229.2L626.7,229.2z"></path>
        </g>
        <g class="st7 text7">
            <path class="st8" d="M928.7,287.8c-0.7-0.3-1.7-0.8-3-0.8c-2.3,0-4,1.7-4,4s1.7,4,4,4c1.4,0,2.4-0.4,3.1-0.7v1.3
		c-0.3,0.2-1.5,0.7-3.1,0.7c-3.1,0-5.3-2.2-5.3-5.2s2.3-5.2,5.3-5.2c1.5,0,2.7,0.5,3,0.7V287.8z"></path>
            <path class="st8" d="M937.1,292.5c0,2.1-1.5,3.7-3.6,3.7s-3.6-1.6-3.6-3.7s1.5-3.7,3.6-3.7S937.1,290.4,937.1,292.5z M935.8,292.5
		c0-1.5-1-2.5-2.4-2.5c-1.3,0-2.3,1.1-2.3,2.5s1,2.5,2.3,2.5C934.9,295,935.8,294,935.8,292.5z"></path>
            <path class="st8" d="M940.3,289v1c0,0.3,0,0.5-0.1,0.5l0,0c0.4-1,1.4-1.7,2.6-1.7c1,0,1.9,0.6,2.1,1.6l0,0c0.4-0.9,1.4-1.6,2.4-1.6
		c1.7,0,2.5,1,2.5,2.8v4.4h-1.3v-4.1c0-1-0.3-1.8-1.3-1.8c-1.5,0-2.1,1.4-2.1,2.7v3.3h-1.3v-4.2c0-0.9-0.2-1.8-1.3-1.8
		c-1.5,0-2.2,1.4-2.2,2.7v3.3H939v-7L940.3,289L940.3,289z"></path>
            <path class="st8" d="M952.2,289h1.2v0.7c0,0.3,0,0.5,0,0.5l0,0c0.4-0.7,1.3-1.4,2.5-1.4c1.8,0,3.3,1.5,3.3,3.7s-1.4,3.7-3.2,3.7
		c-1.1,0-2.1-0.7-2.4-1.4l0,0c0,0,0,0.2,0,0.6v3.7h-1.3L952.2,289L952.2,289z M957.9,292.5c0-1.5-0.9-2.5-2.2-2.5
		c-1.1,0-2.2,0.8-2.2,2.5s1.1,2.5,2.2,2.5C957,295,957.9,294,957.9,292.5z"></path>
            <path class="st8" d="M965.9,296v-1c0-0.3,0.1-0.5,0.1-0.5l0,0c-0.3,0.6-1.2,1.7-2.6,1.7c-1.7,0-2.4-1-2.4-2.8V289h1.3v4.1
		c0,1,0.2,1.8,1.3,1.8c1.3,0,2.3-1.1,2.3-2.5V289h1.3v7H965.9z"></path>
            <path class="st8" d="M969.8,289v-2.1h1.3v2.1h2.1v1.1h-2.1v3.6c0,1,0.4,1.3,1,1.3c0.4,0,0.9-0.1,1.3-0.3v1.1
		c-0.3,0.2-0.9,0.3-1.6,0.3c-1,0-2.1-0.5-2.1-2.1v-4h-1.1v-1H969.8z"></path>
            <path class="st8" d="M980.9,292.1c0,0.3,0,0.5,0,0.7h-5.2l0,0c0,1.4,1,2.2,2.4,2.2c1,0,1.9-0.3,2.5-0.7v1.2
		c-0.5,0.3-1.5,0.6-2.6,0.6c-2.2,0-3.7-1.5-3.7-3.7c0-2.1,1.5-3.7,3.4-3.7C979.7,288.8,980.9,290.4,980.9,292.1z M977.7,289.9
		c-1.2,0-1.9,0.9-2,1.9h3.9C979.6,290.8,978.9,289.9,977.7,289.9z"></path>
            <path class="st8" d="M982.7,289h1.2v1c0,0.3,0,0.5,0,0.5l0,0c0.4-1,1.1-1.7,2.2-1.7c0.2,0,0.4,0,0.4,0v1.3c-0.1,0-0.2,0-0.4,0
		c-1.4,0-2.1,1.5-2.1,2.9v3.1h-1.3L982.7,289L982.7,289z"></path>
            <path class="st8" d="M989.6,293c-1.2-0.4-2.1-0.9-2.1-2.2c0-1.2,1.1-2,2.5-2c0.8,0,1.5,0.2,2,0.4v1.2c-0.5-0.3-1.2-0.5-1.8-0.5
		c-0.8,0-1.4,0.3-1.4,0.9s0.5,0.8,1.4,1.1c1.5,0.5,2.2,1,2.2,2.2c0,1.3-1,2-2.5,2c-0.9,0-1.7-0.2-2.3-0.5v-1.2
		c0.7,0.3,1.6,0.6,2.2,0.6c0.7,0,1.4-0.3,1.4-0.9C991.2,293.6,990.7,293.3,989.6,293z"></path>
        </g>
        <g class="st7 text8">
            <path class="st8" d="M1061.1,302.3v-10.1h1.3v10.1H1061.1z"></path>
            <path class="st8" d="M1066.3,295.3v1c0,0.3,0,0.5-0.1,0.5l0,0c0.3-0.6,1.2-1.7,2.7-1.7c1.7,0,2.4,1,2.4,2.8v4.4h-1.3v-4.1
		c0-1-0.2-1.8-1.3-1.8c-1.4,0-2.4,1.1-2.4,2.5v3.4h-1.3v-7L1066.3,295.3L1066.3,295.3z"></path>
            <path class="st8" d="M1073.8,295.3v-2.1h1.3v2.1h2.1v1.1h-2.1v3.6c0,1,0.4,1.3,1,1.3c0.4,0,0.9-0.1,1.3-0.3v1.1
		c-0.3,0.2-0.9,0.3-1.6,0.3c-1,0-2.1-0.5-2.1-2.1v-4h-1.1v-1.1h1.2V295.3z"></path>
            <path class="st8" d="M1084.9,298.4c0,0.3,0,0.5,0,0.7h-5.2l0,0c0,1.4,1,2.2,2.4,2.2c1,0,1.9-0.3,2.5-0.7v1.2
		c-0.5,0.3-1.5,0.6-2.6,0.6c-2.2,0-3.7-1.5-3.7-3.7c0-2.1,1.5-3.7,3.4-3.7C1083.8,295.2,1084.9,296.7,1084.9,298.4z M1081.7,296.3
		c-1.2,0-1.9,0.9-2,1.9h3.9C1083.7,297.2,1083,296.3,1081.7,296.3z"></path>
            <path class="st8" d="M1086.7,295.3h1.2v1c0,0.3,0,0.5,0,0.5l0,0c0.4-1,1.1-1.7,2.2-1.7c0.2,0,0.4,0,0.4,0v1.3c-0.1,0-0.2,0-0.4,0
		c-1.4,0-2.1,1.5-2.1,2.9v3.1h-1.3L1086.7,295.3L1086.7,295.3z"></path>
            <path class="st8" d="M1093.4,295.3v1c0,0.3,0,0.5-0.1,0.5l0,0c0.3-0.6,1.2-1.7,2.7-1.7c1.7,0,2.4,1,2.4,2.8v4.4h-1.3v-4.1
		c0-1-0.2-1.8-1.3-1.8c-1.4,0-2.4,1.1-2.4,2.5v3.4h-1.3v-7L1093.4,295.3L1093.4,295.3z"></path>
            <path class="st8" d="M1106.8,298.4c0,0.3,0,0.5,0,0.7h-5.2l0,0c0,1.4,1,2.2,2.4,2.2c1,0,1.9-0.3,2.5-0.7v1.2
		c-0.5,0.3-1.5,0.6-2.6,0.6c-2.2,0-3.7-1.5-3.7-3.7c0-2.1,1.5-3.7,3.4-3.7C1105.7,295.2,1106.8,296.7,1106.8,298.4z M1103.6,296.3
		c-1.2,0-1.9,0.9-2,1.9h3.9C1105.5,297.2,1104.9,296.3,1103.6,296.3z"></path>
            <path class="st8" d="M1109.2,295.3v-2.1h1.3v2.1h2.1v1.1h-2.1v3.6c0,1,0.4,1.3,1,1.3c0.4,0,0.9-0.1,1.3-0.3v1.1
		c-0.3,0.2-0.9,0.3-1.6,0.3c-1,0-2.1-0.5-2.1-2.1v-4h-1.1v-1.1h1.2V295.3z"></path>
        </g>
        <g class="st7 text10">
            <path class="st8" d="M1025,201.3L1025,201.3l4.7,10.3h-1.4l-1-2.2h-4.5l-1,2.2h-1.4L1025,201.3z M1026.8,208.2
		c-0.7-1.5-1.2-2.7-1.8-4.2c-0.6,1.4-1.1,2.6-1.8,4.2H1026.8z"></path>
            <path class="st8" d="M1030.8,204.5h1.2v1c0,0.3,0,0.5,0,0.5l0,0c0.4-1,1.1-1.7,2.2-1.7c0.2,0,0.4,0,0.4,0v1.3c-0.1,0-0.2,0-0.4,0
		c-1.4,0-2.1,1.5-2.1,2.9v3.1h-1.3L1030.8,204.5L1030.8,204.5z"></path>
            <path class="st8" d="M1036.7,204.5v-2.1h1.3v2.1h2.1v1.1h-2.1v3.6c0,1,0.4,1.3,1,1.3c0.4,0,0.9-0.1,1.3-0.3v1.1
		c-0.3,0.2-0.9,0.3-1.6,0.3c-1,0-2.1-0.5-2.1-2.1v-4h-1.1v-1.1L1036.7,204.5L1036.7,204.5z"></path>
            <path class="st8" d="M1042.5,201.7c0.5,0,0.8,0.3,0.8,0.8s-0.3,0.8-0.8,0.8s-0.8-0.3-0.8-0.8C1041.6,202,1042,201.7,1042.5,201.7z
		 M1043.1,204.5v7h-1.3v-7H1043.1z"></path>
            <path class="st8" d="M1045.9,204.5v-0.8c0-1.5,1-2.5,2.5-2.5c0.4,0,0.7,0.1,0.9,0.1v1.1c-0.1,0-0.4-0.1-0.7-0.1
		c-0.9,0-1.4,0.5-1.4,1.4v0.7h1.9v1.1h-1.8v5.9h-1.3v-5.9h-1v-1.1h0.9V204.5z"></path>
            <path class="st8" d="M1051.1,201.7c0.5,0,0.8,0.3,0.8,0.8s-0.3,0.8-0.8,0.8s-0.8-0.3-0.8-0.8C1050.3,202,1050.6,201.7,1051.1,201.7
		z M1051.7,204.5v7h-1.3v-7H1051.7z"></path>
            <path class="st8" d="M1057.4,210.5c1,0,1.7-0.4,2.1-0.6v1.2c-0.4,0.2-1.1,0.6-2.2,0.6c-2.2,0-3.7-1.6-3.7-3.7s1.5-3.7,3.7-3.7
		c1.1,0,1.7,0.3,2.2,0.5v1.2c-0.5-0.3-1.2-0.6-2.1-0.6c-1.4,0-2.4,1-2.4,2.5S1056,210.5,1057.4,210.5z"></path>
            <path class="st8" d="M1062,201.7c0.5,0,0.8,0.3,0.8,0.8s-0.3,0.8-0.8,0.8s-0.8-0.3-0.8-0.8S1061.6,201.7,1062,201.7z M1062.7,204.5
		v7h-1.3v-7H1062.7z"></path>
            <path class="st8" d="M1065,204.9c0.4-0.2,1.3-0.5,2.5-0.5c2,0,2.9,1,2.9,2.7v4.5h-1.2v-0.8c0-0.3,0-0.6,0-0.6l0,0
		c-0.1,0.2-0.9,1.6-2.4,1.6c-1.3,0-2.2-0.8-2.2-2.1c0-1.7,1.6-2.6,4.6-2.2v-0.4c0-1.2-0.7-1.6-1.8-1.6c-1,0-1.9,0.3-2.3,0.6
		L1065,204.9L1065,204.9z M1069.1,208.4c-2.3-0.4-3.3,0.3-3.3,1.2c0,0.6,0.4,1,1.1,1C1068.2,210.6,1069.1,209.5,1069.1,208.4z"></path>
            <path class="st8" d="M1072.7,201.4h1.3v8c0,0.8,0.2,1.1,0.8,1.1c0.3,0,0.5-0.1,0.6-0.1v1.1c-0.1,0-0.4,0.1-0.9,0.1
		c-1,0-1.8-0.5-1.8-2V201.4z"></path>
            <path class="st8" d="M1080.8,211.5v-10.1h1.3v10.1H1080.8z"></path>
            <path class="st8" d="M1086,204.5v1c0,0.3,0,0.5-0.1,0.5l0,0c0.3-0.6,1.2-1.7,2.7-1.7c1.7,0,2.4,1,2.4,2.8v4.4h-1.3v-4.1
		c0-1-0.2-1.8-1.3-1.8c-1.4,0-2.4,1.1-2.4,2.5v3.4h-1.3v-7L1086,204.5L1086,204.5z"></path>
            <path class="st8" d="M1093.5,204.5v-2.1h1.3v2.1h2.1v1.1h-2.1v3.6c0,1,0.4,1.3,1,1.3c0.4,0,0.9-0.1,1.3-0.3v1.1
		c-0.3,0.2-0.9,0.3-1.6,0.3c-1,0-2.1-0.5-2.1-2.1v-4h-1.1v-1.1L1093.5,204.5L1093.5,204.5z"></path>
            <path class="st8" d="M1104.6,207.6c0,0.3,0,0.5,0,0.7h-5.2l0,0c0,1.4,1,2.2,2.4,2.2c1,0,1.9-0.3,2.5-0.7v1.2
		c-0.5,0.3-1.5,0.6-2.6,0.6c-2.2,0-3.7-1.5-3.7-3.7c0-2.1,1.5-3.7,3.4-3.7C1103.5,204.4,1104.6,205.9,1104.6,207.6z M1101.4,205.5
		c-1.2,0-1.9,0.9-2,1.9h3.9C1103.3,206.4,1102.7,205.5,1101.4,205.5z"></path>
            <path class="st8" d="M1106.5,201.4h1.3v8c0,0.8,0.2,1.1,0.8,1.1c0.3,0,0.5-0.1,0.6-0.1v1.1c-0.1,0-0.4,0.1-0.9,0.1
		c-1,0-1.8-0.5-1.8-2V201.4z"></path>
            <path class="st8" d="M1110.9,201.4h1.3v8c0,0.8,0.2,1.1,0.8,1.1c0.3,0,0.5-0.1,0.6-0.1v1.1c-0.1,0-0.4,0.1-0.9,0.1
		c-1,0-1.8-0.5-1.8-2V201.4z"></path>
            <path class="st8" d="M1115.9,201.7c0.5,0,0.8,0.3,0.8,0.8s-0.3,0.8-0.8,0.8s-0.8-0.3-0.8-0.8C1115,202,1115.4,201.7,1115.9,201.7z
		 M1116.5,204.5v7h-1.3v-7H1116.5z"></path>
            <path class="st8" d="M1122.1,210.4c1.8,0.2,2.8,0.7,2.8,2s-1.4,2.2-3.4,2.2c-1.9,0-3.2-0.6-3.2-1.9c0-0.8,0.9-1.5,1.9-1.7
		c-0.7-0.1-1.1-0.4-1.1-0.9c0-0.4,0.4-0.8,1-1c-1-0.4-1.7-1.2-1.7-2.3c0-1.5,1.2-2.5,2.8-2.5c0.4,0,0.8,0.1,1.1,0.2h2.5v1h-1
		c-0.2,0-0.4-0.1-0.4-0.1h-0.1c0.4,0.4,0.6,0.8,0.6,1.4c0,1.4-1.1,2.4-2.6,2.4l0,0c-0.6,0.1-1.1,0.3-1.1,0.6
		C1120.5,210.2,1120.9,210.3,1122.1,210.4z M1123.6,212.5c0-0.6-0.6-1.1-2.1-1.1c-1.1,0-1.9,0.5-1.9,1.2s0.8,1.1,2,1.1
		C1122.8,213.7,1123.6,213.2,1123.6,212.5z M1123,206.9c0-0.9-0.7-1.5-1.6-1.5c-1,0-1.6,0.6-1.6,1.5s0.7,1.5,1.6,1.5
		S1123,207.7,1123,206.9z"></path>
            <path class="st8" d="M1132.6,207.6c0,0.3,0,0.5,0,0.7h-5.2l0,0c0,1.4,1,2.2,2.4,2.2c1,0,1.9-0.3,2.5-0.7v1.2
		c-0.5,0.3-1.5,0.6-2.6,0.6c-2.2,0-3.7-1.5-3.7-3.7c0-2.1,1.5-3.7,3.4-3.7C1131.5,204.4,1132.6,205.9,1132.6,207.6z M1129.4,205.5
		c-1.2,0-1.9,0.9-2,1.9h3.9C1131.3,206.4,1130.6,205.5,1129.4,205.5z"></path>
            <path class="st8" d="M1135.7,204.5v1c0,0.3,0,0.5-0.1,0.5l0,0c0.3-0.6,1.2-1.7,2.7-1.7c1.7,0,2.4,1,2.4,2.8v4.4h-1.3v-4.1
		c0-1-0.2-1.8-1.3-1.8c-1.4,0-2.4,1.1-2.4,2.5v3.4h-1.3v-7L1135.7,204.5L1135.7,204.5z"></path>
            <path class="st8" d="M1146.2,210.5c1,0,1.7-0.4,2.1-0.6v1.2c-0.4,0.2-1.1,0.6-2.2,0.6c-2.2,0-3.7-1.6-3.7-3.7s1.5-3.7,3.7-3.7
		c1.1,0,1.7,0.3,2.2,0.5v1.2c-0.5-0.3-1.2-0.6-2.1-0.6c-1.4,0-2.4,1-2.4,2.5S1144.8,210.5,1146.2,210.5z"></path>
            <path class="st8" d="M1156.2,207.6c0,0.3,0,0.5,0,0.7h-5.2l0,0c0,1.4,1,2.2,2.4,2.2c1,0,1.9-0.3,2.5-0.7v1.2
		c-0.5,0.3-1.5,0.6-2.6,0.6c-2.2,0-3.7-1.5-3.7-3.7c0-2.1,1.5-3.7,3.4-3.7C1155.1,204.4,1156.2,205.9,1156.2,207.6z M1153.1,205.5
		c-1.2,0-1.9,0.9-2,1.9h3.9C1155,206.4,1154.3,205.5,1153.1,205.5z"></path>
        </g>
        <g class="st7 text9">
            <path class="st8" d="M1050.2,255.4v-10.1h6.2v1.1h-4.8v3.3h4.1v1.1h-4.1v3.4h5.1v1.1L1050.2,255.4L1050.2,255.4z"></path>
            <path class="st8" d="M1059.7,248.4v1c0,0.3,0,0.5-0.1,0.5l0,0c0.3-0.6,1.2-1.7,2.7-1.7c1.7,0,2.4,1,2.4,2.8v4.4h-1.3v-4.1
		c0-1-0.2-1.8-1.3-1.8c-1.4,0-2.4,1.1-2.4,2.5v3.4h-1.3v-7L1059.7,248.4L1059.7,248.4z"></path>
            <path class="st8" d="M1073.1,251.5c0,0.3,0,0.5,0,0.7h-5.2l0,0c0,1.4,1,2.2,2.4,2.2c1,0,1.9-0.3,2.5-0.7v1.2
		c-0.5,0.3-1.5,0.6-2.6,0.6c-2.2,0-3.7-1.5-3.7-3.7c0-2.1,1.5-3.7,3.4-3.7C1072,248.3,1073.1,249.8,1073.1,251.5z M1069.9,249.4
		c-1.2,0-1.9,0.9-2,1.9h3.9C1071.8,250.3,1071.2,249.4,1069.9,249.4z"></path>
            <path class="st8" d="M1074.9,248.4h1.2v1c0,0.3,0,0.5,0,0.5l0,0c0.4-1,1.1-1.7,2.2-1.7c0.2,0,0.4,0,0.4,0v1.3c-0.1,0-0.2,0-0.4,0
		c-1.4,0-2.1,1.5-2.1,2.9v3.1h-1.3L1074.9,248.4L1074.9,248.4z"></path>
            <path class="st8" d="M1083.7,254.4c1.8,0.2,2.8,0.7,2.8,2c0,1.3-1.4,2.2-3.4,2.2c-1.9,0-3.2-0.6-3.2-1.9c0-0.8,0.9-1.5,1.9-1.7
		c-0.7-0.1-1.1-0.4-1.1-0.9c0-0.4,0.4-0.8,1-1c-1-0.4-1.7-1.2-1.7-2.3c0-1.5,1.2-2.5,2.8-2.5c0.4,0,0.8,0.1,1.1,0.2h2.5v1h-1
		c-0.2,0-0.4-0.1-0.4-0.1h-0.1c0.4,0.4,0.6,0.8,0.6,1.4c0,1.4-1.1,2.4-2.6,2.4l0,0c-0.6,0.1-1.1,0.3-1.1,0.6
		C1082,254.1,1082.5,254.2,1083.7,254.4z M1085.2,256.4c0-0.6-0.6-1.1-2.1-1.1c-1.1,0-1.9,0.5-1.9,1.2s0.8,1.1,2,1.1
		C1084.4,257.6,1085.2,257.1,1085.2,256.4z M1084.5,250.8c0-0.9-0.7-1.5-1.6-1.5c-1,0-1.6,0.6-1.6,1.5s0.7,1.5,1.6,1.5
		C1083.9,252.3,1084.5,251.7,1084.5,250.8z"></path>
            <path class="st8" d="M1087.1,257.5c0.2,0,0.4,0.1,0.8,0.1c1.1,0,1.7-0.9,2.2-2.2l-2.9-6.9h1.4l1,2.5c0.4,1,0.8,2,1.2,3.1
		c0.3-0.8,0.9-2.2,1.2-3.1l1-2.5h1.4l-2.8,6.7c-1,2.3-1.7,3.6-3.6,3.6c-0.4,0-0.7-0.1-0.9-0.1L1087.1,257.5L1087.1,257.5z"></path>
            <path class="st8" d="M1098.7,255v-1.3c0.7,0.4,1.8,0.7,2.8,0.7c1.3,0,2.2-0.5,2.2-1.4s-0.5-1.4-2.2-2c-1.9-0.7-2.8-1.5-2.8-3
		c0-1.7,1.4-2.7,3.4-2.7c1,0,1.9,0.3,2.5,0.5v1.3c-0.6-0.3-1.5-0.6-2.4-0.6c-1.2,0-2.1,0.6-2.1,1.5c0,0.8,0.5,1.4,2.2,2
		c1.9,0.7,2.9,1.5,2.9,3c0,1.7-1.3,2.7-3.4,2.7C1100.4,255.6,1099.3,255.3,1098.7,255z"></path>
            <path class="st8" d="M1106.9,248.4v-2.1h1.3v2.1h2.1v1.1h-2.1v3.6c0,1,0.4,1.3,1,1.3c0.4,0,0.9-0.1,1.3-0.3v1.1
		c-0.3,0.2-0.9,0.3-1.6,0.3c-1,0-2.1-0.5-2.1-2.1v-4h-1.1v-1.1L1106.9,248.4L1106.9,248.4z"></path>
            <path class="st8" d="M1118.6,251.9c0,2.1-1.5,3.7-3.6,3.7s-3.6-1.6-3.6-3.7s1.5-3.7,3.6-3.7
		C1117.1,248.3,1118.6,249.8,1118.6,251.9z M1117.3,251.9c0-1.5-1-2.5-2.4-2.5c-1.3,0-2.3,1.1-2.3,2.5s1,2.5,2.3,2.5
		C1116.4,254.5,1117.3,253.4,1117.3,251.9z"></path>
            <path class="st8" d="M1120.5,248.4h1.2v1c0,0.3,0,0.5,0,0.5l0,0c0.4-1,1.1-1.7,2.2-1.7c0.2,0,0.4,0,0.4,0v1.3c-0.1,0-0.2,0-0.4,0
		c-1.4,0-2.1,1.5-2.1,2.9v3.1h-1.3L1120.5,248.4L1120.5,248.4z"></path>
            <path class="st8" d="M1125.7,248.8c0.4-0.2,1.3-0.5,2.5-0.5c2,0,2.9,1,2.9,2.7v4.5h-1.2v-0.8c0-0.3,0-0.6,0-0.6l0,0
		c-0.1,0.2-0.9,1.6-2.4,1.6c-1.3,0-2.2-0.8-2.2-2.1c0-1.7,1.6-2.6,4.6-2.2V251c0-1.2-0.7-1.6-1.8-1.6c-1,0-1.9,0.3-2.3,0.6
		L1125.7,248.8L1125.7,248.8z M1129.8,252.3c-2.3-0.4-3.2,0.3-3.2,1.2c0,0.6,0.4,1,1.1,1C1128.9,254.6,1129.8,253.4,1129.8,252.3z"></path>
            <path class="st8" d="M1136.4,254.4c1.8,0.2,2.8,0.7,2.8,2c0,1.3-1.4,2.2-3.4,2.2c-1.9,0-3.2-0.6-3.2-1.9c0-0.8,0.9-1.5,1.9-1.7
		c-0.7-0.1-1.1-0.4-1.1-0.9c0-0.4,0.4-0.8,1-1c-1-0.4-1.7-1.2-1.7-2.3c0-1.5,1.2-2.5,2.8-2.5c0.4,0,0.8,0.1,1.1,0.2h2.5v1h-1
		c-0.2,0-0.4-0.1-0.4-0.1h-0.1c0.4,0.4,0.6,0.8,0.6,1.4c0,1.4-1.1,2.4-2.6,2.4l0,0c-0.6,0.1-1.1,0.3-1.1,0.6
		C1134.8,254.1,1135.2,254.2,1136.4,254.4z M1137.9,256.4c0-0.6-0.6-1.1-2.1-1.1c-1.1,0-1.9,0.5-1.9,1.2s0.8,1.1,2,1.1
		S1137.9,257.1,1137.9,256.4z M1137.3,250.8c0-0.9-0.7-1.5-1.6-1.5c-1,0-1.6,0.6-1.6,1.5s0.7,1.5,1.6,1.5
		C1136.7,252.3,1137.3,251.7,1137.3,250.8z"></path>
            <path class="st8" d="M1146.9,251.5c0,0.3,0,0.5,0,0.7h-5.2l0,0c0,1.4,1,2.2,2.4,2.2c1,0,1.9-0.3,2.5-0.7v1.2
		c-0.5,0.3-1.5,0.6-2.6,0.6c-2.2,0-3.7-1.5-3.7-3.7c0-2.1,1.5-3.7,3.4-3.7C1145.8,248.3,1146.9,249.8,1146.9,251.5z M1143.7,249.4
		c-1.2,0-1.9,0.9-2,1.9h3.9C1145.6,250.3,1144.9,249.4,1143.7,249.4z"></path>
        </g>
        <g class="st7 text11">
            <path class="st8" d="M1106.5,151.5c2.2,0,3.5,1.1,3.5,3.1c0,1.5-1,2.5-2.1,2.8l2.3,4.2h-1.5l-2.1-4h-2.1v4h-1.3v-10.1H1106.5z
		 M1104.6,152.7v3.9h2c1.3,0,2.1-0.7,2.1-1.9s-0.8-1.9-2.2-1.9h-1.9V152.7z"></path>
            <path class="st8" d="M1118.6,158.1c0,2.1-1.5,3.7-3.6,3.7s-3.6-1.6-3.6-3.7s1.5-3.7,3.6-3.7C1117.1,154.5,1118.6,156,1118.6,158.1z
		 M1117.3,158.1c0-1.5-1-2.5-2.4-2.5c-1.3,0-2.3,1.1-2.3,2.5s1,2.5,2.3,2.5C1116.4,160.7,1117.3,159.6,1117.3,158.1z"></path>
            <path class="st8" d="M1120.6,151.5h1.3v3.6c0,0.4,0,0.6,0,0.6l0,0c0.4-0.7,1.3-1.3,2.4-1.3c1.8,0,3.2,1.5,3.2,3.7s-1.4,3.7-3.3,3.7
		c-1.1,0-2.1-0.7-2.5-1.5l0,0c0,0,0,0.2,0,0.5v0.8h-1.2L1120.6,151.5L1120.6,151.5z M1121.9,158.1c0,1.8,1.1,2.5,2.2,2.5
		c1.3,0,2.2-1.1,2.2-2.5c0-1.5-0.9-2.5-2.2-2.5C1123,155.6,1121.9,156.4,1121.9,158.1z"></path>
            <path class="st8" d="M1136.1,158.1c0,2.1-1.5,3.7-3.6,3.7s-3.6-1.6-3.6-3.7s1.5-3.7,3.6-3.7C1134.6,154.5,1136.1,156,1136.1,158.1z
		 M1134.8,158.1c0-1.5-1-2.5-2.4-2.5c-1.3,0-2.3,1.1-2.3,2.5s1,2.5,2.3,2.5C1133.8,160.7,1134.8,159.6,1134.8,158.1z"></path>
            <path class="st8" d="M1138.2,154.6v-2.1h1.3v2.1h2.1v1.1h-2.1v3.6c0,1,0.4,1.3,1,1.3c0.4,0,0.9-0.1,1.3-0.3v1.1
		c-0.3,0.2-0.9,0.3-1.6,0.3c-1,0-2.1-0.5-2.1-2.1v-4h-1.1v-1.1L1138.2,154.6L1138.2,154.6z"></path>
            <path class="st8" d="M1143.9,151.8c0.5,0,0.8,0.3,0.8,0.8s-0.3,0.8-0.8,0.8s-0.8-0.3-0.8-0.8S1143.4,151.8,1143.9,151.8z
		 M1144.6,154.6v7h-1.3v-7H1144.6z"></path>
            <path class="st8" d="M1150.2,160.6c1,0,1.7-0.4,2.1-0.6v1.2c-0.4,0.2-1.1,0.6-2.2,0.6c-2.2,0-3.7-1.6-3.7-3.7s1.5-3.7,3.7-3.7
		c1.1,0,1.7,0.3,2.2,0.5v1.2c-0.5-0.3-1.2-0.6-2.1-0.6c-1.4,0-2.4,1-2.4,2.5S1148.8,160.6,1150.2,160.6z"></path>
            <path class="st8" d="M1155.8,158.6c-1.2-0.4-2.1-0.9-2.1-2.2c0-1.2,1.1-2,2.5-2c0.8,0,1.5,0.2,2,0.4v1.2c-0.5-0.3-1.2-0.5-1.8-0.5
		c-0.8,0-1.4,0.3-1.4,0.9c0,0.6,0.5,0.8,1.4,1.1c1.5,0.5,2.2,1,2.2,2.2c0,1.3-1,2-2.5,2c-0.9,0-1.7-0.2-2.3-0.5V160
		c0.7,0.3,1.6,0.6,2.2,0.6c0.7,0,1.4-0.3,1.4-0.9C1157.3,159.2,1156.8,159,1155.8,158.6z"></path>
        </g>
        <g class="st7 text12">
            <path class="st8" d="M1035.5,112.7c-3.1,0-5.3-2.2-5.3-5.2s2.3-5.2,5.4-5.2c1.5,0,2.7,0.5,3,0.7v1.3c-0.7-0.3-1.7-0.8-3-0.8
		c-2.4,0-4,1.7-4,4s1.7,4,4,4c0.7,0,1.5-0.2,2-0.4v-3h1.3v3.9C1038,112.3,1036.7,112.7,1035.5,112.7z"></path>
            <path class="st8" d="M1046.8,108.6c0,0.3,0,0.5,0,0.7h-5.2l0,0c0,1.4,1,2.2,2.4,2.2c1,0,1.9-0.3,2.5-0.7v1.2
		c-0.5,0.3-1.5,0.6-2.6,0.6c-2.2,0-3.7-1.5-3.7-3.7c0-2.1,1.5-3.7,3.4-3.7C1045.7,105.3,1046.8,106.9,1046.8,108.6z M1043.6,106.4
		c-1.2,0-1.9,0.9-2,1.9h3.9C1045.5,107.3,1044.9,106.4,1043.6,106.4z"></path>
            <path class="st8" d="M1049.9,105.5v1c0,0.3,0,0.5-0.1,0.5l0,0c0.3-0.6,1.2-1.7,2.7-1.7c1.7,0,2.4,1,2.4,2.8v4.4h-1.3v-4.1
		c0-1-0.2-1.8-1.3-1.8c-1.4,0-2.4,1.1-2.4,2.5v3.4h-1.3v-7C1048.6,105.5,1049.9,105.5,1049.9,105.5z"></path>
            <path class="st8" d="M1064,109c0,2.1-1.5,3.7-3.6,3.7s-3.6-1.6-3.6-3.7s1.5-3.7,3.6-3.7C1062.4,105.3,1064,106.9,1064,109z
		 M1062.7,109c0-1.5-1-2.5-2.4-2.5c-1.3,0-2.3,1.1-2.3,2.5s1,2.5,2.3,2.5C1061.7,111.5,1062.7,110.5,1062.7,109z"></path>
            <path class="st8" d="M1067.1,105.5v1c0,0.3,0,0.5-0.1,0.5l0,0c0.4-1,1.4-1.7,2.6-1.7c1,0,1.9,0.6,2.1,1.6l0,0
		c0.4-0.9,1.4-1.6,2.4-1.6c1.7,0,2.5,1,2.5,2.8v4.4h-1.3v-4.1c0-1-0.3-1.8-1.3-1.8c-1.5,0-2.1,1.4-2.1,2.7v3.3h-1.3v-4.2
		c0-0.9-0.2-1.8-1.3-1.8c-1.5,0-2.2,1.4-2.2,2.7v3.3h-1.3v-7h1.3V105.5z"></path>
            <path class="st8" d="M1085,108.6c0,0.3,0,0.5,0,0.7h-5.2l0,0c0,1.4,1,2.2,2.4,2.2c1,0,1.9-0.3,2.5-0.7v1.2
		c-0.5,0.3-1.5,0.6-2.6,0.6c-2.2,0-3.7-1.5-3.7-3.7c0-2.1,1.5-3.7,3.4-3.7C1083.9,105.3,1085,106.9,1085,108.6z M1081.8,106.4
		c-1.2,0-1.9,0.9-2,1.9h3.9C1083.7,107.3,1083.1,106.4,1081.8,106.4z"></path>
            <path class="st8" d="M1090,112.1v-1.3c0.7,0.4,1.8,0.7,2.8,0.7c1.3,0,2.2-0.5,2.2-1.4s-0.5-1.4-2.2-2c-1.9-0.7-2.8-1.5-2.8-3
		c0-1.7,1.4-2.7,3.4-2.7c1,0,1.9,0.3,2.5,0.5v1.3c-0.6-0.3-1.5-0.6-2.4-0.6c-1.2,0-2.1,0.6-2.1,1.5c0,0.8,0.5,1.4,2.2,2
		c1.9,0.7,2.9,1.5,2.9,3c0,1.7-1.3,2.7-3.4,2.7C1091.7,112.7,1090.6,112.4,1090,112.1z"></path>
            <path class="st8" d="M1104.1,108.6c0,0.3,0,0.5,0,0.7h-5.2l0,0c0,1.4,1,2.2,2.4,2.2c1,0,1.9-0.3,2.5-0.7v1.2
		c-0.5,0.3-1.5,0.6-2.6,0.6c-2.2,0-3.7-1.5-3.7-3.7c0-2.1,1.5-3.7,3.4-3.7C1103,105.3,1104.1,106.9,1104.1,108.6z M1100.9,106.4
		c-1.2,0-1.9,0.9-2,1.9h3.9C1102.8,107.3,1102.2,106.4,1100.9,106.4z"></path>
            <path class="st8" d="M1112.4,115.6h-1.3v-3.7c0-0.4,0-0.6,0-0.6l0,0c-0.4,0.7-1.3,1.4-2.4,1.4c-1.8,0-3.2-1.5-3.2-3.7
		s1.4-3.7,3.3-3.7c1.1,0,2.1,0.7,2.5,1.4l0,0c0,0,0-0.2,0-0.5v-0.7h1.2L1112.4,115.6L1112.4,115.6z M1111,109c0-1.8-1.1-2.5-2.2-2.5
		c-1.3,0-2.2,1.1-2.2,2.5c0,1.5,0.9,2.5,2.2,2.5C1109.9,111.5,1111,110.7,1111,109z"></path>
            <path class="st8" d="M1119.7,112.5v-1c0-0.3,0.1-0.5,0.1-0.5l0,0c-0.3,0.6-1.2,1.7-2.6,1.7c-1.7,0-2.4-1-2.4-2.8v-4.4h1.3v4.1
		c0,1,0.2,1.8,1.3,1.8c1.3,0,2.3-1.1,2.3-2.5v-3.4h1.3v7C1121,112.5,1119.7,112.5,1119.7,112.5z"></path>
            <path class="st8" d="M1129.5,108.6c0,0.3,0,0.5,0,0.7h-5.2l0,0c0,1.4,1,2.2,2.4,2.2c1,0,1.9-0.3,2.5-0.7v1.2
		c-0.5,0.3-1.5,0.6-2.6,0.6c-2.2,0-3.7-1.5-3.7-3.7c0-2.1,1.5-3.7,3.4-3.7C1128.4,105.3,1129.5,106.9,1129.5,108.6z M1126.3,106.4
		c-1.2,0-1.9,0.9-2,1.9h3.9C1128.2,107.3,1127.6,106.4,1126.3,106.4z"></path>
            <path class="st8" d="M1132.6,105.5v1c0,0.3,0,0.5-0.1,0.5l0,0c0.3-0.6,1.2-1.7,2.7-1.7c1.7,0,2.4,1,2.4,2.8v4.4h-1.3v-4.1
		c0-1-0.2-1.8-1.3-1.8c-1.4,0-2.4,1.1-2.4,2.5v3.4h-1.3v-7C1131.3,105.5,1132.6,105.5,1132.6,105.5z"></path>
            <path class="st8" d="M1143.2,111.5c1,0,1.7-0.4,2.1-0.6v1.2c-0.4,0.2-1.1,0.6-2.2,0.6c-2.2,0-3.7-1.6-3.7-3.7s1.5-3.7,3.7-3.7
		c1.1,0,1.7,0.3,2.2,0.5v1.2c-0.5-0.3-1.2-0.6-2.1-0.6c-1.4,0-2.4,1-2.4,2.5S1141.7,111.5,1143.2,111.5z"></path>
            <path class="st8" d="M1147.8,102.7c0.5,0,0.8,0.3,0.8,0.8s-0.3,0.8-0.8,0.8s-0.8-0.3-0.8-0.8S1147.3,102.7,1147.8,102.7z
		 M1148.5,105.5v7h-1.3v-7H1148.5z"></path>
            <path class="st8" d="M1152.2,105.5v1c0,0.3,0,0.5-0.1,0.5l0,0c0.3-0.6,1.2-1.7,2.7-1.7c1.7,0,2.4,1,2.4,2.8v4.4h-1.3v-4.1
		c0-1-0.2-1.8-1.3-1.8c-1.4,0-2.4,1.1-2.4,2.5v3.4h-1.3v-7C1150.9,105.5,1152.2,105.5,1152.2,105.5z"></path>
            <path class="st8" d="M1162.7,111.4c1.8,0.2,2.8,0.7,2.8,2s-1.4,2.2-3.4,2.2c-1.9,0-3.2-0.6-3.2-1.9c0-0.8,0.9-1.5,1.9-1.7
		c-0.7-0.1-1.1-0.4-1.1-0.9c0-0.4,0.4-0.8,1-1c-1-0.4-1.7-1.2-1.7-2.3c0-1.5,1.2-2.5,2.8-2.5c0.4,0,0.8,0.1,1.1,0.2h2.5v1h-1
		c-0.2,0-0.4-0.1-0.4-0.1h-0.1c0.4,0.4,0.6,0.8,0.6,1.4c0,1.4-1.1,2.4-2.6,2.4l0,0c-0.6,0.1-1.1,0.3-1.1,0.6
		C1161,111.1,1161.5,111.3,1162.7,111.4z M1164.2,113.5c0-0.6-0.6-1.1-2.1-1.1c-1.1,0-1.9,0.5-1.9,1.2s0.8,1.1,2,1.1
		C1163.4,114.6,1164.2,114.2,1164.2,113.5z M1163.6,107.8c0-0.9-0.7-1.5-1.6-1.5c-1,0-1.6,0.6-1.6,1.5s0.7,1.5,1.6,1.5
		S1163.6,108.7,1163.6,107.8z"></path>
        </g>
        <g class="st7 text13">
            <path class="st8" d="M1032.3,60.6c0,1.7-1.3,2.8-3.3,2.8h-3.5v-10h3.1c2,0,3.3,1,3.3,2.8c0,0.9-0.5,1.7-1.3,2
		C1031.6,58.5,1032.3,59.5,1032.3,60.6z M1029.4,57.8c0.6-0.2,1-0.7,1-1.5c0-1-0.7-1.7-1.8-1.7h-1.9v3.3L1029.4,57.8L1029.4,57.8z
		 M1026.8,62.4h2.2c1.2,0,1.9-0.7,1.9-1.8s-0.7-1.8-1.7-1.8h-2.5L1026.8,62.4L1026.8,62.4z"></path>
            <path class="st8" d="M1034,53.4h1.3v8c0,0.8,0.2,1.1,0.8,1.1c0.3,0,0.5-0.1,0.6-0.1v1.1c-0.1,0-0.4,0.1-0.9,0.1c-1,0-1.8-0.5-1.8-2
		V53.4z"></path>
            <path class="st8" d="M1045,60c0,2.1-1.5,3.7-3.6,3.7s-3.6-1.6-3.6-3.7s1.5-3.7,3.6-3.7S1045,57.8,1045,60z M1043.7,60
		c0-1.5-1-2.5-2.4-2.5c-1.3,0-2.3,1.1-2.3,2.5s1,2.5,2.3,2.5C1042.7,62.5,1043.7,61.4,1043.7,60z"></path>
            <path class="st8" d="M1050.3,62.5c1,0,1.7-0.4,2.1-0.6v1.2c-0.4,0.2-1.1,0.6-2.2,0.6c-2.2,0-3.7-1.6-3.7-3.7s1.5-3.7,3.7-3.7
		c1.1,0,1.7,0.3,2.2,0.5V58c-0.5-0.3-1.2-0.6-2.1-0.6c-1.4,0-2.4,1-2.4,2.5S1048.9,62.5,1050.3,62.5z"></path>
            <path class="st8" d="M1057.8,59.3l2.7,4.1h-1.5l-2.2-3.4l-1.2,1.3v2.1h-1.3v-10h1.3V60l3.2-3.5h1.6L1057.8,59.3z"></path>
            <path class="st8" d="M1064.9,62.5c1,0,1.7-0.4,2.1-0.6v1.2c-0.4,0.2-1.1,0.6-2.2,0.6c-2.2,0-3.7-1.6-3.7-3.7s1.5-3.7,3.7-3.7
		c1.1,0,1.7,0.3,2.2,0.5V58c-0.5-0.3-1.2-0.6-2.1-0.6c-1.4,0-2.4,1-2.4,2.5S1063.5,62.5,1064.9,62.5z"></path>
            <path class="st8" d="M1068.9,53.4h1.3v3.9c0,0.3,0,0.6,0,0.7l0,0c0.3-0.6,1.1-1.7,2.6-1.7c1.7,0,2.4,1,2.4,2.8v4.4h-1.3v-4.1
		c0-1-0.2-1.8-1.3-1.8c-1.4,0-2.4,1.1-2.4,2.5v3.4h-1.3L1068.9,53.4L1068.9,53.4z"></path>
            <path class="st8" d="M1077.3,56.8c0.4-0.2,1.3-0.5,2.5-0.5c2,0,2.9,1,2.9,2.7v4.5h-1.2v-0.8c0-0.3,0-0.6,0-0.6l0,0
		c-0.1,0.2-0.9,1.6-2.4,1.6c-1.3,0-2.2-0.8-2.2-2.1c0-1.7,1.6-2.6,4.6-2.2V59c0-1.2-0.7-1.6-1.8-1.6c-1,0-1.9,0.3-2.3,0.6
		L1077.3,56.8L1077.3,56.8z M1081.4,60.3c-2.3-0.4-3.3,0.3-3.3,1.2c0,0.6,0.4,1,1.1,1C1080.5,62.6,1081.4,61.4,1081.4,60.3z"></path>
            <path class="st8" d="M1085.6,53.6c0.5,0,0.8,0.3,0.8,0.8s-0.3,0.8-0.8,0.8s-0.8-0.3-0.8-0.8C1084.8,54,1085.1,53.6,1085.6,53.6z
		 M1086.3,56.5v7h-1.3v-7H1086.3z"></path>
            <path class="st8" d="M1090.1,56.5v1c0,0.3,0,0.5-0.1,0.5l0,0c0.3-0.6,1.2-1.7,2.7-1.7c1.7,0,2.4,1,2.4,2.8v4.4h-1.3v-4.1
		c0-1-0.2-1.8-1.3-1.8c-1.4,0-2.4,1.1-2.4,2.5v3.4h-1.3v-7L1090.1,56.5z"></path>
            <path class="st8" d="M1104.4,54.5v9h-1.3v-9h-3.1v-1.1h7.5v1.1H1104.4z"></path>
            <path class="st8" d="M1113.8,59.6c0,0.3,0,0.5,0,0.7h-5.2l0,0c0,1.4,1,2.2,2.4,2.2c1,0,1.9-0.3,2.5-0.7V63
		c-0.5,0.3-1.5,0.6-2.6,0.6c-2.2,0-3.7-1.5-3.7-3.7c0-2.1,1.5-3.7,3.4-3.7C1112.7,56.3,1113.8,57.8,1113.8,59.6z M1110.6,57.4
		c-1.2,0-1.9,0.9-2,1.9h3.9C1112.5,58.3,1111.9,57.4,1110.6,57.4z"></path>
            <path class="st8" d="M1118.9,62.5c1,0,1.7-0.4,2.1-0.6v1.2c-0.4,0.2-1.1,0.6-2.2,0.6c-2.2,0-3.7-1.6-3.7-3.7s1.5-3.7,3.7-3.7
		c1.1,0,1.7,0.3,2.2,0.5V58c-0.5-0.3-1.2-0.6-2.1-0.6c-1.4,0-2.4,1-2.4,2.5S1117.5,62.5,1118.9,62.5z"></path>
            <path class="st8" d="M1122.9,53.4h1.3v3.9c0,0.3,0,0.6,0,0.7l0,0c0.3-0.6,1.1-1.7,2.6-1.7c1.7,0,2.4,1,2.4,2.8v4.4h-1.3v-4.1
		c0-1-0.2-1.8-1.3-1.8c-1.4,0-2.4,1.1-2.4,2.5v3.4h-1.3L1122.9,53.4L1122.9,53.4z"></path>
            <path class="st8" d="M1132.7,56.5v1c0,0.3,0,0.5-0.1,0.5l0,0c0.3-0.6,1.2-1.7,2.7-1.7c1.7,0,2.4,1,2.4,2.8v4.4h-1.3v-4.1
		c0-1-0.2-1.8-1.3-1.8c-1.4,0-2.4,1.1-2.4,2.5v3.4h-1.3v-7L1132.7,56.5z"></path>
            <path class="st8" d="M1146.7,60c0,2.1-1.5,3.7-3.6,3.7s-3.6-1.6-3.6-3.7s1.5-3.7,3.6-3.7S1146.7,57.8,1146.7,60z M1145.5,60
		c0-1.5-1-2.5-2.4-2.5c-1.3,0-2.3,1.1-2.3,2.5s1,2.5,2.3,2.5C1144.5,62.5,1145.5,61.4,1145.5,60z"></path>
            <path class="st8" d="M1148.7,53.4h1.3v8c0,0.8,0.2,1.1,0.8,1.1c0.3,0,0.5-0.1,0.6-0.1v1.1c-0.1,0-0.4,0.1-0.9,0.1
		c-1,0-1.8-0.5-1.8-2V53.4z"></path>
            <path class="st8" d="M1159.7,60c0,2.1-1.5,3.7-3.6,3.7s-3.6-1.6-3.6-3.7s1.5-3.7,3.6-3.7C1158.1,56.3,1159.7,57.8,1159.7,60z
		 M1158.4,60c0-1.5-1-2.5-2.4-2.5c-1.3,0-2.3,1.1-2.3,2.5s1,2.5,2.3,2.5C1157.4,62.5,1158.4,61.4,1158.4,60z"></path>
            <path class="st8" d="M1164.7,62.4c1.8,0.2,2.8,0.7,2.8,2c0,1.3-1.4,2.2-3.4,2.2c-1.9,0-3.2-0.6-3.2-1.9c0-0.8,0.9-1.5,1.9-1.7
		c-0.7-0.1-1.1-0.4-1.1-0.9c0-0.4,0.4-0.8,1-1c-1-0.4-1.7-1.2-1.7-2.3c0-1.5,1.2-2.5,2.8-2.5c0.4,0,0.8,0.1,1.1,0.2h2.5v1h-1
		c-0.2,0-0.4-0.1-0.4-0.1h-0.1c0.4,0.4,0.6,0.8,0.6,1.4c0,1.4-1.1,2.4-2.6,2.4l0,0c-0.6,0.1-1.1,0.3-1.1,0.6
		C1163,62.1,1163.5,62.2,1164.7,62.4z M1166.2,64.5c0-0.6-0.6-1.1-2.1-1.1c-1.1,0-1.9,0.5-1.9,1.2s0.8,1.1,2,1.1
		C1165.4,65.6,1166.2,65.1,1166.2,64.5z M1165.6,58.8c0-0.9-0.7-1.5-1.6-1.5c-1,0-1.6,0.6-1.6,1.5s0.7,1.5,1.6,1.5
		S1165.6,59.7,1165.6,58.8z"></path>
            <path class="st8" d="M1168.1,65.5c0.2,0,0.4,0.1,0.8,0.1c1.1,0,1.7-0.9,2.2-2.2l-2.9-6.9h1.4l1,2.5c0.4,1,0.8,2,1.2,3.1
		c0.4-0.8,0.9-2.2,1.2-3.1l1-2.5h1.4l-2.8,6.7c-1,2.3-1.7,3.6-3.6,3.6c-0.4,0-0.7-0.1-0.9-0.1L1168.1,65.5L1168.1,65.5z"></path>
        </g>
    </g>
    <path class="st5 graph-line-fill" d="M72.5,439.9l-1,1.5l-8.9,7c-2.2,1.7-4.6,3.2-7.1,4.3l-0.5,0.2c-3.2,1.4-6.5,2.3-10,2.5l-9,0.6v-15h33.1
	c2.7-6.5,6.7-10.6,11.7-20.6c7.4-14.9,13.2-29.1,22.5-42.3c19.1-27.1,33.1-48.1,43.1-38.3c24,23.5,22.1,70.1,70.7,66.1
	s58-51.9,94.8-28.5c27,17.2,23.7,27.4,34.7,27.1c2.5-0.1,5.6-2.8,7.4-3.9c1.6-1,3.5-1.7,7.2-2.7c14.6-4.2,25.1,3.2,33.7,10.2
	c4.8,3.9,8.7,8.5,12.9,8.9c4.3,0.5,14-1.1,21.3-7.6c6.9-6.2,9.6-17.6,20.6-24.5c13.5-8.4,20.4-12.8,25.3-9.5c7.9,5.3,14,9.6,19,12.4
	c20,11,15.6,13.6,24.7,12.9c7.3-0.6,16.9-19.2,22.8-18.3c18.6,2.9,29.6,4.8,39.7,2.7c11.2-2.3,15-2,26.6-20.4
	c5.6-8.8,13.1-16.4,15.9-26.1c10.7-37.5,7.2-71.9,42.1-27.5c3.2,4,5.4,9.2,8.3,13.2c7.6,10.5,9.9,21.2,21.1,30.3
	c9.4,7.7,14.5,18.8,22,27c11.3,12.4,26.5,18.9,40.5,27.4c12.8,7.7,28.3,18.5,43.9,27.3c15.5,2.3,17.5,0.6,21.9-2.3
	c5.3-3.5,19.8-4.6,24-2l17,7.8l23.2-0.3c25.4-1.4,40.2,0.3,42-1.4c4.3-4,8.7-16.1,19-30.7c9.3-13.1,19.6-26.4,30.5-35.9
	c11.3-9.8,19.9-23.6,31.8-14.7c7.8,5.8,14.2,11.5,20.4,13.8c11.7,4.3,23.9,3.5,34.3,3.1c9.6-0.4,14.6-1.4,23.6-4.9
	c8.4-3.2,10.3-10.3,13.9-15.4c6.1-8.6,11.9-15.1,24.2-13.6c4,0.5,11.4-0.2,16.5,2.7c4.1,2.3,6.3,7.7,7.8,12.4
	c5.5,17.8,12.5,42.2,17.9,48.7c2.5,3,9.6-9.8,13-15.8c5.5-9.9,8.4-21.4,11.7-34.3c6.5-25.1,8.1-55.3,12.1-91.3
	c3.8-34.6,4.5-63.2,6.4-85.2c3.2-37.1,10.4-60,10.4-60s11.9-23.2,15.7,4.7c1,7.3-3,21.6-2.1,36.5c5.2,84.9-0.7,213.5-3,281.6
	l-303.5,0.6c-8.4,7.8-10.6,10.1-23.3,10.3c-9.9,0.2-30.2-2.4-44-10.9L72.5,439.9z"></path>


</svg>